<svg width="342" height="326" viewBox="0 0 342 326" fill="none" xmlns="http://www.w3.org/2000/svg">
<line x1="43" y1="-4.37114e-08" x2="43" y2="300" stroke="#001421" stroke-width="2"/>
<line x1="342" y1="301" x2="42" y2="301" stroke="#001421" stroke-width="2"/>
<path d="M6.88477 146.395H4.14258V154H3.02344V146.395H0.287109V145.469H6.88477V146.395ZM9.1582 154H8.07422V147.66H9.1582V154ZM7.98633 145.979C7.98633 145.803 8.03906 145.654 8.14453 145.533C8.25391 145.412 8.41406 145.352 8.625 145.352C8.83594 145.352 8.99609 145.412 9.10547 145.533C9.21484 145.654 9.26953 145.803 9.26953 145.979C9.26953 146.154 9.21484 146.301 9.10547 146.418C8.99609 146.535 8.83594 146.594 8.625 146.594C8.41406 146.594 8.25391 146.535 8.14453 146.418C8.03906 146.301 7.98633 146.154 7.98633 145.979ZM11.918 147.66L11.9473 148.363C12.4121 147.816 13.0391 147.543 13.8281 147.543C14.7148 147.543 15.3184 147.883 15.6387 148.562C15.8496 148.258 16.123 148.012 16.459 147.824C16.7988 147.637 17.1992 147.543 17.6602 147.543C19.0508 147.543 19.7578 148.279 19.7812 149.752V154H18.6973V149.816C18.6973 149.363 18.5938 149.025 18.3867 148.803C18.1797 148.576 17.832 148.463 17.3438 148.463C16.9414 148.463 16.6074 148.584 16.3418 148.826C16.0762 149.064 15.9219 149.387 15.8789 149.793V154H14.7891V149.846C14.7891 148.924 14.3379 148.463 13.4355 148.463C12.7246 148.463 12.2383 148.766 11.9766 149.371V154H10.8926V147.66H11.918ZM24.0527 154.117C23.1934 154.117 22.4941 153.836 21.9551 153.273C21.416 152.707 21.1465 151.951 21.1465 151.006V150.807C21.1465 150.178 21.2656 149.617 21.5039 149.125C21.7461 148.629 22.082 148.242 22.5117 147.965C22.9453 147.684 23.4141 147.543 23.918 147.543C24.7422 147.543 25.3828 147.814 25.8398 148.357C26.2969 148.9 26.5254 149.678 26.5254 150.689V151.141H22.2305C22.2461 151.766 22.4277 152.271 22.7754 152.658C23.127 153.041 23.5723 153.232 24.1113 153.232C24.4941 153.232 24.8184 153.154 25.084 152.998C25.3496 152.842 25.582 152.635 25.7812 152.377L26.4434 152.893C25.9121 153.709 25.1152 154.117 24.0527 154.117ZM23.918 148.434C23.4805 148.434 23.1133 148.594 22.8164 148.914C22.5195 149.23 22.3359 149.676 22.2656 150.25H25.4414V150.168C25.4102 149.617 25.2617 149.191 24.9961 148.891C24.7305 148.586 24.3711 148.434 23.918 148.434Z" fill="black"/>
<path d="M43 301C207.651 235 339 183 339 183" stroke="#001421"/>
<path d="M173.197 323H172.072V314.469H173.197V323ZM176.115 316.66L176.15 317.457C176.635 316.848 177.268 316.543 178.049 316.543C179.389 316.543 180.064 317.299 180.076 318.811V323H178.992V318.805C178.988 318.348 178.883 318.01 178.676 317.791C178.473 317.572 178.154 317.463 177.721 317.463C177.369 317.463 177.061 317.557 176.795 317.744C176.529 317.932 176.322 318.178 176.174 318.482V323H175.09V316.66H176.115ZM187.066 319.9C187.066 320.865 186.846 321.643 186.404 322.232C185.963 322.822 185.365 323.117 184.611 323.117C183.842 323.117 183.236 322.873 182.795 322.385V325.438H181.711V316.66H182.701L182.754 317.363C183.195 316.816 183.809 316.543 184.594 316.543C185.355 316.543 185.957 316.83 186.398 317.404C186.844 317.979 187.066 318.777 187.066 319.801V319.9ZM185.982 319.777C185.982 319.062 185.83 318.498 185.525 318.084C185.221 317.67 184.803 317.463 184.271 317.463C183.615 317.463 183.123 317.754 182.795 318.336V321.365C183.119 321.943 183.615 322.232 184.283 322.232C184.803 322.232 185.215 322.027 185.52 321.617C185.828 321.203 185.982 320.59 185.982 319.777ZM192.363 322.373C191.941 322.869 191.322 323.117 190.506 323.117C189.83 323.117 189.314 322.922 188.959 322.531C188.607 322.137 188.43 321.555 188.426 320.785V316.66H189.51V320.756C189.51 321.717 189.9 322.197 190.682 322.197C191.51 322.197 192.061 321.889 192.334 321.271V316.66H193.418V323H192.387L192.363 322.373ZM196.541 315.125V316.66H197.725V317.498H196.541V321.43C196.541 321.684 196.594 321.875 196.699 322.004C196.805 322.129 196.984 322.191 197.238 322.191C197.363 322.191 197.535 322.168 197.754 322.121V323C197.469 323.078 197.191 323.117 196.922 323.117C196.438 323.117 196.072 322.971 195.826 322.678C195.58 322.385 195.457 321.969 195.457 321.43V317.498H194.303V316.66H195.457V315.125H196.541ZM204.656 319.197C203.691 318.92 202.988 318.58 202.547 318.178C202.109 317.771 201.891 317.271 201.891 316.678C201.891 316.006 202.158 315.451 202.693 315.014C203.232 314.572 203.932 314.352 204.791 314.352C205.377 314.352 205.898 314.465 206.355 314.691C206.816 314.918 207.172 315.23 207.422 315.629C207.676 316.027 207.803 316.463 207.803 316.936H206.672C206.672 316.42 206.508 316.016 206.18 315.723C205.852 315.426 205.389 315.277 204.791 315.277C204.236 315.277 203.803 315.4 203.49 315.646C203.182 315.889 203.027 316.227 203.027 316.66C203.027 317.008 203.174 317.303 203.467 317.545C203.764 317.783 204.266 318.002 204.973 318.201C205.684 318.4 206.238 318.621 206.637 318.863C207.039 319.102 207.336 319.381 207.527 319.701C207.723 320.021 207.82 320.398 207.82 320.832C207.82 321.523 207.551 322.078 207.012 322.496C206.473 322.91 205.752 323.117 204.85 323.117C204.264 323.117 203.717 323.006 203.209 322.783C202.701 322.557 202.309 322.248 202.031 321.857C201.758 321.467 201.621 321.023 201.621 320.527H202.752C202.752 321.043 202.941 321.451 203.32 321.752C203.703 322.049 204.213 322.197 204.85 322.197C205.443 322.197 205.898 322.076 206.215 321.834C206.531 321.592 206.689 321.262 206.689 320.844C206.689 320.426 206.543 320.104 206.25 319.877C205.957 319.646 205.426 319.42 204.656 319.197ZM210.275 323H209.191V316.66H210.275V323ZM209.104 314.979C209.104 314.803 209.156 314.654 209.262 314.533C209.371 314.412 209.531 314.352 209.742 314.352C209.953 314.352 210.113 314.412 210.223 314.533C210.332 314.654 210.387 314.803 210.387 314.979C210.387 315.154 210.332 315.301 210.223 315.418C210.113 315.535 209.953 315.594 209.742 315.594C209.531 315.594 209.371 315.535 209.262 315.418C209.156 315.301 209.104 315.154 209.104 314.979ZM213.035 322.115H216.744V323H211.711V322.203L215.209 317.557H211.764V316.66H216.568V317.428L213.035 322.115ZM220.506 323.117C219.646 323.117 218.947 322.836 218.408 322.273C217.869 321.707 217.6 320.951 217.6 320.006V319.807C217.6 319.178 217.719 318.617 217.957 318.125C218.199 317.629 218.535 317.242 218.965 316.965C219.398 316.684 219.867 316.543 220.371 316.543C221.195 316.543 221.836 316.814 222.293 317.357C222.75 317.9 222.979 318.678 222.979 319.689V320.141H218.684C218.699 320.766 218.881 321.271 219.229 321.658C219.58 322.041 220.025 322.232 220.564 322.232C220.947 322.232 221.271 322.154 221.537 321.998C221.803 321.842 222.035 321.635 222.234 321.377L222.896 321.893C222.365 322.709 221.568 323.117 220.506 323.117ZM220.371 317.434C219.934 317.434 219.566 317.594 219.27 317.914C218.973 318.23 218.789 318.676 218.719 319.25H221.895V319.168C221.863 318.617 221.715 318.191 221.449 317.891C221.184 317.586 220.824 317.434 220.371 317.434Z" fill="black"/>
<path d="M304.054 180.137C303.42 180.123 302.869 179.97 302.399 179.679C301.935 179.387 301.568 178.959 301.299 178.394C301.03 177.824 300.882 177.186 300.854 176.479C300.827 175.928 300.889 175.247 301.039 174.436C301.189 173.624 301.449 172.893 301.818 172.241C302.188 171.59 302.636 171.068 303.165 170.676C303.881 170.147 304.696 169.892 305.612 169.91C306.583 169.928 307.349 170.266 307.909 170.922C308.47 171.574 308.771 172.458 308.812 173.574C308.83 174.053 308.78 174.661 308.661 175.399C308.547 176.138 308.34 176.824 308.039 177.457C307.743 178.09 307.365 178.621 306.904 179.05C306.102 179.797 305.152 180.16 304.054 180.137ZM307.547 173.889C307.574 172.991 307.417 172.296 307.075 171.804C306.733 171.307 306.225 171.049 305.551 171.031C304.94 171.013 304.393 171.177 303.91 171.523C303.432 171.87 303.037 172.389 302.728 173.082C302.422 173.77 302.229 174.643 302.146 175.7L302.126 176.145C302.099 177.038 302.258 177.737 302.604 178.243C302.951 178.749 303.454 179.011 304.115 179.029C304.977 179.052 305.69 178.742 306.255 178.1C306.825 177.452 307.203 176.546 307.39 175.379C307.481 174.805 307.533 174.308 307.547 173.889ZM310.315 175.987C310.466 174.935 310.744 173.909 311.149 172.911C311.56 171.913 312.061 171.063 312.653 170.361C313.246 169.655 313.907 169.122 314.636 168.762L314.82 169.609C314.105 170.143 313.49 170.84 312.975 171.701C312.464 172.558 312.07 173.579 311.792 174.764C311.514 175.944 311.38 177.108 311.389 178.257C311.389 179.2 311.509 180.03 311.751 180.745C311.997 181.465 312.35 182.033 312.811 182.447L312.503 183.213C311.742 182.684 311.159 181.903 310.753 180.868C310.352 179.834 310.17 178.649 310.206 177.313C310.215 176.876 310.247 176.459 310.302 176.062L310.315 175.987ZM316.789 172.597L316.611 173.533C317.277 172.804 318.033 172.449 318.881 172.467C319.578 172.485 320.093 172.727 320.426 173.191C320.758 173.656 320.882 174.31 320.795 175.153L319.988 180H318.751L319.564 175.133C319.592 174.91 319.594 174.702 319.571 174.511C319.494 173.873 319.118 173.547 318.443 173.533C317.701 173.52 317.049 173.916 316.488 174.723L315.572 180H314.335L315.62 172.604L316.789 172.597ZM325.423 176.001C325.263 177.113 324.974 178.166 324.555 179.159C324.135 180.148 323.632 180.982 323.044 181.661C322.461 182.345 321.813 182.864 321.103 183.22L320.911 182.434C322.474 181.258 323.518 179.369 324.042 176.767C324.252 175.718 324.352 174.709 324.343 173.738C324.32 171.783 323.846 170.382 322.921 169.534L323.242 168.769C323.753 169.124 324.183 169.598 324.534 170.19C324.89 170.778 325.149 171.464 325.313 172.248C325.482 173.027 325.557 173.836 325.539 174.675C325.525 175.117 325.491 175.534 325.437 175.926L325.423 176.001Z" fill="black"/>
</svg>
