<svg width="971" height="204" viewBox="0 0 971 204" fill="none" xmlns="http://www.w3.org/2000/svg">
<rect x="1" y="79" width="270" height="124" rx="9" stroke="#001421" stroke-width="2"/>
<line x1="137" y1="78" x2="137" y2="204" stroke="#001421" stroke-width="2"/>
<path d="M72.6338 147H71.21V137.842C71.21 137.08 71.2334 136.359 71.2803 135.68C71.1572 135.803 71.0195 135.932 70.8672 136.066C70.7148 136.201 70.0176 136.772 68.7754 137.78L68.002 136.778L71.4033 134.15H72.6338V147Z" fill="#001421"/>
<path d="M193.804 147H192.099L185.076 136.216H185.006C185.1 137.481 185.146 138.642 185.146 139.696V147H183.767V134.15H185.454L192.459 144.891H192.529C192.518 144.732 192.491 144.226 192.45 143.37C192.409 142.509 192.395 141.894 192.406 141.524V134.15H193.804V147ZM201.187 147.176C199.763 147.176 198.638 146.742 197.812 145.875C196.991 145.008 196.581 143.804 196.581 142.263C196.581 140.71 196.962 139.477 197.724 138.562C198.491 137.648 199.52 137.191 200.809 137.191C202.016 137.191 202.971 137.59 203.674 138.387C204.377 139.178 204.729 140.224 204.729 141.524V142.447H198.093C198.122 143.578 198.406 144.437 198.945 145.022C199.49 145.608 200.255 145.901 201.239 145.901C202.276 145.901 203.302 145.685 204.315 145.251V146.552C203.8 146.774 203.311 146.933 202.848 147.026C202.391 147.126 201.837 147.176 201.187 147.176ZM200.791 138.413C200.018 138.413 199.399 138.665 198.937 139.169C198.479 139.673 198.21 140.37 198.128 141.261H203.164C203.164 140.341 202.959 139.638 202.549 139.151C202.139 138.659 201.553 138.413 200.791 138.413ZM209.545 142.069L206.196 137.367H207.857L210.397 141.059L212.929 137.367H214.572L211.224 142.069L214.748 147H213.096L210.397 143.098L207.673 147H206.021L209.545 142.069ZM219.775 145.972C220.033 145.972 220.282 145.954 220.522 145.919C220.763 145.878 220.953 145.837 221.094 145.796V146.912C220.936 146.988 220.701 147.05 220.391 147.097C220.086 147.149 219.811 147.176 219.564 147.176C217.701 147.176 216.77 146.194 216.77 144.231V138.501H215.39V137.798L216.77 137.191L217.385 135.135H218.229V137.367H221.023V138.501H218.229V144.17C218.229 144.75 218.366 145.195 218.642 145.506C218.917 145.816 219.295 145.972 219.775 145.972Z" fill="#001421"/>
<rect x="350" y="79" width="270" height="124" rx="9" stroke="#001421" stroke-width="2"/>
<line x1="486" y1="78" x2="486" y2="204" stroke="#001421" stroke-width="2"/>
<path d="M424.675 147H416.229V145.743L419.612 142.342C420.644 141.299 421.323 140.555 421.651 140.109C421.979 139.664 422.226 139.23 422.39 138.809C422.554 138.387 422.636 137.933 422.636 137.446C422.636 136.761 422.428 136.219 422.012 135.82C421.596 135.416 421.019 135.214 420.28 135.214C419.747 135.214 419.24 135.302 418.76 135.478C418.285 135.653 417.755 135.973 417.169 136.436L416.396 135.442C417.579 134.458 418.868 133.966 420.263 133.966C421.47 133.966 422.416 134.276 423.102 134.897C423.787 135.513 424.13 136.342 424.13 137.385C424.13 138.199 423.901 139.005 423.444 139.802C422.987 140.599 422.132 141.606 420.878 142.825L418.065 145.576V145.646H424.675V147Z" fill="#001421"/>
<path d="M542.804 147H541.099L534.076 136.216H534.006C534.1 137.481 534.146 138.642 534.146 139.696V147H532.767V134.15H534.454L541.459 144.891H541.529C541.518 144.732 541.491 144.226 541.45 143.37C541.409 142.509 541.395 141.894 541.406 141.524V134.15H542.804V147ZM550.187 147.176C548.763 147.176 547.638 146.742 546.812 145.875C545.991 145.008 545.581 143.804 545.581 142.263C545.581 140.71 545.962 139.477 546.724 138.562C547.491 137.648 548.52 137.191 549.809 137.191C551.016 137.191 551.971 137.59 552.674 138.387C553.377 139.178 553.729 140.224 553.729 141.524V142.447H547.093C547.122 143.578 547.406 144.437 547.945 145.022C548.49 145.608 549.255 145.901 550.239 145.901C551.276 145.901 552.302 145.685 553.315 145.251V146.552C552.8 146.774 552.311 146.933 551.848 147.026C551.391 147.126 550.837 147.176 550.187 147.176ZM549.791 138.413C549.018 138.413 548.399 138.665 547.937 139.169C547.479 139.673 547.21 140.37 547.128 141.261H552.164C552.164 140.341 551.959 139.638 551.549 139.151C551.139 138.659 550.553 138.413 549.791 138.413ZM558.545 142.069L555.196 137.367H556.857L559.397 141.059L561.929 137.367H563.572L560.224 142.069L563.748 147H562.096L559.397 143.098L556.673 147H555.021L558.545 142.069ZM568.775 145.972C569.033 145.972 569.282 145.954 569.522 145.919C569.763 145.878 569.953 145.837 570.094 145.796V146.912C569.936 146.988 569.701 147.05 569.391 147.097C569.086 147.149 568.811 147.176 568.564 147.176C566.701 147.176 565.77 146.194 565.77 144.231V138.501H564.39V137.798L565.77 137.191L566.385 135.135H567.229V137.367H570.023V138.501H567.229V144.17C567.229 144.75 567.366 145.195 567.642 145.506C567.917 145.816 568.295 145.972 568.775 145.972Z" fill="#001421"/>
<circle cx="255.5" cy="141.5" r="6.5" fill="#001421"/>
<path d="M349.707 142.707C350.098 142.317 350.098 141.683 349.707 141.293L343.343 134.929C342.953 134.538 342.319 134.538 341.929 134.929C341.538 135.319 341.538 135.953 341.929 136.343L347.586 142L341.929 147.657C341.538 148.047 341.538 148.681 341.929 149.071C342.319 149.462 342.953 149.462 343.343 149.071L349.707 142.707ZM256 143H349V141H256V143Z" fill="#001421"/>
<rect x="700" y="79" width="270" height="124" rx="9" stroke="#001421" stroke-width="2"/>
<line x1="836" y1="78" x2="836" y2="204" stroke="#001421" stroke-width="2"/>
<path d="M774.191 137.174C774.191 137.994 773.96 138.665 773.497 139.187C773.04 139.708 772.39 140.057 771.546 140.232V140.303C772.577 140.432 773.342 140.76 773.84 141.287C774.338 141.814 774.587 142.506 774.587 143.361C774.587 144.586 774.162 145.529 773.312 146.191C772.463 146.848 771.256 147.176 769.691 147.176C769.012 147.176 768.388 147.123 767.819 147.018C767.257 146.918 766.709 146.739 766.176 146.481V145.093C766.732 145.368 767.324 145.579 767.951 145.726C768.584 145.866 769.182 145.937 769.744 145.937C771.965 145.937 773.075 145.066 773.075 143.326C773.075 141.768 771.851 140.988 769.401 140.988H768.136V139.731H769.419C770.421 139.731 771.215 139.512 771.801 139.072C772.387 138.627 772.68 138.012 772.68 137.227C772.68 136.6 772.463 136.107 772.029 135.75C771.602 135.393 771.019 135.214 770.28 135.214C769.718 135.214 769.188 135.29 768.689 135.442C768.191 135.595 767.623 135.876 766.984 136.286L766.246 135.302C766.773 134.886 767.38 134.561 768.065 134.326C768.757 134.086 769.483 133.966 770.245 133.966C771.493 133.966 772.463 134.253 773.154 134.827C773.846 135.396 774.191 136.178 774.191 137.174Z" fill="#001421"/>
<path d="M897.479 147H895.774L888.752 136.216H888.682C888.775 137.481 888.822 138.642 888.822 139.696V147H887.442V134.15H889.13L896.135 144.891H896.205C896.193 144.732 896.167 144.226 896.126 143.37C896.085 142.509 896.07 141.894 896.082 141.524V134.15H897.479V147ZM902.164 137.367V143.616C902.164 144.401 902.343 144.987 902.7 145.374C903.058 145.761 903.617 145.954 904.379 145.954C905.387 145.954 906.122 145.679 906.585 145.128C907.054 144.577 907.288 143.678 907.288 142.43V137.367H908.747V147H907.543L907.332 145.708H907.253C906.954 146.183 906.538 146.546 906.005 146.798C905.478 147.05 904.874 147.176 904.194 147.176C903.022 147.176 902.144 146.897 901.558 146.341C900.978 145.784 900.688 144.894 900.688 143.669V137.367H902.164ZM913.309 147H911.85V133.324H913.309V147ZM917.861 147H916.402V133.324H917.861V147Z" fill="#001421"/>
<circle cx="605.5" cy="141.5" r="6.5" fill="#001421"/>
<path d="M699.707 142.707C700.098 142.317 700.098 141.683 699.707 141.293L693.343 134.929C692.953 134.538 692.319 134.538 691.929 134.929C691.538 135.319 691.538 135.953 691.929 136.343L697.586 142L691.929 147.657C691.538 148.047 691.538 148.681 691.929 149.071C692.319 149.462 692.953 149.462 693.343 149.071L699.707 142.707ZM606 143H699V141H606V143Z" fill="#001421"/>
<path d="M125.795 19H124.301V12.9531H117.533V19H116.039V6.15039H117.533V11.6172H124.301V6.15039H125.795V19ZM133.178 19.1758C131.754 19.1758 130.629 18.7422 129.803 17.875C128.982 17.0078 128.572 15.8037 128.572 14.2627C128.572 12.71 128.953 11.4766 129.715 10.5625C130.482 9.64844 131.511 9.19141 132.8 9.19141C134.007 9.19141 134.962 9.58984 135.665 10.3867C136.368 11.1777 136.72 12.2236 136.72 13.5244V14.4473H130.084C130.113 15.5781 130.397 16.4365 130.937 17.0225C131.481 17.6084 132.246 17.9014 133.23 17.9014C134.268 17.9014 135.293 17.6846 136.307 17.251V18.5518C135.791 18.7744 135.302 18.9326 134.839 19.0264C134.382 19.126 133.828 19.1758 133.178 19.1758ZM132.782 10.4131C132.009 10.4131 131.391 10.665 130.928 11.1689C130.471 11.6729 130.201 12.3701 130.119 13.2607H135.155C135.155 12.3408 134.95 11.6377 134.54 11.1514C134.13 10.6592 133.544 10.4131 132.782 10.4131ZM145.14 19L144.85 17.6289H144.779C144.299 18.2324 143.818 18.6426 143.338 18.8594C142.863 19.0703 142.269 19.1758 141.554 19.1758C140.599 19.1758 139.849 18.9297 139.304 18.4375C138.765 17.9453 138.495 17.2451 138.495 16.3369C138.495 14.3916 140.051 13.3721 143.162 13.2783L144.797 13.2256V12.6279C144.797 11.8721 144.633 11.3154 144.305 10.958C143.982 10.5947 143.464 10.4131 142.749 10.4131C141.946 10.4131 141.038 10.6592 140.024 11.1514L139.576 10.0352C140.051 9.77734 140.569 9.5752 141.132 9.42871C141.7 9.28223 142.269 9.20898 142.837 9.20898C143.985 9.20898 144.835 9.46387 145.386 9.97363C145.942 10.4834 146.221 11.3008 146.221 12.4258V19H145.14ZM141.844 17.9717C142.752 17.9717 143.464 17.7227 143.979 17.2246C144.501 16.7266 144.762 16.0293 144.762 15.1328V14.2627L143.303 14.3242C142.143 14.3652 141.305 14.5469 140.789 14.8691C140.279 15.1855 140.024 15.6807 140.024 16.3545C140.024 16.8818 140.183 17.2832 140.499 17.5586C140.821 17.834 141.27 17.9717 141.844 17.9717ZM155.792 17.708H155.713C155.039 18.6865 154.031 19.1758 152.689 19.1758C151.43 19.1758 150.448 18.7451 149.745 17.8838C149.048 17.0225 148.699 15.7979 148.699 14.21C148.699 12.6221 149.051 11.3887 149.754 10.5098C150.457 9.63086 151.436 9.19141 152.689 9.19141C153.996 9.19141 154.998 9.66602 155.695 10.6152H155.81L155.748 9.9209L155.713 9.24414V5.32422H157.172V19H155.985L155.792 17.708ZM152.874 17.9541C153.87 17.9541 154.591 17.6846 155.036 17.1455C155.487 16.6006 155.713 15.7246 155.713 14.5176V14.21C155.713 12.8447 155.484 11.8721 155.027 11.292C154.576 10.7061 153.853 10.4131 152.856 10.4131C152.001 10.4131 151.345 10.7471 150.888 11.415C150.437 12.0771 150.211 13.0146 150.211 14.2275C150.211 15.458 150.437 16.3867 150.888 17.0137C151.339 17.6406 152.001 17.9541 152.874 17.9541Z" fill="#001421"/>
<path d="M134.646 73.3536C134.842 73.5488 135.158 73.5488 135.354 73.3536L138.536 70.1716C138.731 69.9763 138.731 69.6597 138.536 69.4645C138.34 69.2692 138.024 69.2692 137.828 69.4645L135 72.2929L132.172 69.4645C131.976 69.2692 131.66 69.2692 131.464 69.4645C131.269 69.6597 131.269 69.9763 131.464 70.1716L134.646 73.3536ZM134.5 26L134.5 27.4687L135.5 27.4688L135.5 26L134.5 26ZM134.5 30.4062L134.5 33.3437L135.5 33.3438L135.5 30.4063L134.5 30.4062ZM134.5 36.2812L134.5 39.2187L135.5 39.2188L135.5 36.2813L134.5 36.2812ZM134.5 42.1562L134.5 45.0937L135.5 45.0938L135.5 42.1563L134.5 42.1562ZM134.5 48.0312L134.5 50.9687L135.5 50.9688L135.5 48.0313L134.5 48.0312ZM134.5 53.9062L134.5 56.8437L135.5 56.8438L135.5 53.9063L134.5 53.9062ZM134.5 59.7812L134.5 62.7187L135.5 62.7188L135.5 59.7813L134.5 59.7812ZM134.5 65.6562L134.5 68.5937L135.5 68.5938L135.5 65.6563L134.5 65.6562ZM134.5 71.5312L134.5 73L135.5 73L135.5 71.5313L134.5 71.5312ZM134.293 73.7071C134.683 74.0976 135.317 74.0976 135.707 73.7071L142.071 67.3431C142.462 66.9526 142.462 66.3195 142.071 65.9289C141.681 65.5384 141.047 65.5384 140.657 65.9289L135 71.5858L129.343 65.9289C128.953 65.5384 128.319 65.5384 127.929 65.9289C127.538 66.3195 127.538 66.9526 127.929 67.3431L134.293 73.7071ZM134 26L134 27.4687L136 27.4688L136 26L134 26ZM134 30.4062L134 33.3437L136 33.3438L136 30.4063L134 30.4062ZM134 36.2812L134 39.2187L136 39.2188L136 36.2813L134 36.2812ZM134 42.1562L134 45.0937L136 45.0938L136 42.1563L134 42.1562ZM134 48.0312L134 50.9687L136 50.9688L136 48.0313L134 48.0312ZM134 53.9062L134 56.8437L136 56.8438L136 53.9063L134 53.9062ZM134 59.7812L134 62.7187L136 62.7188L136 59.7813L134 59.7812ZM134 65.6562L134 68.5937L136 68.5938L136 65.6563L134 65.6562ZM134 71.5312L134 73L136 73L136 71.5313L134 71.5312Z" fill="#001421"/>
<path d="M826.176 19H824.682V7.47754H820.612V6.15039H830.245V7.47754H826.176V19ZM837.892 19L837.602 17.6289H837.531C837.051 18.2324 836.57 18.6426 836.09 18.8594C835.615 19.0703 835.021 19.1758 834.306 19.1758C833.351 19.1758 832.601 18.9297 832.056 18.4375C831.517 17.9453 831.247 17.2451 831.247 16.3369C831.247 14.3916 832.803 13.3721 835.914 13.2783L837.549 13.2256V12.6279C837.549 11.8721 837.385 11.3154 837.057 10.958C836.734 10.5947 836.216 10.4131 835.501 10.4131C834.698 10.4131 833.79 10.6592 832.776 11.1514L832.328 10.0352C832.803 9.77734 833.321 9.5752 833.884 9.42871C834.452 9.28223 835.021 9.20898 835.589 9.20898C836.737 9.20898 837.587 9.46387 838.138 9.97363C838.694 10.4834 838.973 11.3008 838.973 12.4258V19H837.892ZM834.596 17.9717C835.504 17.9717 836.216 17.7227 836.731 17.2246C837.253 16.7266 837.514 16.0293 837.514 15.1328V14.2627L836.055 14.3242C834.895 14.3652 834.057 14.5469 833.541 14.8691C833.031 15.1855 832.776 15.6807 832.776 16.3545C832.776 16.8818 832.935 17.2832 833.251 17.5586C833.573 17.834 834.021 17.9717 834.596 17.9717ZM843.446 19H841.987V9.36719H843.446V19ZM841.864 6.75684C841.864 6.42285 841.946 6.17969 842.11 6.02734C842.274 5.86914 842.479 5.79004 842.726 5.79004C842.96 5.79004 843.162 5.86914 843.332 6.02734C843.502 6.18555 843.587 6.42871 843.587 6.75684C843.587 7.08496 843.502 7.33105 843.332 7.49512C843.162 7.65332 842.96 7.73242 842.726 7.73242C842.479 7.73242 842.274 7.65332 842.11 7.49512C841.946 7.33105 841.864 7.08496 841.864 6.75684ZM847.999 19H846.54V5.32422H847.999V19Z" fill="#001421"/>
<path d="M834.646 73.3536C834.842 73.5488 835.158 73.5488 835.354 73.3536L838.536 70.1716C838.731 69.9763 838.731 69.6597 838.536 69.4645C838.34 69.2692 838.024 69.2692 837.828 69.4645L835 72.2929L832.172 69.4645C831.976 69.2692 831.66 69.2692 831.464 69.4645C831.269 69.6597 831.269 69.9763 831.464 70.1716L834.646 73.3536ZM834.5 26L834.5 27.4687L835.5 27.4688L835.5 26L834.5 26ZM834.5 30.4062L834.5 33.3437L835.5 33.3438L835.5 30.4063L834.5 30.4062ZM834.5 36.2812L834.5 39.2187L835.5 39.2188L835.5 36.2813L834.5 36.2812ZM834.5 42.1562L834.5 45.0937L835.5 45.0938L835.5 42.1563L834.5 42.1562ZM834.5 48.0312L834.5 50.9687L835.5 50.9688L835.5 48.0313L834.5 48.0312ZM834.5 53.9062L834.5 56.8437L835.5 56.8438L835.5 53.9063L834.5 53.9062ZM834.5 59.7812L834.5 62.7187L835.5 62.7188L835.5 59.7813L834.5 59.7812ZM834.5 65.6562L834.5 68.5937L835.5 68.5938L835.5 65.6563L834.5 65.6562ZM834.5 71.5312L834.5 73L835.5 73L835.5 71.5313L834.5 71.5312ZM834.293 73.7071C834.683 74.0976 835.317 74.0976 835.707 73.7071L842.071 67.3431C842.462 66.9526 842.462 66.3195 842.071 65.9289C841.681 65.5384 841.047 65.5384 840.657 65.9289L835 71.5858L829.343 65.9289C828.953 65.5384 828.319 65.5384 827.929 65.9289C827.538 66.3195 827.538 66.9526 827.929 67.3431L834.293 73.7071ZM834 26L834 27.4687L836 27.4688L836 26L834 26ZM834 30.4062L834 33.3437L836 33.3438L836 30.4063L834 30.4062ZM834 36.2812L834 39.2187L836 39.2188L836 36.2813L834 36.2812ZM834 42.1562L834 45.0937L836 45.0938L836 42.1563L834 42.1562ZM834 48.0312L834 50.9687L836 50.9688L836 48.0313L834 48.0312ZM834 53.9062L834 56.8437L836 56.8438L836 53.9063L834 53.9062ZM834 59.7812L834 62.7187L836 62.7188L836 59.7813L834 59.7812ZM834 65.6562L834 68.5937L836 68.5938L836 65.6563L834 65.6562ZM834 71.5312L834 73L836 73L836 71.5313L834 71.5312Z" fill="#001421"/>
</svg>
