<svg width="342" height="326" viewBox="0 0 342 326" fill="none" xmlns="http://www.w3.org/2000/svg">
<line x1="43" y1="-4.37114e-08" x2="43" y2="300" stroke="#001421" stroke-width="2"/>
<line x1="342" y1="301" x2="42" y2="301" stroke="#001421" stroke-width="2"/>
<line x1="342" y1="269" x2="42" y2="269" stroke="#001421" stroke-width="2"/>
<path d="M6.88477 146.395H4.14258V154H3.02344V146.395H0.287109V145.469H6.88477V146.395ZM9.1582 154H8.07422V147.66H9.1582V154ZM7.98633 145.979C7.98633 145.803 8.03906 145.654 8.14453 145.533C8.25391 145.412 8.41406 145.352 8.625 145.352C8.83594 145.352 8.99609 145.412 9.10547 145.533C9.21484 145.654 9.26953 145.803 9.26953 145.979C9.26953 146.154 9.21484 146.301 9.10547 146.418C8.99609 146.535 8.83594 146.594 8.625 146.594C8.41406 146.594 8.25391 146.535 8.14453 146.418C8.03906 146.301 7.98633 146.154 7.98633 145.979ZM11.918 147.66L11.9473 148.363C12.4121 147.816 13.0391 147.543 13.8281 147.543C14.7148 147.543 15.3184 147.883 15.6387 148.562C15.8496 148.258 16.123 148.012 16.459 147.824C16.7988 147.637 17.1992 147.543 17.6602 147.543C19.0508 147.543 19.7578 148.279 19.7812 149.752V154H18.6973V149.816C18.6973 149.363 18.5938 149.025 18.3867 148.803C18.1797 148.576 17.832 148.463 17.3438 148.463C16.9414 148.463 16.6074 148.584 16.3418 148.826C16.0762 149.064 15.9219 149.387 15.8789 149.793V154H14.7891V149.846C14.7891 148.924 14.3379 148.463 13.4355 148.463C12.7246 148.463 12.2383 148.766 11.9766 149.371V154H10.8926V147.66H11.918ZM24.0527 154.117C23.1934 154.117 22.4941 153.836 21.9551 153.273C21.416 152.707 21.1465 151.951 21.1465 151.006V150.807C21.1465 150.178 21.2656 149.617 21.5039 149.125C21.7461 148.629 22.082 148.242 22.5117 147.965C22.9453 147.684 23.4141 147.543 23.918 147.543C24.7422 147.543 25.3828 147.814 25.8398 148.357C26.2969 148.9 26.5254 149.678 26.5254 150.689V151.141H22.2305C22.2461 151.766 22.4277 152.271 22.7754 152.658C23.127 153.041 23.5723 153.232 24.1113 153.232C24.4941 153.232 24.8184 153.154 25.084 152.998C25.3496 152.842 25.582 152.635 25.7812 152.377L26.4434 152.893C25.9121 153.709 25.1152 154.117 24.0527 154.117ZM23.918 148.434C23.4805 148.434 23.1133 148.594 22.8164 148.914C22.5195 149.23 22.3359 149.676 22.2656 150.25H25.4414V150.168C25.4102 149.617 25.2617 149.191 24.9961 148.891C24.7305 148.586 24.3711 148.434 23.918 148.434Z" fill="black"/>
<path d="M168.197 323H167.072V314.469H168.197V323ZM171.115 316.66L171.15 317.457C171.635 316.848 172.268 316.543 173.049 316.543C174.389 316.543 175.064 317.299 175.076 318.811V323H173.992V318.805C173.988 318.348 173.883 318.01 173.676 317.791C173.473 317.572 173.154 317.463 172.721 317.463C172.369 317.463 172.061 317.557 171.795 317.744C171.529 317.932 171.322 318.178 171.174 318.482V323H170.09V316.66H171.115ZM182.066 319.9C182.066 320.865 181.846 321.643 181.404 322.232C180.963 322.822 180.365 323.117 179.611 323.117C178.842 323.117 178.236 322.873 177.795 322.385V325.438H176.711V316.66H177.701L177.754 317.363C178.195 316.816 178.809 316.543 179.594 316.543C180.355 316.543 180.957 316.83 181.398 317.404C181.844 317.979 182.066 318.777 182.066 319.801V319.9ZM180.982 319.777C180.982 319.062 180.83 318.498 180.525 318.084C180.221 317.67 179.803 317.463 179.271 317.463C178.615 317.463 178.123 317.754 177.795 318.336V321.365C178.119 321.943 178.615 322.232 179.283 322.232C179.803 322.232 180.215 322.027 180.52 321.617C180.828 321.203 180.982 320.59 180.982 319.777ZM187.363 322.373C186.941 322.869 186.322 323.117 185.506 323.117C184.83 323.117 184.314 322.922 183.959 322.531C183.607 322.137 183.43 321.555 183.426 320.785V316.66H184.51V320.756C184.51 321.717 184.9 322.197 185.682 322.197C186.51 322.197 187.061 321.889 187.334 321.271V316.66H188.418V323H187.387L187.363 322.373ZM191.541 315.125V316.66H192.725V317.498H191.541V321.43C191.541 321.684 191.594 321.875 191.699 322.004C191.805 322.129 191.984 322.191 192.238 322.191C192.363 322.191 192.535 322.168 192.754 322.121V323C192.469 323.078 192.191 323.117 191.922 323.117C191.438 323.117 191.072 322.971 190.826 322.678C190.58 322.385 190.457 321.969 190.457 321.43V317.498H189.303V316.66H190.457V315.125H191.541ZM199.656 319.197C198.691 318.92 197.988 318.58 197.547 318.178C197.109 317.771 196.891 317.271 196.891 316.678C196.891 316.006 197.158 315.451 197.693 315.014C198.232 314.572 198.932 314.352 199.791 314.352C200.377 314.352 200.898 314.465 201.355 314.691C201.816 314.918 202.172 315.23 202.422 315.629C202.676 316.027 202.803 316.463 202.803 316.936H201.672C201.672 316.42 201.508 316.016 201.18 315.723C200.852 315.426 200.389 315.277 199.791 315.277C199.236 315.277 198.803 315.4 198.49 315.646C198.182 315.889 198.027 316.227 198.027 316.66C198.027 317.008 198.174 317.303 198.467 317.545C198.764 317.783 199.266 318.002 199.973 318.201C200.684 318.4 201.238 318.621 201.637 318.863C202.039 319.102 202.336 319.381 202.527 319.701C202.723 320.021 202.82 320.398 202.82 320.832C202.82 321.523 202.551 322.078 202.012 322.496C201.473 322.91 200.752 323.117 199.85 323.117C199.264 323.117 198.717 323.006 198.209 322.783C197.701 322.557 197.309 322.248 197.031 321.857C196.758 321.467 196.621 321.023 196.621 320.527H197.752C197.752 321.043 197.941 321.451 198.32 321.752C198.703 322.049 199.213 322.197 199.85 322.197C200.443 322.197 200.898 322.076 201.215 321.834C201.531 321.592 201.689 321.262 201.689 320.844C201.689 320.426 201.543 320.104 201.25 319.877C200.957 319.646 200.426 319.42 199.656 319.197ZM205.275 323H204.191V316.66H205.275V323ZM204.104 314.979C204.104 314.803 204.156 314.654 204.262 314.533C204.371 314.412 204.531 314.352 204.742 314.352C204.953 314.352 205.113 314.412 205.223 314.533C205.332 314.654 205.387 314.803 205.387 314.979C205.387 315.154 205.332 315.301 205.223 315.418C205.113 315.535 204.953 315.594 204.742 315.594C204.531 315.594 204.371 315.535 204.262 315.418C204.156 315.301 204.104 315.154 204.104 314.979ZM208.035 322.115H211.744V323H206.711V322.203L210.209 317.557H206.764V316.66H211.568V317.428L208.035 322.115ZM215.506 323.117C214.646 323.117 213.947 322.836 213.408 322.273C212.869 321.707 212.6 320.951 212.6 320.006V319.807C212.6 319.178 212.719 318.617 212.957 318.125C213.199 317.629 213.535 317.242 213.965 316.965C214.398 316.684 214.867 316.543 215.371 316.543C216.195 316.543 216.836 316.814 217.293 317.357C217.75 317.9 217.979 318.678 217.979 319.689V320.141H213.684C213.699 320.766 213.881 321.271 214.229 321.658C214.58 322.041 215.025 322.232 215.564 322.232C215.947 322.232 216.271 322.154 216.537 321.998C216.803 321.842 217.035 321.635 217.234 321.377L217.896 321.893C217.365 322.709 216.568 323.117 215.506 323.117ZM215.371 317.434C214.934 317.434 214.566 317.594 214.27 317.914C213.973 318.23 213.789 318.676 213.719 319.25H216.895V319.168C216.863 318.617 216.715 318.191 216.449 317.891C216.184 317.586 215.824 317.434 215.371 317.434Z" fill="black"/>
<path d="M302.054 255.137C301.42 255.123 300.869 254.97 300.399 254.679C299.935 254.387 299.568 253.959 299.299 253.394C299.03 252.824 298.882 252.186 298.854 251.479C298.827 250.928 298.889 250.247 299.039 249.436C299.189 248.624 299.449 247.893 299.818 247.241C300.188 246.59 300.636 246.068 301.165 245.676C301.881 245.147 302.696 244.892 303.612 244.91C304.583 244.928 305.349 245.266 305.909 245.922C306.47 246.574 306.771 247.458 306.812 248.574C306.83 249.053 306.78 249.661 306.661 250.399C306.547 251.138 306.34 251.824 306.039 252.457C305.743 253.09 305.365 253.621 304.904 254.05C304.102 254.797 303.152 255.16 302.054 255.137ZM305.547 248.889C305.574 247.991 305.417 247.296 305.075 246.804C304.733 246.307 304.225 246.049 303.551 246.031C302.94 246.013 302.393 246.177 301.91 246.523C301.432 246.87 301.037 247.389 300.728 248.082C300.422 248.77 300.229 249.643 300.146 250.7L300.126 251.145C300.099 252.038 300.258 252.737 300.604 253.243C300.951 253.749 301.454 254.011 302.115 254.029C302.977 254.052 303.69 253.742 304.255 253.1C304.825 252.452 305.203 251.546 305.39 250.379C305.481 249.805 305.533 249.308 305.547 248.889ZM308.315 250.987C308.466 249.935 308.744 248.909 309.149 247.911C309.56 246.913 310.061 246.063 310.653 245.361C311.246 244.655 311.907 244.122 312.636 243.762L312.82 244.609C312.105 245.143 311.49 245.84 310.975 246.701C310.464 247.558 310.07 248.579 309.792 249.764C309.514 250.944 309.38 252.108 309.389 253.257C309.389 254.2 309.509 255.03 309.751 255.745C309.997 256.465 310.35 257.033 310.811 257.447L310.503 258.213C309.742 257.684 309.159 256.903 308.753 255.868C308.352 254.834 308.17 253.649 308.206 252.313C308.215 251.876 308.247 251.459 308.302 251.062L308.315 250.987ZM316.252 255H315.008L316.471 246.605L313.825 247.535L314.037 246.332L317.729 244.999H317.947L316.252 255ZM323.56 251.001C323.4 252.113 323.111 253.166 322.691 254.159C322.272 255.148 321.769 255.982 321.181 256.661C320.597 257.345 319.95 257.864 319.239 258.22L319.048 257.434C320.611 256.258 321.655 254.369 322.179 251.767C322.388 250.718 322.489 249.709 322.479 248.738C322.457 246.783 321.983 245.382 321.058 244.534L321.379 243.769C321.889 244.124 322.32 244.598 322.671 245.19C323.026 245.778 323.286 246.464 323.45 247.248C323.619 248.027 323.694 248.836 323.676 249.675C323.662 250.117 323.628 250.534 323.573 250.926L323.56 251.001Z" fill="black"/>
</svg>
