<svg width="1322" height="308" viewBox="0 0 1322 308" fill="none" xmlns="http://www.w3.org/2000/svg">
<rect x="1" y="79" width="270" height="124" rx="9" stroke="#001421" stroke-width="2"/>
<line x1="137" y1="78" x2="137" y2="204" stroke="#001421" stroke-width="2"/>
<path d="M72.6338 147H71.21V137.842C71.21 137.08 71.2334 136.359 71.2803 135.68C71.1572 135.803 71.0195 135.932 70.8672 136.066C70.7148 136.201 70.0176 136.772 68.7754 137.78L68.002 136.778L71.4033 134.15H72.6338V147Z" fill="#001421"/>
<path d="M193.804 147H192.099L185.076 136.216H185.006C185.1 137.481 185.146 138.642 185.146 139.696V147H183.767V134.15H185.454L192.459 144.891H192.529C192.518 144.732 192.491 144.226 192.45 143.37C192.409 142.509 192.395 141.894 192.406 141.524V134.15H193.804V147ZM201.187 147.176C199.763 147.176 198.638 146.742 197.812 145.875C196.991 145.008 196.581 143.804 196.581 142.263C196.581 140.71 196.962 139.477 197.724 138.562C198.491 137.648 199.52 137.191 200.809 137.191C202.016 137.191 202.971 137.59 203.674 138.387C204.377 139.178 204.729 140.224 204.729 141.524V142.447H198.093C198.122 143.578 198.406 144.437 198.945 145.022C199.49 145.608 200.255 145.901 201.239 145.901C202.276 145.901 203.302 145.685 204.315 145.251V146.552C203.8 146.774 203.311 146.933 202.848 147.026C202.391 147.126 201.837 147.176 201.187 147.176ZM200.791 138.413C200.018 138.413 199.399 138.665 198.937 139.169C198.479 139.673 198.21 140.37 198.128 141.261H203.164C203.164 140.341 202.959 139.638 202.549 139.151C202.139 138.659 201.553 138.413 200.791 138.413ZM209.545 142.069L206.196 137.367H207.857L210.397 141.059L212.929 137.367H214.572L211.224 142.069L214.748 147H213.096L210.397 143.098L207.673 147H206.021L209.545 142.069ZM219.775 145.972C220.033 145.972 220.282 145.954 220.522 145.919C220.763 145.878 220.953 145.837 221.094 145.796V146.912C220.936 146.988 220.701 147.05 220.391 147.097C220.086 147.149 219.811 147.176 219.564 147.176C217.701 147.176 216.77 146.194 216.77 144.231V138.501H215.39V137.798L216.77 137.191L217.385 135.135H218.229V137.367H221.023V138.501H218.229V144.17C218.229 144.75 218.366 145.195 218.642 145.506C218.917 145.816 219.295 145.972 219.775 145.972Z" fill="#001421"/>
<rect x="350" y="79" width="270" height="124" rx="9" stroke="#001421" stroke-width="2"/>
<line x1="486" y1="78" x2="486" y2="204" stroke="#001421" stroke-width="2"/>
<path d="M424.675 147H416.229V145.743L419.612 142.342C420.644 141.299 421.323 140.555 421.651 140.109C421.979 139.664 422.226 139.23 422.39 138.809C422.554 138.387 422.636 137.933 422.636 137.446C422.636 136.761 422.428 136.219 422.012 135.82C421.596 135.416 421.019 135.214 420.28 135.214C419.747 135.214 419.24 135.302 418.76 135.478C418.285 135.653 417.755 135.973 417.169 136.436L416.396 135.442C417.579 134.458 418.868 133.966 420.263 133.966C421.47 133.966 422.416 134.276 423.102 134.897C423.787 135.513 424.13 136.342 424.13 137.385C424.13 138.199 423.901 139.005 423.444 139.802C422.987 140.599 422.132 141.606 420.878 142.825L418.065 145.576V145.646H424.675V147Z" fill="#001421"/>
<path d="M542.804 147H541.099L534.076 136.216H534.006C534.1 137.481 534.146 138.642 534.146 139.696V147H532.767V134.15H534.454L541.459 144.891H541.529C541.518 144.732 541.491 144.226 541.45 143.37C541.409 142.509 541.395 141.894 541.406 141.524V134.15H542.804V147ZM550.187 147.176C548.763 147.176 547.638 146.742 546.812 145.875C545.991 145.008 545.581 143.804 545.581 142.263C545.581 140.71 545.962 139.477 546.724 138.562C547.491 137.648 548.52 137.191 549.809 137.191C551.016 137.191 551.971 137.59 552.674 138.387C553.377 139.178 553.729 140.224 553.729 141.524V142.447H547.093C547.122 143.578 547.406 144.437 547.945 145.022C548.49 145.608 549.255 145.901 550.239 145.901C551.276 145.901 552.302 145.685 553.315 145.251V146.552C552.8 146.774 552.311 146.933 551.848 147.026C551.391 147.126 550.837 147.176 550.187 147.176ZM549.791 138.413C549.018 138.413 548.399 138.665 547.937 139.169C547.479 139.673 547.21 140.37 547.128 141.261H552.164C552.164 140.341 551.959 139.638 551.549 139.151C551.139 138.659 550.553 138.413 549.791 138.413ZM558.545 142.069L555.196 137.367H556.857L559.397 141.059L561.929 137.367H563.572L560.224 142.069L563.748 147H562.096L559.397 143.098L556.673 147H555.021L558.545 142.069ZM568.775 145.972C569.033 145.972 569.282 145.954 569.522 145.919C569.763 145.878 569.953 145.837 570.094 145.796V146.912C569.936 146.988 569.701 147.05 569.391 147.097C569.086 147.149 568.811 147.176 568.564 147.176C566.701 147.176 565.77 146.194 565.77 144.231V138.501H564.39V137.798L565.77 137.191L566.385 135.135H567.229V137.367H570.023V138.501H567.229V144.17C567.229 144.75 567.366 145.195 567.642 145.506C567.917 145.816 568.295 145.972 568.775 145.972Z" fill="#001421"/>
<rect x="700" y="79" width="270" height="124" rx="9" stroke="#00BECC" stroke-width="2"/>
<line x1="836" y1="78" x2="836" y2="204" stroke="#00BECC" stroke-width="2"/>
<path d="M774.191 137.174C774.191 137.994 773.96 138.665 773.497 139.187C773.04 139.708 772.39 140.057 771.546 140.232V140.303C772.577 140.432 773.342 140.76 773.84 141.287C774.338 141.814 774.587 142.506 774.587 143.361C774.587 144.586 774.162 145.529 773.312 146.191C772.463 146.848 771.256 147.176 769.691 147.176C769.012 147.176 768.388 147.123 767.819 147.018C767.257 146.918 766.709 146.739 766.176 146.481V145.093C766.732 145.368 767.324 145.579 767.951 145.726C768.584 145.866 769.182 145.937 769.744 145.937C771.965 145.937 773.075 145.066 773.075 143.326C773.075 141.768 771.851 140.988 769.401 140.988H768.136V139.731H769.419C770.421 139.731 771.215 139.512 771.801 139.072C772.387 138.627 772.68 138.012 772.68 137.227C772.68 136.6 772.463 136.107 772.029 135.75C771.602 135.393 771.019 135.214 770.28 135.214C769.718 135.214 769.188 135.29 768.689 135.442C768.191 135.595 767.623 135.876 766.984 136.286L766.246 135.302C766.773 134.886 767.38 134.561 768.065 134.326C768.757 134.086 769.483 133.966 770.245 133.966C771.493 133.966 772.463 134.253 773.154 134.827C773.846 135.396 774.191 136.178 774.191 137.174Z" fill="#00BECC"/>
<path d="M892.804 147H891.099L884.076 136.216H884.006C884.1 137.481 884.146 138.642 884.146 139.696V147H882.767V134.15H884.454L891.459 144.891H891.529C891.518 144.732 891.491 144.226 891.45 143.37C891.409 142.509 891.395 141.894 891.406 141.524V134.15H892.804V147ZM900.187 147.176C898.763 147.176 897.638 146.742 896.812 145.875C895.991 145.008 895.581 143.804 895.581 142.263C895.581 140.71 895.962 139.477 896.724 138.562C897.491 137.648 898.52 137.191 899.809 137.191C901.016 137.191 901.971 137.59 902.674 138.387C903.377 139.178 903.729 140.224 903.729 141.524V142.447H897.093C897.122 143.578 897.406 144.437 897.945 145.022C898.49 145.608 899.255 145.901 900.239 145.901C901.276 145.901 902.302 145.685 903.315 145.251V146.552C902.8 146.774 902.311 146.933 901.848 147.026C901.391 147.126 900.837 147.176 900.187 147.176ZM899.791 138.413C899.018 138.413 898.399 138.665 897.937 139.169C897.479 139.673 897.21 140.37 897.128 141.261H902.164C902.164 140.341 901.959 139.638 901.549 139.151C901.139 138.659 900.553 138.413 899.791 138.413ZM908.545 142.069L905.196 137.367H906.857L909.397 141.059L911.929 137.367H913.572L910.224 142.069L913.748 147H912.096L909.397 143.098L906.673 147H905.021L908.545 142.069ZM918.775 145.972C919.033 145.972 919.282 145.954 919.522 145.919C919.763 145.878 919.953 145.837 920.094 145.796V146.912C919.936 146.988 919.701 147.05 919.391 147.097C919.086 147.149 918.811 147.176 918.564 147.176C916.701 147.176 915.77 146.194 915.77 144.231V138.501H914.39V137.798L915.77 137.191L916.385 135.135H917.229V137.367H920.023V138.501H917.229V144.17C917.229 144.75 917.366 145.195 917.642 145.506C917.917 145.816 918.295 145.972 918.775 145.972Z" fill="#00BECC"/>
<rect x="1051" y="79" width="270" height="124" rx="9" stroke="#001421" stroke-width="2"/>
<line x1="1187" y1="78" x2="1187" y2="204" stroke="#001421" stroke-width="2"/>
<path d="M1126.28 144.047H1124.37V147H1122.98V144.047H1116.73V142.772L1122.83 134.08H1124.37V142.72H1126.28V144.047ZM1122.98 142.72V138.448C1122.98 137.61 1123.01 136.664 1123.06 135.609H1122.99C1122.71 136.172 1122.45 136.638 1122.2 137.007L1118.19 142.72H1122.98Z" fill="#001421"/>
<path d="M1248.48 147H1246.77L1239.75 136.216H1239.68C1239.78 137.481 1239.82 138.642 1239.82 139.696V147H1238.44V134.15H1240.13L1247.13 144.891H1247.21C1247.19 144.732 1247.17 144.226 1247.13 143.37C1247.08 142.509 1247.07 141.894 1247.08 141.524V134.15H1248.48V147ZM1253.16 137.367V143.616C1253.16 144.401 1253.34 144.987 1253.7 145.374C1254.06 145.761 1254.62 145.954 1255.38 145.954C1256.39 145.954 1257.12 145.679 1257.58 145.128C1258.05 144.577 1258.29 143.678 1258.29 142.43V137.367H1259.75V147H1258.54L1258.33 145.708H1258.25C1257.95 146.183 1257.54 146.546 1257 146.798C1256.48 147.05 1255.87 147.176 1255.19 147.176C1254.02 147.176 1253.14 146.897 1252.56 146.341C1251.98 145.784 1251.69 144.894 1251.69 143.669V137.367H1253.16ZM1264.31 147H1262.85V133.324H1264.31V147ZM1268.86 147H1267.4V133.324H1268.86V147Z" fill="#001421"/>
<path d="M127.795 19H126.301V12.9531H119.533V19H118.039V6.15039H119.533V11.6172H126.301V6.15039H127.795V19ZM135.178 19.1758C133.754 19.1758 132.629 18.7422 131.803 17.875C130.982 17.0078 130.572 15.8037 130.572 14.2627C130.572 12.71 130.953 11.4766 131.715 10.5625C132.482 9.64844 133.511 9.19141 134.8 9.19141C136.007 9.19141 136.962 9.58984 137.665 10.3867C138.368 11.1777 138.72 12.2236 138.72 13.5244V14.4473H132.084C132.113 15.5781 132.397 16.4365 132.937 17.0225C133.481 17.6084 134.246 17.9014 135.23 17.9014C136.268 17.9014 137.293 17.6846 138.307 17.251V18.5518C137.791 18.7744 137.302 18.9326 136.839 19.0264C136.382 19.126 135.828 19.1758 135.178 19.1758ZM134.782 10.4131C134.009 10.4131 133.391 10.665 132.928 11.1689C132.471 11.6729 132.201 12.3701 132.119 13.2607H137.155C137.155 12.3408 136.95 11.6377 136.54 11.1514C136.13 10.6592 135.544 10.4131 134.782 10.4131ZM147.14 19L146.85 17.6289H146.779C146.299 18.2324 145.818 18.6426 145.338 18.8594C144.863 19.0703 144.269 19.1758 143.554 19.1758C142.599 19.1758 141.849 18.9297 141.304 18.4375C140.765 17.9453 140.495 17.2451 140.495 16.3369C140.495 14.3916 142.051 13.3721 145.162 13.2783L146.797 13.2256V12.6279C146.797 11.8721 146.633 11.3154 146.305 10.958C145.982 10.5947 145.464 10.4131 144.749 10.4131C143.946 10.4131 143.038 10.6592 142.024 11.1514L141.576 10.0352C142.051 9.77734 142.569 9.5752 143.132 9.42871C143.7 9.28223 144.269 9.20898 144.837 9.20898C145.985 9.20898 146.835 9.46387 147.386 9.97363C147.942 10.4834 148.221 11.3008 148.221 12.4258V19H147.14ZM143.844 17.9717C144.752 17.9717 145.464 17.7227 145.979 17.2246C146.501 16.7266 146.762 16.0293 146.762 15.1328V14.2627L145.303 14.3242C144.143 14.3652 143.305 14.5469 142.789 14.8691C142.279 15.1855 142.024 15.6807 142.024 16.3545C142.024 16.8818 142.183 17.2832 142.499 17.5586C142.821 17.834 143.27 17.9717 143.844 17.9717ZM157.792 17.708H157.713C157.039 18.6865 156.031 19.1758 154.689 19.1758C153.43 19.1758 152.448 18.7451 151.745 17.8838C151.048 17.0225 150.699 15.7979 150.699 14.21C150.699 12.6221 151.051 11.3887 151.754 10.5098C152.457 9.63086 153.436 9.19141 154.689 9.19141C155.996 9.19141 156.998 9.66602 157.695 10.6152H157.81L157.748 9.9209L157.713 9.24414V5.32422H159.172V19H157.985L157.792 17.708ZM154.874 17.9541C155.87 17.9541 156.591 17.6846 157.036 17.1455C157.487 16.6006 157.713 15.7246 157.713 14.5176V14.21C157.713 12.8447 157.484 11.8721 157.027 11.292C156.576 10.7061 155.853 10.4131 154.856 10.4131C154.001 10.4131 153.345 10.7471 152.888 11.415C152.437 12.0771 152.211 13.0146 152.211 14.2275C152.211 15.458 152.437 16.3867 152.888 17.0137C153.339 17.6406 154.001 17.9541 154.874 17.9541Z" fill="#001421"/>
<path d="M136.493 73.3536C136.688 73.5488 137.004 73.5488 137.2 73.3536L140.382 70.1716C140.577 69.9763 140.577 69.6597 140.382 69.4645C140.186 69.2692 139.87 69.2692 139.675 69.4645L136.846 72.2929L134.018 69.4645C133.822 69.2692 133.506 69.2692 133.311 69.4645C133.115 69.6597 133.115 69.9763 133.311 70.1716L136.493 73.3536ZM136.346 31L136.346 32.5L137.346 32.5L137.346 31L136.346 31ZM136.346 35.5L136.346 38.5L137.346 38.5L137.346 35.5L136.346 35.5ZM136.346 41.5L136.346 44.5L137.346 44.5L137.346 41.5L136.346 41.5ZM136.346 47.5L136.346 50.5L137.346 50.5L137.346 47.5L136.346 47.5ZM136.346 53.5L136.346 56.5L137.346 56.5L137.346 53.5L136.346 53.5ZM136.346 59.5L136.346 62.5L137.346 62.5L137.346 59.5L136.346 59.5ZM136.346 65.5L136.346 68.5L137.346 68.5L137.346 65.5L136.346 65.5ZM136.346 71.5L136.346 73L137.346 73L137.346 71.5L136.346 71.5ZM136.139 73.7071C136.53 74.0976 137.163 74.0976 137.553 73.7071L143.917 67.3431C144.308 66.9526 144.308 66.3195 143.917 65.9289C143.527 65.5384 142.894 65.5384 142.503 65.9289L136.846 71.5858L131.189 65.9289C130.799 65.5384 130.166 65.5384 129.775 65.9289C129.385 66.3195 129.385 66.9526 129.775 67.3431L136.139 73.7071ZM135.846 31L135.846 32.5L137.846 32.5L137.846 31L135.846 31ZM135.846 35.5L135.846 38.5L137.846 38.5L137.846 35.5L135.846 35.5ZM135.846 41.5L135.846 44.5L137.846 44.5L137.846 41.5L135.846 41.5ZM135.846 47.5L135.846 50.5L137.846 50.5L137.846 47.5L135.846 47.5ZM135.846 53.5L135.846 56.5L137.846 56.5L137.846 53.5L135.846 53.5ZM135.846 59.5L135.846 62.5L137.846 62.5L137.846 59.5L135.846 59.5ZM135.846 65.5L135.846 68.5L137.846 68.5L137.846 65.5L135.846 65.5ZM135.846 71.5L135.846 73L137.846 73L137.846 71.5L135.846 71.5Z" fill="#001421"/>
<path d="M1179.18 19H1177.68V7.47754H1173.61V6.15039H1183.25V7.47754H1179.18V19ZM1190.89 19L1190.6 17.6289H1190.53C1190.05 18.2324 1189.57 18.6426 1189.09 18.8594C1188.62 19.0703 1188.02 19.1758 1187.31 19.1758C1186.35 19.1758 1185.6 18.9297 1185.06 18.4375C1184.52 17.9453 1184.25 17.2451 1184.25 16.3369C1184.25 14.3916 1185.8 13.3721 1188.91 13.2783L1190.55 13.2256V12.6279C1190.55 11.8721 1190.38 11.3154 1190.06 10.958C1189.73 10.5947 1189.22 10.4131 1188.5 10.4131C1187.7 10.4131 1186.79 10.6592 1185.78 11.1514L1185.33 10.0352C1185.8 9.77734 1186.32 9.5752 1186.88 9.42871C1187.45 9.28223 1188.02 9.20898 1188.59 9.20898C1189.74 9.20898 1190.59 9.46387 1191.14 9.97363C1191.69 10.4834 1191.97 11.3008 1191.97 12.4258V19H1190.89ZM1187.6 17.9717C1188.5 17.9717 1189.22 17.7227 1189.73 17.2246C1190.25 16.7266 1190.51 16.0293 1190.51 15.1328V14.2627L1189.05 14.3242C1187.89 14.3652 1187.06 14.5469 1186.54 14.8691C1186.03 15.1855 1185.78 15.6807 1185.78 16.3545C1185.78 16.8818 1185.93 17.2832 1186.25 17.5586C1186.57 17.834 1187.02 17.9717 1187.6 17.9717ZM1196.45 19H1194.99V9.36719H1196.45V19ZM1194.86 6.75684C1194.86 6.42285 1194.95 6.17969 1195.11 6.02734C1195.27 5.86914 1195.48 5.79004 1195.73 5.79004C1195.96 5.79004 1196.16 5.86914 1196.33 6.02734C1196.5 6.18555 1196.59 6.42871 1196.59 6.75684C1196.59 7.08496 1196.5 7.33105 1196.33 7.49512C1196.16 7.65332 1195.96 7.73242 1195.73 7.73242C1195.48 7.73242 1195.27 7.65332 1195.11 7.49512C1194.95 7.33105 1194.86 7.08496 1194.86 6.75684ZM1201 19H1199.54V5.32422H1201V19Z" fill="#001421"/>
<circle cx="604.5" cy="142.5" r="6.5" fill="#001421"/>
<path d="M699.707 143.707C700.098 143.317 700.098 142.683 699.707 142.293L693.343 135.929C692.953 135.538 692.319 135.538 691.929 135.929C691.538 136.319 691.538 136.953 691.929 137.343L697.586 143L691.929 148.657C691.538 149.047 691.538 149.681 691.929 150.071C692.319 150.462 692.953 150.462 693.343 150.071L699.707 143.707ZM605 144H699V142H605V144Z" fill="#001421"/>
<circle cx="955.5" cy="141.5" r="6.5" fill="#001421"/>
<path d="M1050.71 142.707C1051.1 142.317 1051.1 141.683 1050.71 141.293L1044.34 134.929C1043.95 134.538 1043.32 134.538 1042.93 134.929C1042.54 135.319 1042.54 135.953 1042.93 136.343L1048.59 142L1042.93 147.657C1042.54 148.047 1042.54 148.681 1042.93 149.071C1043.32 149.462 1043.95 149.462 1044.34 149.071L1050.71 142.707ZM956 143H1050V141H956V143Z" fill="#001421"/>
<circle cx="254.5" cy="142.5" r="6.5" fill="#001421"/>
<path d="M349.707 143.707C350.098 143.317 350.098 142.683 349.707 142.293L343.343 135.929C342.953 135.538 342.319 135.538 341.929 135.929C341.538 136.319 341.538 136.953 341.929 137.343L347.586 143L341.929 148.657C341.538 149.047 341.538 149.681 341.929 150.071C342.319 150.462 342.953 150.462 343.343 150.071L349.707 143.707ZM255 144H349V142H255V144Z" fill="#001421"/>
<path d="M1186.49 73.3536C1186.69 73.5488 1187 73.5488 1187.2 73.3536L1190.38 70.1716C1190.58 69.9763 1190.58 69.6597 1190.38 69.4645C1190.19 69.2692 1189.87 69.2692 1189.67 69.4645L1186.85 72.2929L1184.02 69.4645C1183.82 69.2692 1183.51 69.2692 1183.31 69.4645C1183.12 69.6597 1183.12 69.9763 1183.31 70.1716L1186.49 73.3536ZM1186.35 31L1186.35 32.5L1187.35 32.5L1187.35 31L1186.35 31ZM1186.35 35.5L1186.35 38.5L1187.35 38.5L1187.35 35.5L1186.35 35.5ZM1186.35 41.5L1186.35 44.5L1187.35 44.5L1187.35 41.5L1186.35 41.5ZM1186.35 47.5L1186.35 50.5L1187.35 50.5L1187.35 47.5L1186.35 47.5ZM1186.35 53.5L1186.35 56.5L1187.35 56.5L1187.35 53.5L1186.35 53.5ZM1186.35 59.5L1186.35 62.5L1187.35 62.5L1187.35 59.5L1186.35 59.5ZM1186.35 65.5L1186.35 68.5L1187.35 68.5L1187.35 65.5L1186.35 65.5ZM1186.35 71.5L1186.35 73L1187.35 73L1187.35 71.5L1186.35 71.5ZM1186.14 73.7071C1186.53 74.0976 1187.16 74.0976 1187.55 73.7071L1193.92 67.3431C1194.31 66.9526 1194.31 66.3195 1193.92 65.9289C1193.53 65.5384 1192.89 65.5384 1192.5 65.9289L1186.85 71.5858L1181.19 65.9289C1180.8 65.5384 1180.17 65.5384 1179.78 65.9289C1179.38 66.3195 1179.38 66.9526 1179.78 67.3431L1186.14 73.7071ZM1185.85 31L1185.85 32.5L1187.85 32.5L1187.85 31L1185.85 31ZM1185.85 35.5L1185.85 38.5L1187.85 38.5L1187.85 35.5L1185.85 35.5ZM1185.85 41.5L1185.85 44.5L1187.85 44.5L1187.85 41.5L1185.85 41.5ZM1185.85 47.5L1185.85 50.5L1187.85 50.5L1187.85 47.5L1185.85 47.5ZM1185.85 53.5L1185.85 56.5L1187.85 56.5L1187.85 53.5L1185.85 53.5ZM1185.85 59.5L1185.85 62.5L1187.85 62.5L1187.85 59.5L1185.85 59.5ZM1185.85 65.5L1185.85 68.5L1187.85 68.5L1187.85 65.5L1185.85 65.5ZM1185.85 71.5L1185.85 73L1187.85 73L1187.85 71.5L1185.85 71.5Z" fill="#001421"/>
<path d="M419 205L419 224C419 246.627 419 257.941 411.971 264.971C404.941 272 393.627 272 371 272L248 272C225.373 272 214.059 272 207.029 264.971C200 257.941 200 246.627 200 224L200 205.14" stroke="#1A1A1A" stroke-width="2" stroke-linecap="round" stroke-linejoin="round"/>
<path d="M411 213L419 205L427 213" stroke="#1A1A1A" stroke-width="2" stroke-linecap="round" stroke-linejoin="round"/>
<path d="M769 205L769 224C769 246.627 769 257.941 761.971 264.971C754.941 272 743.627 272 721 272L598 272C575.373 272 564.059 272 557.029 264.971C550 257.941 550 246.627 550 224L550 205.14" stroke="#1A1A1A" stroke-width="2" stroke-linecap="round" stroke-linejoin="round"/>
<path d="M761 213L769 205L777 213" stroke="#1A1A1A" stroke-width="2" stroke-linecap="round" stroke-linejoin="round"/>
<path d="M811.595 65H810.101V52.1504H817.264V53.4775H811.595V58.1797H816.921V59.5068H811.595V65ZM827.494 60.1748C827.494 61.7451 827.099 62.9727 826.308 63.8574C825.517 64.7363 824.424 65.1758 823.029 65.1758C822.168 65.1758 821.403 64.9736 820.735 64.5693C820.067 64.165 819.552 63.585 819.188 62.8291C818.825 62.0732 818.644 61.1885 818.644 60.1748C818.644 58.6045 819.036 57.3828 819.821 56.5098C820.606 55.6309 821.696 55.1914 823.091 55.1914C824.438 55.1914 825.508 55.6396 826.299 56.5361C827.096 57.4326 827.494 58.6455 827.494 60.1748ZM820.155 60.1748C820.155 61.4053 820.401 62.3428 820.894 62.9873C821.386 63.6318 822.109 63.9541 823.064 63.9541C824.02 63.9541 824.743 63.6348 825.235 62.9961C825.733 62.3516 825.982 61.4111 825.982 60.1748C825.982 58.9502 825.733 58.0215 825.235 57.3887C824.743 56.75 824.014 56.4307 823.047 56.4307C822.092 56.4307 821.371 56.7441 820.885 57.3711C820.398 57.998 820.155 58.9326 820.155 60.1748ZM831.432 55.3672V61.6162C831.432 62.4014 831.61 62.9873 831.968 63.374C832.325 63.7607 832.885 63.9541 833.646 63.9541C834.654 63.9541 835.39 63.6787 835.853 63.1279C836.321 62.5771 836.556 61.6777 836.556 60.4297V55.3672H838.015V65H836.811L836.6 63.708H836.521C836.222 64.1826 835.806 64.5459 835.272 64.7979C834.745 65.0498 834.142 65.1758 833.462 65.1758C832.29 65.1758 831.411 64.8975 830.825 64.3408C830.245 63.7842 829.955 62.8936 829.955 61.6689V55.3672H831.432ZM847.709 65V58.7686C847.709 57.9834 847.53 57.3975 847.173 57.0107C846.815 56.624 846.256 56.4307 845.494 56.4307C844.486 56.4307 843.748 56.7031 843.279 57.248C842.811 57.793 842.576 58.6924 842.576 59.9463V65H841.117V55.3672H842.304L842.541 56.6855H842.611C842.91 56.2109 843.329 55.8447 843.868 55.5869C844.407 55.3232 845.008 55.1914 845.67 55.1914C846.83 55.1914 847.703 55.4727 848.289 56.0352C848.875 56.5918 849.168 57.4854 849.168 58.7158V65H847.709ZM858.73 63.708H858.651C857.978 64.6865 856.97 65.1758 855.628 65.1758C854.368 65.1758 853.387 64.7451 852.684 63.8838C851.986 63.0225 851.638 61.7979 851.638 60.21C851.638 58.6221 851.989 57.3887 852.692 56.5098C853.396 55.6309 854.374 55.1914 855.628 55.1914C856.935 55.1914 857.937 55.666 858.634 56.6152H858.748L858.687 55.9209L858.651 55.2441V51.3242H860.11V65H858.924L858.73 63.708ZM855.812 63.9541C856.809 63.9541 857.529 63.6846 857.975 63.1455C858.426 62.6006 858.651 61.7246 858.651 60.5176V60.21C858.651 58.8447 858.423 57.8721 857.966 57.292C857.515 56.7061 856.791 56.4131 855.795 56.4131C854.939 56.4131 854.283 56.7471 853.826 57.415C853.375 58.0771 853.149 59.0146 853.149 60.2275C853.149 61.458 853.375 62.3867 853.826 63.0137C854.277 63.6406 854.939 63.9541 855.812 63.9541Z" fill="#00BECC"/>
<path d="M284.6 290.268H288.968V296.517C288.288 296.733 287.597 296.897 286.894 297.009C286.19 297.12 285.376 297.176 284.45 297.176C282.505 297.176 280.99 296.599 279.906 295.444C278.822 294.284 278.28 292.661 278.28 290.575C278.28 289.239 278.547 288.07 279.08 287.068C279.619 286.061 280.393 285.293 281.4 284.766C282.408 284.232 283.589 283.966 284.942 283.966C286.313 283.966 287.591 284.218 288.774 284.722L288.194 286.04C287.034 285.548 285.918 285.302 284.846 285.302C283.281 285.302 282.06 285.768 281.181 286.699C280.302 287.631 279.862 288.923 279.862 290.575C279.862 292.31 280.284 293.625 281.128 294.521C281.978 295.418 283.223 295.866 284.863 295.866C285.754 295.866 286.624 295.764 287.474 295.559V291.604H284.6V290.268ZM300.156 292.175C300.156 293.745 299.761 294.973 298.97 295.857C298.179 296.736 297.086 297.176 295.691 297.176C294.83 297.176 294.065 296.974 293.397 296.569C292.729 296.165 292.214 295.585 291.851 294.829C291.487 294.073 291.306 293.188 291.306 292.175C291.306 290.604 291.698 289.383 292.483 288.51C293.269 287.631 294.358 287.191 295.753 287.191C297.101 287.191 298.17 287.64 298.961 288.536C299.758 289.433 300.156 290.646 300.156 292.175ZM292.817 292.175C292.817 293.405 293.063 294.343 293.556 294.987C294.048 295.632 294.771 295.954 295.727 295.954C296.682 295.954 297.405 295.635 297.897 294.996C298.396 294.352 298.645 293.411 298.645 292.175C298.645 290.95 298.396 290.021 297.897 289.389C297.405 288.75 296.676 288.431 295.709 288.431C294.754 288.431 294.033 288.744 293.547 289.371C293.061 289.998 292.817 290.933 292.817 292.175ZM313.99 297V290.769C313.99 289.983 313.812 289.397 313.454 289.011C313.097 288.624 312.537 288.431 311.775 288.431C310.768 288.431 310.029 288.703 309.561 289.248C309.092 289.793 308.857 290.692 308.857 291.946V297H307.398V287.367H308.585L308.822 288.686H308.893C309.191 288.211 309.61 287.845 310.149 287.587C310.688 287.323 311.289 287.191 311.951 287.191C313.111 287.191 313.984 287.473 314.57 288.035C315.156 288.592 315.449 289.485 315.449 290.716V297H313.99ZM322.524 297.176C321.101 297.176 319.976 296.742 319.149 295.875C318.329 295.008 317.919 293.804 317.919 292.263C317.919 290.71 318.3 289.477 319.062 288.562C319.829 287.648 320.857 287.191 322.146 287.191C323.354 287.191 324.309 287.59 325.012 288.387C325.715 289.178 326.066 290.224 326.066 291.524V292.447H319.431C319.46 293.578 319.744 294.437 320.283 295.022C320.828 295.608 321.593 295.901 322.577 295.901C323.614 295.901 324.64 295.685 325.653 295.251V296.552C325.138 296.774 324.648 296.933 324.186 297.026C323.729 297.126 323.175 297.176 322.524 297.176ZM322.129 288.413C321.355 288.413 320.737 288.665 320.274 289.169C319.817 289.673 319.548 290.37 319.466 291.261H324.502C324.502 290.341 324.297 289.638 323.887 289.151C323.477 288.659 322.891 288.413 322.129 288.413ZM330.883 292.069L327.534 287.367H329.195L331.735 291.059L334.267 287.367H335.91L332.562 292.069L336.086 297H334.434L331.735 293.098L329.011 297H327.358L330.883 292.069ZM341.113 295.972C341.371 295.972 341.62 295.954 341.86 295.919C342.101 295.878 342.291 295.837 342.432 295.796V296.912C342.273 296.988 342.039 297.05 341.729 297.097C341.424 297.149 341.148 297.176 340.902 297.176C339.039 297.176 338.107 296.194 338.107 294.231V288.501H336.728V287.798L338.107 287.191L338.723 285.135H339.566V287.367H342.361V288.501H339.566V294.17C339.566 294.75 339.704 295.195 339.979 295.506C340.255 295.816 340.633 295.972 341.113 295.972Z" fill="black"/>
<path d="M634.6 290.268H638.968V296.517C638.288 296.733 637.597 296.897 636.894 297.009C636.19 297.12 635.376 297.176 634.45 297.176C632.505 297.176 630.99 296.599 629.906 295.444C628.822 294.284 628.28 292.661 628.28 290.575C628.28 289.239 628.547 288.07 629.08 287.068C629.619 286.061 630.393 285.293 631.4 284.766C632.408 284.232 633.589 283.966 634.942 283.966C636.313 283.966 637.591 284.218 638.774 284.722L638.194 286.04C637.034 285.548 635.918 285.302 634.846 285.302C633.281 285.302 632.06 285.768 631.181 286.699C630.302 287.631 629.862 288.923 629.862 290.575C629.862 292.31 630.284 293.625 631.128 294.521C631.978 295.418 633.223 295.866 634.863 295.866C635.754 295.866 636.624 295.764 637.474 295.559V291.604H634.6V290.268ZM650.156 292.175C650.156 293.745 649.761 294.973 648.97 295.857C648.179 296.736 647.086 297.176 645.691 297.176C644.83 297.176 644.065 296.974 643.397 296.569C642.729 296.165 642.214 295.585 641.851 294.829C641.487 294.073 641.306 293.188 641.306 292.175C641.306 290.604 641.698 289.383 642.483 288.51C643.269 287.631 644.358 287.191 645.753 287.191C647.101 287.191 648.17 287.64 648.961 288.536C649.758 289.433 650.156 290.646 650.156 292.175ZM642.817 292.175C642.817 293.405 643.063 294.343 643.556 294.987C644.048 295.632 644.771 295.954 645.727 295.954C646.682 295.954 647.405 295.635 647.897 294.996C648.396 294.352 648.645 293.411 648.645 292.175C648.645 290.95 648.396 290.021 647.897 289.389C647.405 288.75 646.676 288.431 645.709 288.431C644.754 288.431 644.033 288.744 643.547 289.371C643.061 289.998 642.817 290.933 642.817 292.175ZM663.99 297V290.769C663.99 289.983 663.812 289.397 663.454 289.011C663.097 288.624 662.537 288.431 661.775 288.431C660.768 288.431 660.029 288.703 659.561 289.248C659.092 289.793 658.857 290.692 658.857 291.946V297H657.398V287.367H658.585L658.822 288.686H658.893C659.191 288.211 659.61 287.845 660.149 287.587C660.688 287.323 661.289 287.191 661.951 287.191C663.111 287.191 663.984 287.473 664.57 288.035C665.156 288.592 665.449 289.485 665.449 290.716V297H663.99ZM672.524 297.176C671.101 297.176 669.976 296.742 669.149 295.875C668.329 295.008 667.919 293.804 667.919 292.263C667.919 290.71 668.3 289.477 669.062 288.562C669.829 287.648 670.857 287.191 672.146 287.191C673.354 287.191 674.309 287.59 675.012 288.387C675.715 289.178 676.066 290.224 676.066 291.524V292.447H669.431C669.46 293.578 669.744 294.437 670.283 295.022C670.828 295.608 671.593 295.901 672.577 295.901C673.614 295.901 674.64 295.685 675.653 295.251V296.552C675.138 296.774 674.648 296.933 674.186 297.026C673.729 297.126 673.175 297.176 672.524 297.176ZM672.129 288.413C671.355 288.413 670.737 288.665 670.274 289.169C669.817 289.673 669.548 290.37 669.466 291.261H674.502C674.502 290.341 674.297 289.638 673.887 289.151C673.477 288.659 672.891 288.413 672.129 288.413ZM680.883 292.069L677.534 287.367H679.195L681.735 291.059L684.267 287.367H685.91L682.562 292.069L686.086 297H684.434L681.735 293.098L679.011 297H677.358L680.883 292.069ZM691.113 295.972C691.371 295.972 691.62 295.954 691.86 295.919C692.101 295.878 692.291 295.837 692.432 295.796V296.912C692.273 296.988 692.039 297.05 691.729 297.097C691.424 297.149 691.148 297.176 690.902 297.176C689.039 297.176 688.107 296.194 688.107 294.231V288.501H686.728V287.798L688.107 287.191L688.723 285.135H689.566V287.367H692.361V288.501H689.566V294.17C689.566 294.75 689.704 295.195 689.979 295.506C690.255 295.816 690.633 295.972 691.113 295.972Z" fill="black"/>
</svg>
