<svg width="379" height="63" viewBox="0 0 379 63" fill="none" xmlns="http://www.w3.org/2000/svg">
<path d="M12.1172 31.7227C12.1172 34.2617 11.6836 36.1484 10.8164 37.3828C9.94922 38.6172 8.59375 39.2344 6.75 39.2344C4.92969 39.2344 3.58203 38.6328 2.70703 37.4297C1.83203 36.2188 1.37891 34.4141 1.34766 32.0156V29.1211C1.34766 26.6133 1.78125 24.75 2.64844 23.5312C3.51562 22.3125 4.875 21.7031 6.72656 21.7031C8.5625 21.7031 9.91406 22.293 10.7812 23.4727C11.6484 24.6445 12.0938 26.457 12.1172 28.9102V31.7227ZM9.94922 28.7578C9.94922 26.9219 9.69141 25.5859 9.17578 24.75C8.66016 23.9062 7.84375 23.4844 6.72656 23.4844C5.61719 23.4844 4.80859 23.9023 4.30078 24.7383C3.79297 25.5742 3.53125 26.8594 3.51562 28.5938V32.0625C3.51562 33.9062 3.78125 35.2695 4.3125 36.1523C4.85156 37.0273 5.66406 37.4648 6.75 37.4648C7.82031 37.4648 8.61328 37.0508 9.12891 36.2227C9.65234 35.3945 9.92578 34.0898 9.94922 32.3086V28.7578Z" fill="black"/>
<path d="M110.543 38H108.363V23.5508L103.992 25.1562V23.1875L110.203 20.8555H110.543V38Z" fill="black"/>
<path d="M215.598 37H204.418V35.4414L210.324 28.8789C211.199 27.8867 211.801 27.082 212.129 26.4648C212.465 25.8398 212.633 25.1953 212.633 24.5312C212.633 23.6406 212.363 22.9102 211.824 22.3398C211.285 21.7695 210.566 21.4844 209.668 21.4844C208.59 21.4844 207.75 21.793 207.148 22.4102C206.555 23.0195 206.258 23.8711 206.258 24.9648H204.09C204.09 23.3945 204.594 22.125 205.602 21.1562C206.617 20.1875 207.973 19.7031 209.668 19.7031C211.254 19.7031 212.508 20.1211 213.43 20.957C214.352 21.7852 214.812 22.8906 214.812 24.2734C214.812 25.9531 213.742 27.9531 211.602 30.2734L207.031 35.2305H215.598V37Z" fill="black"/>
<path d="M55.0879 11.542C55.0879 13.4463 54.7627 14.8613 54.1123 15.7871C53.4619 16.7129 52.4453 17.1758 51.0625 17.1758C49.6973 17.1758 48.6865 16.7246 48.0303 15.8223C47.374 14.9141 47.0342 13.5605 47.0107 11.7617V9.59082C47.0107 7.70996 47.3359 6.3125 47.9863 5.39844C48.6367 4.48438 49.6562 4.02734 51.0449 4.02734C52.4219 4.02734 53.4355 4.46973 54.0859 5.35449C54.7363 6.2334 55.0703 7.59277 55.0879 9.43262V11.542ZM53.4619 9.31836C53.4619 7.94141 53.2686 6.93945 52.8818 6.3125C52.4951 5.67969 51.8828 5.36328 51.0449 5.36328C50.2129 5.36328 49.6064 5.67676 49.2256 6.30371C48.8447 6.93066 48.6484 7.89453 48.6367 9.19531V11.7969C48.6367 13.1797 48.8359 14.2021 49.2344 14.8643C49.6387 15.5205 50.248 15.8486 51.0625 15.8486C51.8652 15.8486 52.46 15.5381 52.8467 14.917C53.2393 14.2959 53.4443 13.3174 53.4619 11.9814V9.31836ZM52.4072 38H50.7725V27.1631L47.4941 28.3672V26.8906L52.1523 25.1416H52.4072V38ZM55.4482 59H47.0635V57.8311L51.4932 52.9092C52.1494 52.165 52.6006 51.5615 52.8467 51.0986C53.0986 50.6299 53.2246 50.1465 53.2246 49.6484C53.2246 48.9805 53.0225 48.4326 52.6182 48.0049C52.2139 47.5771 51.6748 47.3633 51.001 47.3633C50.1924 47.3633 49.5625 47.5947 49.1113 48.0576C48.666 48.5146 48.4434 49.1533 48.4434 49.9736H46.8174C46.8174 48.7959 47.1953 47.8438 47.9512 47.1172C48.7129 46.3906 49.7295 46.0273 51.001 46.0273C52.1904 46.0273 53.1309 46.3408 53.8223 46.9678C54.5137 47.5889 54.8594 48.418 54.8594 49.4551C54.8594 50.7148 54.0566 52.2148 52.4512 53.9551L49.0234 57.6729H55.4482V59Z" fill="black"/>
<path d="M156.088 11.542C156.088 13.4463 155.763 14.8613 155.112 15.7871C154.462 16.7129 153.445 17.1758 152.062 17.1758C150.697 17.1758 149.687 16.7246 149.03 15.8223C148.374 14.9141 148.034 13.5605 148.011 11.7617V9.59082C148.011 7.70996 148.336 6.3125 148.986 5.39844C149.637 4.48438 150.656 4.02734 152.045 4.02734C153.422 4.02734 154.436 4.46973 155.086 5.35449C155.736 6.2334 156.07 7.59277 156.088 9.43262V11.542ZM154.462 9.31836C154.462 7.94141 154.269 6.93945 153.882 6.3125C153.495 5.67969 152.883 5.36328 152.045 5.36328C151.213 5.36328 150.606 5.67676 150.226 6.30371C149.845 6.93066 149.648 7.89453 149.637 9.19531V11.7969C149.637 13.1797 149.836 14.2021 150.234 14.8643C150.639 15.5205 151.248 15.8486 152.062 15.8486C152.865 15.8486 153.46 15.5381 153.847 14.917C154.239 14.2959 154.444 13.3174 154.462 11.9814V9.31836ZM153.407 38H151.772V27.1631L148.494 28.3672V26.8906L153.152 25.1416H153.407V38ZM156.448 59H148.063V57.8311L152.493 52.9092C153.149 52.165 153.601 51.5615 153.847 51.0986C154.099 50.6299 154.225 50.1465 154.225 49.6484C154.225 48.9805 154.022 48.4326 153.618 48.0049C153.214 47.5771 152.675 47.3633 152.001 47.3633C151.192 47.3633 150.562 47.5947 150.111 48.0576C149.666 48.5146 149.443 49.1533 149.443 49.9736H147.817C147.817 48.7959 148.195 47.8438 148.951 47.1172C149.713 46.3906 150.729 46.0273 152.001 46.0273C153.19 46.0273 154.131 46.3408 154.822 46.9678C155.514 47.5889 155.859 48.418 155.859 49.4551C155.859 50.7148 155.057 52.2148 153.451 53.9551L150.023 57.6729H156.448V59Z" fill="black"/>
<path d="M256.088 11.542C256.088 13.4463 255.763 14.8613 255.112 15.7871C254.462 16.7129 253.445 17.1758 252.062 17.1758C250.697 17.1758 249.687 16.7246 249.03 15.8223C248.374 14.9141 248.034 13.5605 248.011 11.7617V9.59082C248.011 7.70996 248.336 6.3125 248.986 5.39844C249.637 4.48438 250.656 4.02734 252.045 4.02734C253.422 4.02734 254.436 4.46973 255.086 5.35449C255.736 6.2334 256.07 7.59277 256.088 9.43262V11.542ZM254.462 9.31836C254.462 7.94141 254.269 6.93945 253.882 6.3125C253.495 5.67969 252.883 5.36328 252.045 5.36328C251.213 5.36328 250.606 5.67676 250.226 6.30371C249.845 6.93066 249.648 7.89453 249.637 9.19531V11.7969C249.637 13.1797 249.836 14.2021 250.234 14.8643C250.639 15.5205 251.248 15.8486 252.062 15.8486C252.865 15.8486 253.46 15.5381 253.847 14.917C254.239 14.2959 254.444 13.3174 254.462 11.9814V9.31836ZM253.407 38H251.772V27.1631L248.494 28.3672V26.8906L253.152 25.1416H253.407V38ZM256.448 59H248.063V57.8311L252.493 52.9092C253.149 52.165 253.601 51.5615 253.847 51.0986C254.099 50.6299 254.225 50.1465 254.225 49.6484C254.225 48.9805 254.022 48.4326 253.618 48.0049C253.214 47.5771 252.675 47.3633 252.001 47.3633C251.192 47.3633 250.562 47.5947 250.111 48.0576C249.666 48.5146 249.443 49.1533 249.443 49.9736H247.817C247.817 48.7959 248.195 47.8438 248.951 47.1172C249.713 46.3906 250.729 46.0273 252.001 46.0273C253.19 46.0273 254.131 46.3408 254.822 46.9678C255.514 47.5889 255.859 48.418 255.859 49.4551C255.859 50.7148 255.057 52.2148 253.451 53.9551L250.023 57.6729H256.448V59Z" fill="black"/>
<path d="M42 8L16 31.7753L42 54" stroke="black"/>
<line x1="16" y1="31.5" x2="42" y2="31.5" stroke="black"/>
<path d="M146 8L120 31.7753L146 54" stroke="black"/>
<line x1="120" y1="31.5" x2="146" y2="31.5" stroke="black"/>
<path d="M245 7L219 30.7753L245 53" stroke="black"/>
<line x1="219" y1="30.5" x2="245" y2="30.5" stroke="black"/>
<path d="M296.312 27.6211L298.422 27.6387C299.969 27.6387 301.27 27.2344 302.324 26.4258C303.391 25.6055 304 24.498 304.152 23.1035C304.305 21.7441 304.053 20.6777 303.396 19.9043C302.74 19.1191 301.785 18.7148 300.531 18.6914C299.195 18.668 298.059 19.0605 297.121 19.8691C296.195 20.666 295.627 21.7441 295.416 23.1035L292.27 23.1211C292.469 21.0117 293.365 19.3008 294.959 17.9883C296.564 16.6641 298.475 16.0137 300.689 16.0371C302.834 16.084 304.516 16.7578 305.734 18.0586C306.965 19.3477 307.498 21.0527 307.334 23.1738C307.229 24.3809 306.766 25.4824 305.945 26.4785C305.125 27.4746 303.988 28.3008 302.535 28.957C303.695 29.4258 304.562 30.1699 305.137 31.1895C305.711 32.1973 305.951 33.3809 305.857 34.7402C305.67 37.0488 304.75 38.9062 303.098 40.3125C301.457 41.7188 299.459 42.3984 297.104 42.3516C294.912 42.3047 293.166 41.625 291.865 40.3125C290.564 39 289.961 37.3066 290.055 35.2324L293.236 35.25C293.166 36.5625 293.482 37.623 294.186 38.4316C294.889 39.2285 295.908 39.6504 297.244 39.6973C298.744 39.7441 299.992 39.3164 300.988 38.4141C301.984 37.5117 302.553 36.3047 302.693 34.793C302.822 33.3984 302.506 32.3145 301.744 31.541C300.982 30.7559 299.846 30.3398 298.334 30.293L295.891 30.2754L296.312 27.6211ZM320.641 30.2754H310.41L310.762 28.2363L317.002 22.998C318.162 22.0137 318.812 21.0879 318.953 20.2207C319.035 19.6582 318.918 19.2188 318.602 18.9023C318.297 18.5859 317.863 18.4219 317.301 18.4102C316.527 18.3984 315.906 18.6152 315.438 19.0605C314.969 19.4941 314.652 20.0742 314.488 20.8008L311.781 20.8184C311.91 19.4473 312.484 18.3281 313.504 17.4609C314.523 16.582 315.783 16.1543 317.283 16.1777C318.689 16.2012 319.797 16.582 320.605 17.3203C321.426 18.0586 321.807 19.0254 321.748 20.2207C321.654 21.6621 320.723 23.1152 318.953 24.5801L317.828 25.4766L314.383 28.0254H321.045L320.641 30.2754ZM348.062 27.6914H333.824L334.316 24.8613H348.572L348.062 27.6914ZM346.797 34.9863H332.559L333.051 32.1738H347.307L346.797 34.9863ZM373.217 30.75C372.35 31.6641 371.43 32.3496 370.457 32.8066C369.484 33.252 368.518 33.4629 367.557 33.4395C366.209 33.416 365.055 33.0352 364.094 32.2969C363.145 31.5586 362.447 30.5449 362.002 29.2559C361.568 27.9668 361.422 26.5605 361.562 25.0371C361.715 23.3496 362.189 21.8027 362.986 20.3965C363.783 18.9902 364.82 17.9062 366.098 17.1445C367.387 16.3711 368.805 16.0078 370.352 16.0547C372.391 16.1016 373.99 16.8398 375.15 18.2695C376.311 19.6992 376.938 21.6152 377.031 24.0176C377.066 25.2715 376.92 26.8301 376.592 28.6934C375.818 33.0762 374.289 36.3809 372.004 38.6074C369.73 40.8223 366.807 41.9648 363.232 42.0352H362.441L362.723 39.293H363.373C365.893 39.2461 367.955 38.543 369.561 37.1836C371.178 35.8125 372.396 33.668 373.217 30.75ZM368.225 30.75C369.291 30.7969 370.316 30.498 371.301 29.8535C372.285 29.1973 373.094 28.3184 373.727 27.2168L373.867 25.9336L373.92 24.5098C373.873 22.6934 373.533 21.293 372.9 20.3086C372.279 19.3242 371.383 18.8086 370.211 18.7617C368.758 18.7031 367.516 19.2656 366.484 20.4492C365.465 21.6211 364.873 23.0918 364.709 24.8613C364.627 25.5762 364.639 26.3027 364.744 27.041C364.85 27.7793 365.061 28.4297 365.377 28.9922C366.01 30.1289 366.959 30.7148 368.225 30.75Z" fill="black"/>
<path d="M97.3536 31.3536C97.5488 31.1583 97.5488 30.8417 97.3536 30.6464L94.1716 27.4645C93.9763 27.2692 93.6597 27.2692 93.4645 27.4645C93.2692 27.6597 93.2692 27.9763 93.4645 28.1716L96.2929 31L93.4645 33.8284C93.2692 34.0237 93.2692 34.3403 93.4645 34.5355C93.6597 34.7308 93.9763 34.7308 94.1716 34.5355L97.3536 31.3536ZM62 31.5H97V30.5H62V31.5Z" fill="black"/>
<path d="M200.354 31.3536C200.549 31.1583 200.549 30.8417 200.354 30.6464L197.172 27.4645C196.976 27.2692 196.66 27.2692 196.464 27.4645C196.269 27.6597 196.269 27.9763 196.464 28.1716L199.293 31L196.464 33.8284C196.269 34.0237 196.269 34.3403 196.464 34.5355C196.66 34.7308 196.976 34.7308 197.172 34.5355L200.354 31.3536ZM165 31.5H200V30.5H165V31.5Z" fill="black"/>
</svg>
