<svg width="272" height="296" viewBox="0 0 272 296" fill="none" xmlns="http://www.w3.org/2000/svg">
<rect x="1" y="51" width="270" height="124" rx="9" stroke="#001421" stroke-width="2"/>
<line x1="137" y1="50" x2="137" y2="176" stroke="#001421" stroke-width="2"/>
<path d="M195.804 122H194.099L187.076 111.216H187.006C187.1 112.481 187.146 113.642 187.146 114.696V122H185.767V109.15H187.454L194.459 119.891H194.529C194.518 119.732 194.491 119.226 194.45 118.37C194.409 117.509 194.395 116.894 194.406 116.524V109.15H195.804V122ZM203.187 122.176C201.763 122.176 200.638 121.742 199.812 120.875C198.991 120.008 198.581 118.804 198.581 117.263C198.581 115.71 198.962 114.477 199.724 113.562C200.491 112.648 201.52 112.191 202.809 112.191C204.016 112.191 204.971 112.59 205.674 113.387C206.377 114.178 206.729 115.224 206.729 116.524V117.447H200.093C200.122 118.578 200.406 119.437 200.945 120.022C201.49 120.608 202.255 120.901 203.239 120.901C204.276 120.901 205.302 120.685 206.315 120.251V121.552C205.8 121.774 205.311 121.933 204.848 122.026C204.391 122.126 203.837 122.176 203.187 122.176ZM202.791 113.413C202.018 113.413 201.399 113.665 200.937 114.169C200.479 114.673 200.21 115.37 200.128 116.261H205.164C205.164 115.341 204.959 114.638 204.549 114.151C204.139 113.659 203.553 113.413 202.791 113.413ZM211.545 117.069L208.196 112.367H209.857L212.397 116.059L214.929 112.367H216.572L213.224 117.069L216.748 122H215.096L212.397 118.098L209.673 122H208.021L211.545 117.069ZM221.775 120.972C222.033 120.972 222.282 120.954 222.522 120.919C222.763 120.878 222.953 120.837 223.094 120.796V121.912C222.936 121.988 222.701 122.05 222.391 122.097C222.086 122.149 221.811 122.176 221.564 122.176C219.701 122.176 218.77 121.194 218.77 119.231V113.501H217.39V112.798L218.77 112.191L219.385 110.135H220.229V112.367H223.023V113.501H220.229V119.17C220.229 119.75 220.366 120.195 220.642 120.506C220.917 120.816 221.295 120.972 221.775 120.972Z" fill="#001421"/>
<path d="M51.1055 109.15H52.7139L48.082 122H46.6055L42 109.15H43.582L46.5352 117.465C46.875 118.42 47.1445 119.349 47.3438 120.251C47.5547 119.302 47.8301 118.355 48.1699 117.412L51.1055 109.15ZM60.1934 122L59.9033 120.629H59.833C59.3525 121.232 58.8721 121.643 58.3916 121.859C57.917 122.07 57.3223 122.176 56.6074 122.176C55.6523 122.176 54.9023 121.93 54.3574 121.438C53.8184 120.945 53.5488 120.245 53.5488 119.337C53.5488 117.392 55.1045 116.372 58.2158 116.278L59.8506 116.226V115.628C59.8506 114.872 59.6865 114.315 59.3584 113.958C59.0361 113.595 58.5176 113.413 57.8027 113.413C57 113.413 56.0918 113.659 55.0781 114.151L54.6299 113.035C55.1045 112.777 55.623 112.575 56.1855 112.429C56.7539 112.282 57.3223 112.209 57.8906 112.209C59.0391 112.209 59.8887 112.464 60.4395 112.974C60.9961 113.483 61.2744 114.301 61.2744 115.426V122H60.1934ZM56.8975 120.972C57.8057 120.972 58.5176 120.723 59.0332 120.225C59.5547 119.727 59.8154 119.029 59.8154 118.133V117.263L58.3564 117.324C57.1963 117.365 56.3584 117.547 55.8428 117.869C55.333 118.186 55.0781 118.681 55.0781 119.354C55.0781 119.882 55.2363 120.283 55.5527 120.559C55.875 120.834 56.3232 120.972 56.8975 120.972ZM65.748 122H64.2891V108.324H65.748V122ZM70.2129 112.367V118.616C70.2129 119.401 70.3916 119.987 70.749 120.374C71.1064 120.761 71.666 120.954 72.4277 120.954C73.4355 120.954 74.1709 120.679 74.6338 120.128C75.1025 119.577 75.3369 118.678 75.3369 117.43V112.367H76.7959V122H75.5918L75.3809 120.708H75.3018C75.0029 121.183 74.5869 121.546 74.0537 121.798C73.5264 122.05 72.9229 122.176 72.2432 122.176C71.0713 122.176 70.1924 121.897 69.6064 121.341C69.0264 120.784 68.7363 119.894 68.7363 118.669V112.367H70.2129ZM83.9678 122.176C82.5439 122.176 81.4189 121.742 80.5928 120.875C79.7725 120.008 79.3623 118.804 79.3623 117.263C79.3623 115.71 79.7432 114.477 80.5049 113.562C81.2725 112.648 82.3008 112.191 83.5898 112.191C84.7969 112.191 85.752 112.59 86.4551 113.387C87.1582 114.178 87.5098 115.224 87.5098 116.524V117.447H80.874C80.9033 118.578 81.1875 119.437 81.7266 120.022C82.2715 120.608 83.0361 120.901 84.0205 120.901C85.0576 120.901 86.083 120.685 87.0967 120.251V121.552C86.5811 121.774 86.0918 121.933 85.6289 122.026C85.1719 122.126 84.6182 122.176 83.9678 122.176ZM83.5723 113.413C82.7988 113.413 82.1807 113.665 81.7178 114.169C81.2607 114.673 80.9912 115.37 80.9092 116.261H85.9453C85.9453 115.341 85.7402 114.638 85.3301 114.151C84.9199 113.659 84.334 113.413 83.5723 113.413Z" fill="#001421"/>
<path d="M38.6836 231.271C38.6836 232.803 38.2668 233.975 37.4331 234.788C36.6037 235.596 35.4082 236 33.8467 236H31.2759V226.72H34.1196C35.5627 226.72 36.6841 227.12 37.4839 227.919C38.2837 228.719 38.6836 229.836 38.6836 231.271ZM37.541 231.309C37.541 230.099 37.2363 229.187 36.627 228.573C36.0218 227.96 35.1204 227.653 33.9229 227.653H32.355V235.067H33.6689C34.9554 235.067 35.9224 234.752 36.5698 234.121C37.2173 233.486 37.541 232.549 37.541 231.309ZM44.8789 236L44.6694 235.01H44.6187C44.2716 235.446 43.9246 235.742 43.5776 235.898C43.2349 236.051 42.8053 236.127 42.2891 236.127C41.5993 236.127 41.0576 235.949 40.6641 235.594C40.2747 235.238 40.0801 234.733 40.0801 234.077C40.0801 232.672 41.2036 231.935 43.4507 231.868L44.6313 231.83V231.398C44.6313 230.852 44.5129 230.45 44.2759 230.192C44.0431 229.93 43.6686 229.798 43.1523 229.798C42.5726 229.798 41.9167 229.976 41.1846 230.332L40.8608 229.525C41.2036 229.339 41.5781 229.193 41.9844 229.087C42.3949 228.982 42.8053 228.929 43.2158 228.929C44.0452 228.929 44.6589 229.113 45.0566 229.481C45.4587 229.849 45.6597 230.439 45.6597 231.252V236H44.8789ZM42.4985 235.257C43.1545 235.257 43.6686 235.077 44.041 234.718C44.4176 234.358 44.606 233.854 44.606 233.207V232.579L43.5522 232.623C42.7144 232.653 42.1092 232.784 41.7368 233.017C41.3687 233.245 41.1846 233.603 41.1846 234.089C41.1846 234.47 41.2988 234.76 41.5273 234.959C41.7601 235.158 42.0838 235.257 42.4985 235.257ZM50.084 235.257C50.2702 235.257 50.45 235.245 50.6235 235.219C50.797 235.19 50.9346 235.16 51.0361 235.13V235.937C50.9219 235.992 50.7526 236.036 50.5283 236.07C50.3083 236.108 50.1094 236.127 49.9316 236.127C48.5859 236.127 47.9131 235.418 47.9131 234V229.862H46.9165V229.354L47.9131 228.916L48.3574 227.431H48.9668V229.043H50.9854V229.862H48.9668V233.956C48.9668 234.375 49.0662 234.697 49.2651 234.921C49.464 235.145 49.737 235.257 50.084 235.257ZM56.7109 236L56.5015 235.01H56.4507C56.1037 235.446 55.7567 235.742 55.4097 235.898C55.0669 236.051 54.6374 236.127 54.1211 236.127C53.4313 236.127 52.8896 235.949 52.4961 235.594C52.1068 235.238 51.9121 234.733 51.9121 234.077C51.9121 232.672 53.0356 231.935 55.2827 231.868L56.4634 231.83V231.398C56.4634 230.852 56.3449 230.45 56.1079 230.192C55.8752 229.93 55.5007 229.798 54.9844 229.798C54.4046 229.798 53.7487 229.976 53.0166 230.332L52.6929 229.525C53.0356 229.339 53.4102 229.193 53.8164 229.087C54.2269 228.982 54.6374 228.929 55.0479 228.929C55.8773 228.929 56.4909 229.113 56.8887 229.481C57.2907 229.849 57.4917 230.439 57.4917 231.252V236H56.7109ZM54.3306 235.257C54.9865 235.257 55.5007 235.077 55.873 234.718C56.2497 234.358 56.438 233.854 56.438 233.207V232.579L55.3843 232.623C54.5464 232.653 53.9412 232.784 53.5688 233.017C53.2007 233.245 53.0166 233.603 53.0166 234.089C53.0166 234.47 53.1309 234.76 53.3594 234.959C53.5921 235.158 53.9159 235.257 54.3306 235.257ZM68.4414 233.531C68.4414 234.347 68.1452 234.984 67.5527 235.441C66.9603 235.898 66.1562 236.127 65.1406 236.127C64.0404 236.127 63.194 235.985 62.6016 235.702V234.661C62.9824 234.821 63.3971 234.948 63.8457 235.042C64.2943 235.135 64.7386 235.181 65.1787 235.181C65.8981 235.181 66.4398 235.046 66.8037 234.775C67.1676 234.5 67.3496 234.119 67.3496 233.632C67.3496 233.311 67.284 233.048 67.1528 232.845C67.0259 232.638 66.8101 232.447 66.5054 232.274C66.2049 232.1 65.7458 231.904 65.1279 231.684C64.2646 231.375 63.6468 231.009 63.2744 230.585C62.9062 230.162 62.7222 229.61 62.7222 228.929C62.7222 228.214 62.9909 227.644 63.5283 227.221C64.0658 226.798 64.7767 226.586 65.6611 226.586C66.5837 226.586 67.4321 226.756 68.2065 227.094L67.8701 228.034C67.1042 227.712 66.3594 227.551 65.6357 227.551C65.0645 227.551 64.618 227.674 64.2964 227.919C63.9748 228.165 63.814 228.506 63.814 228.941C63.814 229.263 63.8732 229.528 63.9917 229.735C64.1102 229.938 64.3091 230.126 64.5884 230.3C64.8719 230.469 65.3035 230.657 65.8833 230.865C66.8566 231.212 67.5252 231.584 67.8892 231.982C68.2573 232.38 68.4414 232.896 68.4414 233.531ZM72.4277 235.257C72.6139 235.257 72.7938 235.245 72.9673 235.219C73.1408 235.19 73.2783 235.16 73.3799 235.13V235.937C73.2656 235.992 73.0964 236.036 72.8721 236.07C72.652 236.108 72.4531 236.127 72.2754 236.127C70.9297 236.127 70.2568 235.418 70.2568 234V229.862H69.2603V229.354L70.2568 228.916L70.7012 227.431H71.3105V229.043H73.3291V229.862H71.3105V233.956C71.3105 234.375 71.41 234.697 71.6089 234.921C71.8078 235.145 72.0807 235.257 72.4277 235.257ZM80.7812 232.515C80.7812 233.649 80.4956 234.536 79.9243 235.175C79.353 235.81 78.5638 236.127 77.5566 236.127C76.9346 236.127 76.3823 235.981 75.8999 235.689C75.4175 235.397 75.0451 234.978 74.7827 234.432C74.5203 233.886 74.3892 233.247 74.3892 232.515C74.3892 231.381 74.6727 230.499 75.2397 229.868C75.8068 229.233 76.5939 228.916 77.6011 228.916C78.5744 228.916 79.3467 229.24 79.918 229.887C80.4935 230.535 80.7812 231.411 80.7812 232.515ZM75.481 232.515C75.481 233.404 75.6587 234.081 76.0142 234.546C76.3696 235.012 76.8923 235.245 77.582 235.245C78.2718 235.245 78.7944 235.014 79.1499 234.553C79.5096 234.087 79.6895 233.408 79.6895 232.515C79.6895 231.631 79.5096 230.96 79.1499 230.503C78.7944 230.042 78.2676 229.811 77.5693 229.811C76.8796 229.811 76.359 230.037 76.0078 230.49C75.6566 230.943 75.481 231.618 75.481 232.515ZM85.8086 228.916C86.1175 228.916 86.3947 228.941 86.6401 228.992L86.4941 229.97C86.2064 229.906 85.9525 229.875 85.7324 229.875C85.1696 229.875 84.6872 230.103 84.2852 230.56C83.8874 231.017 83.6885 231.586 83.6885 232.268V236H82.6348V229.043H83.5044L83.625 230.332H83.6758C83.9339 229.879 84.245 229.53 84.6089 229.284C84.9728 229.039 85.3727 228.916 85.8086 228.916ZM90.8804 236.127C89.8521 236.127 89.0396 235.814 88.4429 235.188C87.8504 234.561 87.5542 233.692 87.5542 232.579C87.5542 231.457 87.8293 230.566 88.3794 229.906C88.9338 229.246 89.6764 228.916 90.6074 228.916C91.4792 228.916 92.1689 229.204 92.6768 229.779C93.1846 230.351 93.4385 231.106 93.4385 232.045V232.712H88.646C88.6672 233.529 88.8724 234.149 89.2617 234.572C89.6553 234.995 90.2075 235.207 90.9185 235.207C91.6675 235.207 92.408 235.05 93.1401 234.737V235.676C92.7677 235.837 92.4144 235.951 92.0801 236.019C91.75 236.091 91.3501 236.127 90.8804 236.127ZM90.5947 229.798C90.0361 229.798 89.5897 229.98 89.2554 230.344C88.9253 230.708 88.7306 231.212 88.6714 231.855H92.3086C92.3086 231.191 92.1605 230.683 91.8643 230.332C91.568 229.976 91.1449 229.798 90.5947 229.798ZM99.9766 235.067H99.9194C99.4328 235.774 98.7049 236.127 97.7358 236.127C96.826 236.127 96.1172 235.816 95.6094 235.194C95.1058 234.572 94.854 233.687 94.854 232.541C94.854 231.394 95.1079 230.503 95.6157 229.868C96.1235 229.233 96.8302 228.916 97.7358 228.916C98.6795 228.916 99.4032 229.259 99.9067 229.944H99.9893L99.9448 229.443L99.9194 228.954V226.123H100.973V236H100.116L99.9766 235.067ZM97.8691 235.245C98.5885 235.245 99.109 235.05 99.4307 234.661C99.7565 234.267 99.9194 233.634 99.9194 232.763V232.541C99.9194 231.555 99.7544 230.852 99.4243 230.433C99.0985 230.01 98.5758 229.798 97.8564 229.798C97.2386 229.798 96.7646 230.04 96.4346 230.522C96.1087 231 95.9458 231.677 95.9458 232.553C95.9458 233.442 96.1087 234.113 96.4346 234.565C96.7604 235.018 97.2386 235.245 97.8691 235.245Z" fill="#001421" fill-opacity="0.62"/>
<path d="M155.338 232.141V236H154.259V226.72H156.804C157.943 226.72 158.783 226.938 159.324 227.374C159.87 227.809 160.143 228.465 160.143 229.341C160.143 230.569 159.521 231.398 158.277 231.83L160.797 236H159.521L157.274 232.141H155.338ZM155.338 231.214H156.817C157.579 231.214 158.137 231.064 158.493 230.763C158.848 230.458 159.026 230.004 159.026 229.398C159.026 228.785 158.844 228.343 158.48 228.072C158.12 227.801 157.541 227.666 156.741 227.666H155.338V231.214ZM165.075 236.127C164.047 236.127 163.234 235.814 162.638 235.188C162.045 234.561 161.749 233.692 161.749 232.579C161.749 231.457 162.024 230.566 162.574 229.906C163.129 229.246 163.871 228.916 164.802 228.916C165.674 228.916 166.364 229.204 166.872 229.779C167.379 230.351 167.633 231.106 167.633 232.045V232.712H162.841C162.862 233.529 163.067 234.149 163.457 234.572C163.85 234.995 164.402 235.207 165.113 235.207C165.862 235.207 166.603 235.05 167.335 234.737V235.676C166.963 235.837 166.609 235.951 166.275 236.019C165.945 236.091 165.545 236.127 165.075 236.127ZM164.79 229.798C164.231 229.798 163.785 229.98 163.45 230.344C163.12 230.708 162.925 231.212 162.866 231.855H166.503C166.503 231.191 166.355 230.683 166.059 230.332C165.763 229.976 165.34 229.798 164.79 229.798ZM172.572 229.862H170.801V236H169.747V229.862H168.503V229.386L169.747 229.005V228.618C169.747 226.908 170.494 226.053 171.988 226.053C172.356 226.053 172.788 226.127 173.283 226.275L173.01 227.12C172.604 226.988 172.257 226.923 171.969 226.923C171.571 226.923 171.277 227.056 171.086 227.323C170.896 227.585 170.801 228.008 170.801 228.592V229.043H172.572V229.862ZM176.78 236.127C175.752 236.127 174.939 235.814 174.343 235.188C173.75 234.561 173.454 233.692 173.454 232.579C173.454 231.457 173.729 230.566 174.279 229.906C174.834 229.246 175.576 228.916 176.507 228.916C177.379 228.916 178.069 229.204 178.577 229.779C179.084 230.351 179.338 231.106 179.338 232.045V232.712H174.546C174.567 233.529 174.772 234.149 175.162 234.572C175.555 234.995 176.107 235.207 176.818 235.207C177.567 235.207 178.308 235.05 179.04 234.737V235.676C178.668 235.837 178.314 235.951 177.98 236.019C177.65 236.091 177.25 236.127 176.78 236.127ZM176.495 229.798C175.936 229.798 175.49 229.98 175.155 230.344C174.825 230.708 174.631 231.212 174.571 231.855H178.208C178.208 231.191 178.06 230.683 177.764 230.332C177.468 229.976 177.045 229.798 176.495 229.798ZM184.315 228.916C184.624 228.916 184.901 228.941 185.146 228.992L185 229.97C184.713 229.906 184.459 229.875 184.239 229.875C183.676 229.875 183.194 230.103 182.792 230.56C182.394 231.017 182.195 231.586 182.195 232.268V236H181.141V229.043H182.011L182.131 230.332H182.182C182.44 229.879 182.751 229.53 183.115 229.284C183.479 229.039 183.879 228.916 184.315 228.916ZM189.387 236.127C188.358 236.127 187.546 235.814 186.949 235.188C186.357 234.561 186.061 233.692 186.061 232.579C186.061 231.457 186.336 230.566 186.886 229.906C187.44 229.246 188.183 228.916 189.114 228.916C189.986 228.916 190.675 229.204 191.183 229.779C191.691 230.351 191.945 231.106 191.945 232.045V232.712H187.152C187.174 233.529 187.379 234.149 187.768 234.572C188.162 234.995 188.714 235.207 189.425 235.207C190.174 235.207 190.914 235.05 191.646 234.737V235.676C191.274 235.837 190.921 235.951 190.586 236.019C190.256 236.091 189.856 236.127 189.387 236.127ZM189.101 229.798C188.542 229.798 188.096 229.98 187.762 230.344C187.432 230.708 187.237 231.212 187.178 231.855H190.815C190.815 231.191 190.667 230.683 190.371 230.332C190.074 229.976 189.651 229.798 189.101 229.798ZM198.508 236V231.5C198.508 230.932 198.379 230.509 198.121 230.23C197.863 229.951 197.459 229.811 196.909 229.811C196.181 229.811 195.648 230.008 195.309 230.401C194.971 230.795 194.801 231.444 194.801 232.35V236H193.748V229.043H194.604L194.776 229.995H194.827C195.042 229.652 195.345 229.388 195.734 229.202C196.124 229.011 196.557 228.916 197.036 228.916C197.874 228.916 198.504 229.119 198.927 229.525C199.35 229.927 199.562 230.573 199.562 231.461V236H198.508ZM204.513 236.127C203.506 236.127 202.725 235.818 202.171 235.2C201.621 234.578 201.346 233.7 201.346 232.566C201.346 231.402 201.625 230.503 202.184 229.868C202.746 229.233 203.546 228.916 204.583 228.916C204.917 228.916 205.252 228.952 205.586 229.024C205.92 229.096 206.183 229.181 206.373 229.278L206.049 230.173C205.817 230.08 205.563 230.004 205.288 229.944C205.013 229.881 204.769 229.849 204.558 229.849C203.144 229.849 202.438 230.75 202.438 232.553C202.438 233.408 202.609 234.064 202.952 234.521C203.299 234.978 203.811 235.207 204.488 235.207C205.068 235.207 205.662 235.082 206.271 234.832V235.765C205.806 236.006 205.22 236.127 204.513 236.127ZM210.867 236.127C209.839 236.127 209.026 235.814 208.43 235.188C207.837 234.561 207.541 233.692 207.541 232.579C207.541 231.457 207.816 230.566 208.366 229.906C208.921 229.246 209.663 228.916 210.594 228.916C211.466 228.916 212.156 229.204 212.664 229.779C213.171 230.351 213.425 231.106 213.425 232.045V232.712H208.633C208.654 233.529 208.859 234.149 209.249 234.572C209.642 234.995 210.194 235.207 210.905 235.207C211.654 235.207 212.395 235.05 213.127 234.737V235.676C212.755 235.837 212.401 235.951 212.067 236.019C211.737 236.091 211.337 236.127 210.867 236.127ZM210.582 229.798C210.023 229.798 209.576 229.98 209.242 230.344C208.912 230.708 208.717 231.212 208.658 231.855H212.295C212.295 231.191 212.147 230.683 211.851 230.332C211.555 229.976 211.132 229.798 210.582 229.798ZM220.852 235.257C221.038 235.257 221.218 235.245 221.392 235.219C221.565 235.19 221.703 235.16 221.804 235.13V235.937C221.69 235.992 221.521 236.036 221.296 236.07C221.076 236.108 220.877 236.127 220.7 236.127C219.354 236.127 218.681 235.418 218.681 234V229.862H217.685V229.354L218.681 228.916L219.125 227.431H219.735V229.043H221.753V229.862H219.735V233.956C219.735 234.375 219.834 234.697 220.033 234.921C220.232 235.145 220.505 235.257 220.852 235.257ZM229.206 232.515C229.206 233.649 228.92 234.536 228.349 235.175C227.777 235.81 226.988 236.127 225.981 236.127C225.359 236.127 224.807 235.981 224.324 235.689C223.842 235.397 223.469 234.978 223.207 234.432C222.945 233.886 222.813 233.247 222.813 232.515C222.813 231.381 223.097 230.499 223.664 229.868C224.231 229.233 225.018 228.916 226.025 228.916C226.999 228.916 227.771 229.24 228.342 229.887C228.918 230.535 229.206 231.411 229.206 232.515ZM223.905 232.515C223.905 233.404 224.083 234.081 224.438 234.546C224.794 235.012 225.317 235.245 226.006 235.245C226.696 235.245 227.219 235.014 227.574 234.553C227.934 234.087 228.114 233.408 228.114 232.515C228.114 231.631 227.934 230.96 227.574 230.503C227.219 230.042 226.692 229.811 225.994 229.811C225.304 229.811 224.783 230.037 224.432 230.49C224.081 230.943 223.905 231.618 223.905 232.515ZM239.197 236V231.5C239.197 230.932 239.068 230.509 238.81 230.23C238.551 229.951 238.147 229.811 237.597 229.811C236.869 229.811 236.336 230.008 235.998 230.401C235.659 230.795 235.49 231.444 235.49 232.35V236H234.436V229.043H235.293L235.464 229.995H235.515C235.731 229.652 236.034 229.388 236.423 229.202C236.812 229.011 237.246 228.916 237.724 228.916C238.562 228.916 239.193 229.119 239.616 229.525C240.039 229.927 240.25 230.573 240.25 231.461V236H239.197ZM245.36 236.127C244.332 236.127 243.52 235.814 242.923 235.188C242.33 234.561 242.034 233.692 242.034 232.579C242.034 231.457 242.309 230.566 242.859 229.906C243.414 229.246 244.156 228.916 245.087 228.916C245.959 228.916 246.649 229.204 247.157 229.779C247.665 230.351 247.918 231.106 247.918 232.045V232.712H243.126C243.147 233.529 243.352 234.149 243.742 234.572C244.135 234.995 244.688 235.207 245.398 235.207C246.147 235.207 246.888 235.05 247.62 234.737V235.676C247.248 235.837 246.894 235.951 246.56 236.019C246.23 236.091 245.83 236.127 245.36 236.127ZM245.075 229.798C244.516 229.798 244.07 229.98 243.735 230.344C243.405 230.708 243.211 231.212 243.151 231.855H246.789C246.789 231.191 246.64 230.683 246.344 230.332C246.048 229.976 245.625 229.798 245.075 229.798ZM251.397 232.439L248.979 229.043H250.178L252.013 231.709L253.841 229.043H255.028L252.609 232.439L255.155 236H253.961L252.013 233.182L250.045 236H248.852L251.397 232.439ZM258.786 235.257C258.972 235.257 259.152 235.245 259.325 235.219C259.499 235.19 259.636 235.16 259.738 235.13V235.937C259.624 235.992 259.454 236.036 259.23 236.07C259.01 236.108 258.811 236.127 258.633 236.127C257.288 236.127 256.615 235.418 256.615 234V229.862H255.618V229.354L256.615 228.916L257.059 227.431H257.668V229.043H259.687V229.862H257.668V233.956C257.668 234.375 257.768 234.697 257.967 234.921C258.166 235.145 258.439 235.257 258.786 235.257ZM176.209 254H174.978L169.906 246.211H169.855C169.923 247.125 169.957 247.963 169.957 248.725V254H168.96V244.72H170.179L175.238 252.477H175.289C175.28 252.362 175.261 251.996 175.231 251.378C175.202 250.756 175.191 250.312 175.2 250.045V244.72H176.209V254ZM184.607 250.515C184.607 251.649 184.321 252.536 183.75 253.175C183.179 253.81 182.389 254.127 181.382 254.127C180.76 254.127 180.208 253.981 179.726 253.689C179.243 253.397 178.871 252.978 178.608 252.432C178.346 251.886 178.215 251.247 178.215 250.515C178.215 249.381 178.498 248.499 179.065 247.868C179.632 247.233 180.42 246.916 181.427 246.916C182.4 246.916 183.172 247.24 183.744 247.887C184.319 248.535 184.607 249.411 184.607 250.515ZM179.307 250.515C179.307 251.404 179.484 252.081 179.84 252.546C180.195 253.012 180.718 253.245 181.408 253.245C182.097 253.245 182.62 253.014 182.976 252.553C183.335 252.087 183.515 251.408 183.515 250.515C183.515 249.631 183.335 248.96 182.976 248.503C182.62 248.042 182.093 247.811 181.395 247.811C180.705 247.811 180.185 248.037 179.833 248.49C179.482 248.943 179.307 249.618 179.307 250.515ZM191.196 253.067H191.139C190.652 253.774 189.924 254.127 188.955 254.127C188.045 254.127 187.336 253.816 186.829 253.194C186.325 252.572 186.073 251.687 186.073 250.541C186.073 249.394 186.327 248.503 186.835 247.868C187.343 247.233 188.049 246.916 188.955 246.916C189.899 246.916 190.622 247.259 191.126 247.944H191.208L191.164 247.443L191.139 246.954V244.123H192.192V254H191.335L191.196 253.067ZM189.088 253.245C189.808 253.245 190.328 253.05 190.65 252.661C190.976 252.267 191.139 251.634 191.139 250.763V250.541C191.139 249.555 190.974 248.852 190.644 248.433C190.318 248.01 189.795 247.798 189.076 247.798C188.458 247.798 187.984 248.04 187.654 248.522C187.328 249 187.165 249.677 187.165 250.553C187.165 251.442 187.328 252.113 187.654 252.565C187.98 253.018 188.458 253.245 189.088 253.245ZM197.372 254.127C196.344 254.127 195.531 253.814 194.935 253.188C194.342 252.561 194.046 251.692 194.046 250.579C194.046 249.457 194.321 248.566 194.871 247.906C195.425 247.246 196.168 246.916 197.099 246.916C197.971 246.916 198.661 247.204 199.168 247.779C199.676 248.351 199.93 249.106 199.93 250.045V250.712H195.138C195.159 251.529 195.364 252.149 195.753 252.572C196.147 252.995 196.699 253.207 197.41 253.207C198.159 253.207 198.9 253.05 199.632 252.737V253.676C199.259 253.837 198.906 253.951 198.572 254.019C198.242 254.091 197.842 254.127 197.372 254.127ZM197.086 247.798C196.528 247.798 196.081 247.98 195.747 248.344C195.417 248.708 195.222 249.212 195.163 249.855H198.8C198.8 249.191 198.652 248.683 198.356 248.332C198.06 247.976 197.637 247.798 197.086 247.798ZM202.837 252.489L202.933 252.635C202.823 253.058 202.664 253.549 202.457 254.108C202.249 254.671 202.033 255.193 201.809 255.676H201.016C201.13 255.236 201.255 254.692 201.39 254.044C201.53 253.397 201.627 252.879 201.682 252.489H202.837ZM216.58 254H214.079L210.042 246.979H209.985C210.065 248.219 210.105 249.104 210.105 249.633V254H208.347V244.72H210.829L214.86 251.67H214.904C214.841 250.464 214.809 249.612 214.809 249.112V244.72H216.58V254ZM223.797 254L223.537 253.092H223.436C223.228 253.422 222.934 253.678 222.553 253.86C222.172 254.038 221.739 254.127 221.252 254.127C220.418 254.127 219.79 253.905 219.367 253.46C218.944 253.012 218.732 252.369 218.732 251.531V246.903H220.668V251.048C220.668 251.56 220.759 251.945 220.941 252.204C221.123 252.458 221.413 252.584 221.811 252.584C222.352 252.584 222.744 252.405 222.985 252.045C223.226 251.681 223.347 251.08 223.347 250.242V246.903H225.283V254H223.797ZM229.25 254H227.314V244.123H229.25V254ZM233.224 254H231.288V244.123H233.224V254ZM239.793 254H238.74V247.043H239.793V254ZM238.651 245.158C238.651 244.917 238.71 244.741 238.829 244.631C238.947 244.517 239.095 244.459 239.273 244.459C239.442 244.459 239.588 244.517 239.711 244.631C239.834 244.745 239.895 244.921 239.895 245.158C239.895 245.395 239.834 245.572 239.711 245.691C239.588 245.805 239.442 245.862 239.273 245.862C239.095 245.862 238.947 245.805 238.829 245.691C238.71 245.572 238.651 245.395 238.651 245.158ZM245.164 247.862H243.393V254H242.339V247.862H241.095V247.386L242.339 247.005V246.618C242.339 244.908 243.086 244.053 244.58 244.053C244.948 244.053 245.379 244.127 245.875 244.275L245.602 245.12C245.195 244.988 244.848 244.923 244.561 244.923C244.163 244.923 243.869 245.056 243.678 245.323C243.488 245.585 243.393 246.008 243.393 246.592V247.043H245.164V247.862ZM154.932 271.257C155.118 271.257 155.298 271.245 155.471 271.219C155.645 271.19 155.782 271.16 155.884 271.13V271.937C155.77 271.992 155.6 272.036 155.376 272.07C155.156 272.108 154.957 272.127 154.779 272.127C153.434 272.127 152.761 271.418 152.761 270V265.862H151.764V265.354L152.761 264.916L153.205 263.431H153.814V265.043H155.833V265.862H153.814V269.956C153.814 270.375 153.914 270.697 154.113 270.921C154.312 271.145 154.585 271.257 154.932 271.257ZM162.041 272V267.5C162.041 266.932 161.912 266.509 161.654 266.23C161.396 265.951 160.992 265.811 160.441 265.811C159.709 265.811 159.174 266.01 158.835 266.408C158.501 266.806 158.334 267.457 158.334 268.363V272H157.28V262.123H158.334V265.113C158.334 265.472 158.317 265.771 158.283 266.008H158.347C158.554 265.674 158.848 265.411 159.229 265.221C159.614 265.026 160.052 264.929 160.543 264.929C161.394 264.929 162.03 265.132 162.454 265.538C162.881 265.94 163.095 266.581 163.095 267.461V272H162.041ZM168.205 272.127C167.176 272.127 166.364 271.814 165.767 271.188C165.175 270.561 164.878 269.692 164.878 268.579C164.878 267.457 165.153 266.566 165.704 265.906C166.258 265.246 167.001 264.916 167.932 264.916C168.803 264.916 169.493 265.204 170.001 265.779C170.509 266.351 170.763 267.106 170.763 268.045V268.712H165.97C165.991 269.529 166.197 270.149 166.586 270.572C166.979 270.995 167.532 271.207 168.243 271.207C168.992 271.207 169.732 271.05 170.464 270.737V271.676C170.092 271.837 169.739 271.951 169.404 272.019C169.074 272.091 168.674 272.127 168.205 272.127ZM167.919 265.798C167.36 265.798 166.914 265.98 166.58 266.344C166.25 266.708 166.055 267.212 165.996 267.855H169.633C169.633 267.191 169.485 266.683 169.188 266.332C168.892 265.976 168.469 265.798 167.919 265.798ZM175.739 264.916C176.048 264.916 176.325 264.941 176.571 264.992L176.425 265.97C176.137 265.906 175.883 265.875 175.663 265.875C175.1 265.875 174.618 266.103 174.216 266.56C173.818 267.017 173.619 267.586 173.619 268.268V272H172.565V265.043H173.435L173.556 266.332H173.606C173.865 265.879 174.176 265.53 174.54 265.284C174.903 265.039 175.303 264.916 175.739 264.916ZM180.811 272.127C179.783 272.127 178.97 271.814 178.374 271.188C177.781 270.561 177.485 269.692 177.485 268.579C177.485 267.457 177.76 266.566 178.31 265.906C178.864 265.246 179.607 264.916 180.538 264.916C181.41 264.916 182.1 265.204 182.607 265.779C183.115 266.351 183.369 267.106 183.369 268.045V268.712H178.577C178.598 269.529 178.803 270.149 179.192 270.572C179.586 270.995 180.138 271.207 180.849 271.207C181.598 271.207 182.339 271.05 183.071 270.737V271.676C182.698 271.837 182.345 271.951 182.011 272.019C181.681 272.091 181.281 272.127 180.811 272.127ZM180.525 265.798C179.967 265.798 179.52 265.98 179.186 266.344C178.856 266.708 178.661 267.212 178.602 267.855H182.239C182.239 267.191 182.091 266.683 181.795 266.332C181.499 265.976 181.076 265.798 180.525 265.798ZM189.603 272H188.549V265.043H189.603V272ZM188.46 263.158C188.46 262.917 188.519 262.741 188.638 262.631C188.756 262.517 188.904 262.459 189.082 262.459C189.251 262.459 189.397 262.517 189.52 262.631C189.643 262.745 189.704 262.921 189.704 263.158C189.704 263.395 189.643 263.572 189.52 263.691C189.397 263.805 189.251 263.862 189.082 263.862C188.904 263.862 188.756 263.805 188.638 263.691C188.519 263.572 188.46 263.395 188.46 263.158ZM196.325 270.102C196.325 270.75 196.083 271.249 195.601 271.6C195.119 271.951 194.442 272.127 193.57 272.127C192.647 272.127 191.928 271.981 191.412 271.689V270.711C191.746 270.881 192.104 271.014 192.484 271.111C192.869 271.209 193.24 271.257 193.595 271.257C194.145 271.257 194.569 271.171 194.865 270.997C195.161 270.819 195.309 270.551 195.309 270.191C195.309 269.92 195.191 269.689 194.954 269.499C194.721 269.304 194.264 269.076 193.583 268.813C192.935 268.572 192.474 268.363 192.199 268.185C191.928 268.003 191.725 267.798 191.589 267.569C191.458 267.341 191.393 267.068 191.393 266.75C191.393 266.183 191.623 265.737 192.084 265.411C192.546 265.081 193.178 264.916 193.982 264.916C194.731 264.916 195.464 265.068 196.179 265.373L195.804 266.23C195.106 265.942 194.473 265.798 193.906 265.798C193.407 265.798 193.03 265.877 192.776 266.033C192.522 266.19 192.396 266.406 192.396 266.681C192.396 266.867 192.442 267.026 192.535 267.157C192.632 267.288 192.787 267.413 192.999 267.531C193.21 267.65 193.616 267.821 194.217 268.045C195.042 268.346 195.599 268.648 195.887 268.953C196.179 269.258 196.325 269.641 196.325 270.102ZM206.183 272V267.5C206.183 266.932 206.054 266.509 205.795 266.23C205.537 265.951 205.133 265.811 204.583 265.811C203.855 265.811 203.322 266.008 202.983 266.401C202.645 266.795 202.476 267.444 202.476 268.35V272H201.422V265.043H202.279L202.45 265.995H202.501C202.717 265.652 203.019 265.388 203.409 265.202C203.798 265.011 204.232 264.916 204.71 264.916C205.548 264.916 206.178 265.119 206.602 265.525C207.025 265.927 207.236 266.573 207.236 267.461V272H206.183ZM215.412 268.515C215.412 269.649 215.126 270.536 214.555 271.175C213.984 271.81 213.195 272.127 212.188 272.127C211.565 272.127 211.013 271.981 210.531 271.689C210.048 271.397 209.676 270.978 209.414 270.432C209.151 269.886 209.02 269.247 209.02 268.515C209.02 267.381 209.304 266.499 209.871 265.868C210.438 265.233 211.225 264.916 212.232 264.916C213.205 264.916 213.978 265.24 214.549 265.887C215.124 266.535 215.412 267.411 215.412 268.515ZM210.112 268.515C210.112 269.404 210.29 270.081 210.645 270.546C211 271.012 211.523 271.245 212.213 271.245C212.903 271.245 213.425 271.014 213.781 270.553C214.14 270.087 214.32 269.408 214.32 268.515C214.32 267.631 214.14 266.96 213.781 266.503C213.425 266.042 212.898 265.811 212.2 265.811C211.51 265.811 210.99 266.037 210.639 266.49C210.287 266.943 210.112 267.618 210.112 268.515ZM219.513 271.257C219.699 271.257 219.879 271.245 220.052 271.219C220.226 271.19 220.363 271.16 220.465 271.13V271.937C220.351 271.992 220.181 272.036 219.957 272.07C219.737 272.108 219.538 272.127 219.36 272.127C218.015 272.127 217.342 271.418 217.342 270V265.862H216.345V265.354L217.342 264.916L217.786 263.431H218.396V265.043H220.414V265.862H218.396V269.956C218.396 270.375 218.495 270.697 218.694 270.921C218.893 271.145 219.166 271.257 219.513 271.257ZM229.517 272L229.307 271.01H229.256C228.909 271.446 228.562 271.742 228.215 271.898C227.873 272.051 227.443 272.127 226.927 272.127C226.237 272.127 225.695 271.949 225.302 271.594C224.912 271.238 224.718 270.733 224.718 270.077C224.718 268.672 225.841 267.935 228.088 267.868L229.269 267.83V267.398C229.269 266.852 229.151 266.45 228.914 266.192C228.681 265.93 228.306 265.798 227.79 265.798C227.21 265.798 226.554 265.976 225.822 266.332L225.499 265.525C225.841 265.339 226.216 265.193 226.622 265.087C227.033 264.982 227.443 264.929 227.854 264.929C228.683 264.929 229.297 265.113 229.694 265.481C230.096 265.849 230.297 266.439 230.297 267.252V272H229.517ZM227.136 271.257C227.792 271.257 228.306 271.077 228.679 270.718C229.055 270.358 229.244 269.854 229.244 269.207V268.579L228.19 268.623C227.352 268.653 226.747 268.784 226.375 269.017C226.006 269.245 225.822 269.603 225.822 270.089C225.822 270.47 225.937 270.76 226.165 270.959C226.398 271.158 226.722 271.257 227.136 271.257ZM240.612 272V267.5C240.612 266.932 240.483 266.509 240.225 266.23C239.967 265.951 239.563 265.811 239.013 265.811C238.285 265.811 237.752 266.008 237.413 266.401C237.075 266.795 236.905 267.444 236.905 268.35V272H235.852V265.043H236.708L236.88 265.995H236.931C237.146 265.652 237.449 265.388 237.838 265.202C238.228 265.011 238.661 264.916 239.14 264.916C239.978 264.916 240.608 265.119 241.031 265.525C241.454 265.927 241.666 266.573 241.666 267.461V272H240.612ZM246.776 272.127C245.748 272.127 244.935 271.814 244.338 271.188C243.746 270.561 243.45 269.692 243.45 268.579C243.45 267.457 243.725 266.566 244.275 265.906C244.829 265.246 245.572 264.916 246.503 264.916C247.375 264.916 248.064 265.204 248.572 265.779C249.08 266.351 249.334 267.106 249.334 268.045V268.712H244.542C244.563 269.529 244.768 270.149 245.157 270.572C245.551 270.995 246.103 271.207 246.814 271.207C247.563 271.207 248.304 271.05 249.036 270.737V271.676C248.663 271.837 248.31 271.951 247.976 272.019C247.646 272.091 247.246 272.127 246.776 272.127ZM246.49 265.798C245.932 265.798 245.485 265.98 245.151 266.344C244.821 266.708 244.626 267.212 244.567 267.855H248.204C248.204 267.191 248.056 266.683 247.76 266.332C247.464 265.976 247.04 265.798 246.49 265.798ZM252.812 268.439L250.394 265.043H251.594L253.428 267.709L255.256 265.043H256.443L254.025 268.439L256.57 272H255.377L253.428 269.182L251.46 272H250.267L252.812 268.439ZM260.201 271.257C260.387 271.257 260.567 271.245 260.741 271.219C260.914 271.19 261.052 271.16 261.153 271.13V271.937C261.039 271.992 260.87 272.036 260.646 272.07C260.425 272.108 260.227 272.127 260.049 272.127C258.703 272.127 258.03 271.418 258.03 270V265.862H257.034V265.354L258.03 264.916L258.475 263.431H259.084V265.043H261.103V265.862H259.084V269.956C259.084 270.375 259.183 270.697 259.382 270.921C259.581 271.145 259.854 271.257 260.201 271.257ZM196.82 290V285.5C196.82 284.932 196.691 284.509 196.433 284.23C196.174 283.951 195.77 283.811 195.22 283.811C194.492 283.811 193.959 284.008 193.621 284.401C193.282 284.795 193.113 285.444 193.113 286.35V290H192.059V283.043H192.916L193.087 283.995H193.138C193.354 283.652 193.657 283.388 194.046 283.202C194.435 283.011 194.869 282.916 195.347 282.916C196.185 282.916 196.816 283.119 197.239 283.525C197.662 283.927 197.874 284.573 197.874 285.461V290H196.82ZM206.049 286.515C206.049 287.649 205.764 288.536 205.192 289.175C204.621 289.81 203.832 290.127 202.825 290.127C202.203 290.127 201.65 289.981 201.168 289.689C200.686 289.397 200.313 288.978 200.051 288.432C199.788 287.886 199.657 287.247 199.657 286.515C199.657 285.381 199.941 284.499 200.508 283.868C201.075 283.233 201.862 282.916 202.869 282.916C203.842 282.916 204.615 283.24 205.186 283.887C205.762 284.535 206.049 285.411 206.049 286.515ZM200.749 286.515C200.749 287.404 200.927 288.081 201.282 288.546C201.638 289.012 202.16 289.245 202.85 289.245C203.54 289.245 204.062 289.014 204.418 288.553C204.778 288.087 204.958 287.408 204.958 286.515C204.958 285.631 204.778 284.96 204.418 284.503C204.062 284.042 203.536 283.811 202.837 283.811C202.148 283.811 201.627 284.037 201.276 284.49C200.925 284.943 200.749 285.618 200.749 286.515ZM212.638 289.067H212.581C212.094 289.774 211.367 290.127 210.397 290.127C209.488 290.127 208.779 289.816 208.271 289.194C207.767 288.572 207.516 287.687 207.516 286.541C207.516 285.394 207.77 284.503 208.277 283.868C208.785 283.233 209.492 282.916 210.397 282.916C211.341 282.916 212.065 283.259 212.568 283.944H212.651L212.606 283.443L212.581 282.954V280.123H213.635V290H212.778L212.638 289.067ZM210.531 289.245C211.25 289.245 211.771 289.05 212.092 288.661C212.418 288.267 212.581 287.634 212.581 286.763V286.541C212.581 285.555 212.416 284.852 212.086 284.433C211.76 284.01 211.237 283.798 210.518 283.798C209.9 283.798 209.426 284.04 209.096 284.522C208.77 285 208.607 285.677 208.607 286.553C208.607 287.442 208.77 288.113 209.096 288.565C209.422 289.018 209.9 289.245 210.531 289.245ZM218.814 290.127C217.786 290.127 216.974 289.814 216.377 289.188C215.785 288.561 215.488 287.692 215.488 286.579C215.488 285.457 215.763 284.566 216.313 283.906C216.868 283.246 217.611 282.916 218.542 282.916C219.413 282.916 220.103 283.204 220.611 283.779C221.119 284.351 221.373 285.106 221.373 286.045V286.712H216.58C216.601 287.529 216.806 288.149 217.196 288.572C217.589 288.995 218.142 289.207 218.853 289.207C219.602 289.207 220.342 289.05 221.074 288.737V289.676C220.702 289.837 220.348 289.951 220.014 290.019C219.684 290.091 219.284 290.127 218.814 290.127ZM218.529 283.798C217.97 283.798 217.524 283.98 217.189 284.344C216.859 284.708 216.665 285.212 216.605 285.855H220.243C220.243 285.191 220.095 284.683 219.798 284.332C219.502 283.976 219.079 283.798 218.529 283.798Z" fill="#001421" fill-opacity="0.62"/>
<path d="M67.7666 19V6.15039H69.2607V17.6465H74.9297V19H67.7666ZM78.3574 19H76.8984V9.36719H78.3574V19ZM76.7754 6.75684C76.7754 6.42285 76.8574 6.17969 77.0215 6.02734C77.1855 5.86914 77.3906 5.79004 77.6367 5.79004C77.8711 5.79004 78.0732 5.86914 78.2432 6.02734C78.4131 6.18555 78.498 6.42871 78.498 6.75684C78.498 7.08496 78.4131 7.33105 78.2432 7.49512C78.0732 7.65332 77.8711 7.73242 77.6367 7.73242C77.3906 7.73242 77.1855 7.65332 77.0215 7.49512C76.8574 7.33105 76.7754 7.08496 76.7754 6.75684ZM88.043 19V12.7686C88.043 11.9834 87.8643 11.3975 87.5068 11.0107C87.1494 10.624 86.5898 10.4307 85.8281 10.4307C84.8203 10.4307 84.082 10.7031 83.6133 11.248C83.1445 11.793 82.9102 12.6924 82.9102 13.9463V19H81.4512V9.36719H82.6377L82.875 10.6855H82.9453C83.2441 10.2109 83.6631 9.84473 84.2021 9.58691C84.7412 9.32324 85.3418 9.19141 86.0039 9.19141C87.1641 9.19141 88.0371 9.47266 88.623 10.0352C89.209 10.5918 89.502 11.4854 89.502 12.7158V19H88.043ZM93.9492 14.0693C94.2012 13.7119 94.585 13.2432 95.1006 12.6631L98.2119 9.36719H99.9434L96.041 13.4717L100.216 19H98.4492L95.0479 14.4473L93.9492 15.3965V19H92.5078V5.32422H93.9492V12.5752C93.9492 12.8975 93.9258 13.3955 93.8789 14.0693H93.9492ZM106.034 19.1758C104.61 19.1758 103.485 18.7422 102.659 17.875C101.839 17.0078 101.429 15.8037 101.429 14.2627C101.429 12.71 101.81 11.4766 102.571 10.5625C103.339 9.64844 104.367 9.19141 105.656 9.19141C106.863 9.19141 107.818 9.58984 108.521 10.3867C109.225 11.1777 109.576 12.2236 109.576 13.5244V14.4473H102.94C102.97 15.5781 103.254 16.4365 103.793 17.0225C104.338 17.6084 105.103 17.9014 106.087 17.9014C107.124 17.9014 108.149 17.6846 109.163 17.251V18.5518C108.647 18.7744 108.158 18.9326 107.695 19.0264C107.238 19.126 106.685 19.1758 106.034 19.1758ZM105.639 10.4131C104.865 10.4131 104.247 10.665 103.784 11.1689C103.327 11.6729 103.058 12.3701 102.976 13.2607H108.012C108.012 12.3408 107.807 11.6377 107.396 11.1514C106.986 10.6592 106.4 10.4131 105.639 10.4131ZM118.629 17.708H118.55C117.876 18.6865 116.868 19.1758 115.526 19.1758C114.267 19.1758 113.285 18.7451 112.582 17.8838C111.885 17.0225 111.536 15.7979 111.536 14.21C111.536 12.6221 111.888 11.3887 112.591 10.5098C113.294 9.63086 114.272 9.19141 115.526 9.19141C116.833 9.19141 117.835 9.66602 118.532 10.6152H118.646L118.585 9.9209L118.55 9.24414V5.32422H120.009V19H118.822L118.629 17.708ZM115.711 17.9541C116.707 17.9541 117.428 17.6846 117.873 17.1455C118.324 16.6006 118.55 15.7246 118.55 14.5176V14.21C118.55 12.8447 118.321 11.8721 117.864 11.292C117.413 10.7061 116.689 10.4131 115.693 10.4131C114.838 10.4131 114.182 10.7471 113.725 11.415C113.273 12.0771 113.048 13.0146 113.048 14.2275C113.048 15.458 113.273 16.3867 113.725 17.0137C114.176 17.6406 114.838 17.9541 115.711 17.9541ZM128.007 19V6.15039H129.501V17.6465H135.17V19H128.007ZM138.598 19H137.139V9.36719H138.598V19ZM137.016 6.75684C137.016 6.42285 137.098 6.17969 137.262 6.02734C137.426 5.86914 137.631 5.79004 137.877 5.79004C138.111 5.79004 138.313 5.86914 138.483 6.02734C138.653 6.18555 138.738 6.42871 138.738 6.75684C138.738 7.08496 138.653 7.33105 138.483 7.49512C138.313 7.65332 138.111 7.73242 137.877 7.73242C137.631 7.73242 137.426 7.65332 137.262 7.49512C137.098 7.33105 137.016 7.08496 137.016 6.75684ZM147.905 16.3721C147.905 17.2686 147.571 17.96 146.903 18.4463C146.235 18.9326 145.298 19.1758 144.091 19.1758C142.813 19.1758 141.817 18.9736 141.103 18.5693V17.2158C141.565 17.4502 142.061 17.6348 142.588 17.7695C143.121 17.9043 143.634 17.9717 144.126 17.9717C144.888 17.9717 145.474 17.8516 145.884 17.6113C146.294 17.3652 146.499 16.9932 146.499 16.4951C146.499 16.1201 146.335 15.8008 146.007 15.5371C145.685 15.2676 145.052 14.9512 144.108 14.5879C143.212 14.2539 142.573 13.9639 142.192 13.7178C141.817 13.4658 141.536 13.1816 141.349 12.8652C141.167 12.5488 141.076 12.1709 141.076 11.7314C141.076 10.9463 141.396 10.3281 142.034 9.87695C142.673 9.41992 143.549 9.19141 144.662 9.19141C145.699 9.19141 146.713 9.40234 147.703 9.82422L147.185 11.0107C146.218 10.6123 145.342 10.4131 144.557 10.4131C143.865 10.4131 143.344 10.5215 142.992 10.7383C142.641 10.9551 142.465 11.2539 142.465 11.6348C142.465 11.8926 142.529 12.1123 142.658 12.2939C142.793 12.4756 143.007 12.6484 143.3 12.8125C143.593 12.9766 144.155 13.2139 144.987 13.5244C146.13 13.9404 146.9 14.3594 147.299 14.7812C147.703 15.2031 147.905 15.7334 147.905 16.3721ZM153.398 17.9717C153.656 17.9717 153.905 17.9541 154.146 17.9189C154.386 17.8779 154.576 17.8369 154.717 17.7959V18.9121C154.559 18.9883 154.324 19.0498 154.014 19.0967C153.709 19.1494 153.434 19.1758 153.188 19.1758C151.324 19.1758 150.393 18.1943 150.393 16.2314V10.501H149.013V9.79785L150.393 9.19141L151.008 7.13477H151.852V9.36719H154.646V10.501H151.852V16.1699C151.852 16.75 151.989 17.1953 152.265 17.5059C152.54 17.8164 152.918 17.9717 153.398 17.9717ZM171.583 19H169.878L162.855 8.21582H162.785C162.879 9.48145 162.926 10.6416 162.926 11.6963V19H161.546V6.15039H163.233L170.238 16.8906H170.309C170.297 16.7324 170.271 16.2256 170.229 15.3701C170.188 14.5088 170.174 13.8936 170.186 13.5244V6.15039H171.583V19ZM183.211 14.1748C183.211 15.7451 182.815 16.9727 182.024 17.8574C181.233 18.7363 180.141 19.1758 178.746 19.1758C177.885 19.1758 177.12 18.9736 176.452 18.5693C175.784 18.165 175.269 17.585 174.905 16.8291C174.542 16.0732 174.36 15.1885 174.36 14.1748C174.36 12.6045 174.753 11.3828 175.538 10.5098C176.323 9.63086 177.413 9.19141 178.808 9.19141C180.155 9.19141 181.225 9.63965 182.016 10.5361C182.812 11.4326 183.211 12.6455 183.211 14.1748ZM175.872 14.1748C175.872 15.4053 176.118 16.3428 176.61 16.9873C177.103 17.6318 177.826 17.9541 178.781 17.9541C179.736 17.9541 180.46 17.6348 180.952 16.9961C181.45 16.3516 181.699 15.4111 181.699 14.1748C181.699 12.9502 181.45 12.0215 180.952 11.3887C180.46 10.75 179.73 10.4307 178.764 10.4307C177.809 10.4307 177.088 10.7441 176.602 11.3711C176.115 11.998 175.872 12.9326 175.872 14.1748ZM192.334 17.708H192.255C191.581 18.6865 190.573 19.1758 189.231 19.1758C187.972 19.1758 186.99 18.7451 186.287 17.8838C185.59 17.0225 185.241 15.7979 185.241 14.21C185.241 12.6221 185.593 11.3887 186.296 10.5098C186.999 9.63086 187.978 9.19141 189.231 9.19141C190.538 9.19141 191.54 9.66602 192.237 10.6152H192.352L192.29 9.9209L192.255 9.24414V5.32422H193.714V19H192.527L192.334 17.708ZM189.416 17.9541C190.412 17.9541 191.133 17.6846 191.578 17.1455C192.029 16.6006 192.255 15.7246 192.255 14.5176V14.21C192.255 12.8447 192.026 11.8721 191.569 11.292C191.118 10.7061 190.395 10.4131 189.398 10.4131C188.543 10.4131 187.887 10.7471 187.43 11.415C186.979 12.0771 186.753 13.0146 186.753 14.2275C186.753 15.458 186.979 16.3867 187.43 17.0137C187.881 17.6406 188.543 17.9541 189.416 17.9541ZM200.886 19.1758C199.462 19.1758 198.337 18.7422 197.511 17.875C196.69 17.0078 196.28 15.8037 196.28 14.2627C196.28 12.71 196.661 11.4766 197.423 10.5625C198.19 9.64844 199.219 9.19141 200.508 9.19141C201.715 9.19141 202.67 9.58984 203.373 10.3867C204.076 11.1777 204.428 12.2236 204.428 13.5244V14.4473H197.792C197.821 15.5781 198.105 16.4365 198.645 17.0225C199.189 17.6084 199.954 17.9014 200.938 17.9014C201.976 17.9014 203.001 17.6846 204.015 17.251V18.5518C203.499 18.7744 203.01 18.9326 202.547 19.0264C202.09 19.126 201.536 19.1758 200.886 19.1758ZM200.49 10.4131C199.717 10.4131 199.099 10.665 198.636 11.1689C198.179 11.6729 197.909 12.3701 197.827 13.2607H202.863C202.863 12.3408 202.658 11.6377 202.248 11.1514C201.838 10.6592 201.252 10.4131 200.49 10.4131Z" fill="black"/>
<circle cx="65.5" cy="145.5" r="6.5" transform="rotate(90 65.5 145.5)" fill="#001421"/>
<path d="M64.6464 216.354C64.8417 216.549 65.1583 216.549 65.3536 216.354L68.5355 213.172C68.7308 212.976 68.7308 212.66 68.5355 212.464C68.3403 212.269 68.0237 212.269 67.8284 212.464L65 215.293L62.1716 212.464C61.9763 212.269 61.6597 212.269 61.4645 212.464C61.2692 212.66 61.2692 212.976 61.4645 213.172L64.6464 216.354ZM64.5 146L64.5 147.458L65.5 147.458L65.5 146L64.5 146ZM64.5 150.375L64.5 153.292L65.5 153.292L65.5 150.375L64.5 150.375ZM64.5 156.208L64.5 159.125L65.5 159.125L65.5 156.208L64.5 156.208ZM64.5 162.042L64.5 164.958L65.5 164.958L65.5 162.042L64.5 162.042ZM64.5 167.875L64.5 170.792L65.5 170.792L65.5 167.875L64.5 167.875ZM64.5 173.708L64.5 176.625L65.5 176.625L65.5 173.708L64.5 173.708ZM64.5 179.542L64.5 182.458L65.5 182.458L65.5 179.542L64.5 179.542ZM64.5 185.375L64.5 188.292L65.5 188.292L65.5 185.375L64.5 185.375ZM64.5 191.208L64.5 194.125L65.5 194.125L65.5 191.208L64.5 191.208ZM64.5 197.042L64.5 199.958L65.5 199.958L65.5 197.042L64.5 197.042ZM64.5 202.875L64.5 205.792L65.5 205.792L65.5 202.875L64.5 202.875ZM64.5 208.708L64.5 211.625L65.5 211.625L65.5 208.708L64.5 208.708ZM64.5 214.542L64.5 216L65.5 216L65.5 214.542L64.5 214.542ZM64.2929 216.707C64.6834 217.098 65.3166 217.098 65.7071 216.707L72.0711 210.343C72.4616 209.953 72.4616 209.319 72.0711 208.929C71.6805 208.538 71.0474 208.538 70.6569 208.929L65 214.586L59.3431 208.929C58.9526 208.538 58.3195 208.538 57.9289 208.929C57.5384 209.319 57.5384 209.953 57.9289 210.343L64.2929 216.707ZM64 146L64 147.458L66 147.458L66 146L64 146ZM64 150.375L64 153.292L66 153.292L66 150.375L64 150.375ZM64 156.208L64 159.125L66 159.125L66 156.208L64 156.208ZM64 162.042L64 164.958L66 164.958L66 162.042L64 162.042ZM64 167.875L64 170.792L66 170.792L66 167.875L64 167.875ZM64 173.708L64 176.625L66 176.625L66 173.708L64 173.708ZM64 179.542L64 182.458L66 182.458L66 179.542L64 179.542ZM64 185.375L64 188.292L66 188.292L66 185.375L64 185.375ZM64 191.208L64 194.125L66 194.125L66 191.208L64 191.208ZM64 197.042L64 199.958L66 199.958L66 197.042L64 197.042ZM64 202.875L64 205.792L66 205.792L66 202.875L64 202.875ZM64 208.708L64 211.625L66 211.625L66 208.708L64 208.708ZM64 214.542L64 216L66 216L66 214.542L64 214.542Z" fill="#001421"/>
<circle cx="205.5" cy="145.5" r="6.5" transform="rotate(90 205.5 145.5)" fill="#001421"/>
<path d="M204.646 216.354C204.842 216.549 205.158 216.549 205.354 216.354L208.536 213.172C208.731 212.976 208.731 212.66 208.536 212.464C208.34 212.269 208.024 212.269 207.828 212.464L205 215.293L202.172 212.464C201.976 212.269 201.66 212.269 201.464 212.464C201.269 212.66 201.269 212.976 201.464 213.172L204.646 216.354ZM204.5 146L204.5 147.458L205.5 147.458L205.5 146L204.5 146ZM204.5 150.375L204.5 153.292L205.5 153.292L205.5 150.375L204.5 150.375ZM204.5 156.208L204.5 159.125L205.5 159.125L205.5 156.208L204.5 156.208ZM204.5 162.042L204.5 164.958L205.5 164.958L205.5 162.042L204.5 162.042ZM204.5 167.875L204.5 170.792L205.5 170.792L205.5 167.875L204.5 167.875ZM204.5 173.708L204.5 176.625L205.5 176.625L205.5 173.708L204.5 173.708ZM204.5 179.542L204.5 182.458L205.5 182.458L205.5 179.542L204.5 179.542ZM204.5 185.375L204.5 188.292L205.5 188.292L205.5 185.375L204.5 185.375ZM204.5 191.208L204.5 194.125L205.5 194.125L205.5 191.208L204.5 191.208ZM204.5 197.042L204.5 199.958L205.5 199.958L205.5 197.042L204.5 197.042ZM204.5 202.875L204.5 205.792L205.5 205.792L205.5 202.875L204.5 202.875ZM204.5 208.708L204.5 211.625L205.5 211.625L205.5 208.708L204.5 208.708ZM204.5 214.542L204.5 216L205.5 216L205.5 214.542L204.5 214.542ZM204.293 216.707C204.683 217.098 205.317 217.098 205.707 216.707L212.071 210.343C212.462 209.953 212.462 209.319 212.071 208.929C211.681 208.538 211.047 208.538 210.657 208.929L205 214.586L199.343 208.929C198.953 208.538 198.319 208.538 197.929 208.929C197.538 209.319 197.538 209.953 197.929 210.343L204.293 216.707ZM204 146L204 147.458L206 147.458L206 146L204 146ZM204 150.375L204 153.292L206 153.292L206 150.375L204 150.375ZM204 156.208L204 159.125L206 159.125L206 156.208L204 156.208ZM204 162.042L204 164.958L206 164.958L206 162.042L204 162.042ZM204 167.875L204 170.792L206 170.792L206 167.875L204 167.875ZM204 173.708L204 176.625L206 176.625L206 173.708L204 173.708ZM204 179.542L204 182.458L206 182.458L206 179.542L204 179.542ZM204 185.375L204 188.292L206 188.292L206 185.375L204 185.375ZM204 191.208L204 194.125L206 194.125L206 191.208L204 191.208ZM204 197.042L204 199.958L206 199.958L206 197.042L204 197.042ZM204 202.875L204 205.792L206 205.792L206 202.875L204 202.875ZM204 208.708L204 211.625L206 211.625L206 208.708L204 208.708ZM204 214.542L204 216L206 216L206 214.542L204 214.542Z" fill="#001421"/>
</svg>
