<svg width="616" height="580" viewBox="0 0 616 580" fill="none" xmlns="http://www.w3.org/2000/svg">
<circle cx="120.5" cy="482.5" r="4.5" fill="#C4C4C4"/>
<circle cx="158.5" cy="370.5" r="4.5" fill="#C4C4C4"/>
<circle cx="196.5" cy="185.5" r="4.5" fill="#C4C4C4"/>
<line x1="122" y1="513" x2="122" y2="482" stroke="#C5C5C5" stroke-width="2" stroke-dasharray="4 4"/>
<line x1="196" y1="520" x2="196" y2="187" stroke="#D1D1D1" stroke-width="2" stroke-dasharray="4 4"/>
<line x1="159" y1="524.013" x2="156.96" y2="371.014" stroke="#D1D1D1" stroke-width="2" stroke-dasharray="4 4"/>
<line x1="78" y1="481" x2="123" y2="481" stroke="#C5C5C5" stroke-width="2" stroke-dasharray="4 4"/>
<line x1="91" y1="185" x2="197" y2="185" stroke="#D1D1D1" stroke-width="2" stroke-dasharray="4 4"/>
<line x1="78" y1="370" x2="158" y2="370" stroke="#D1D1D1" stroke-width="2" stroke-dasharray="4 4"/>
<line x1="85" y1="15" x2="85" y2="518" stroke="#001421" stroke-width="2"/>
<line x1="587" y1="519" x2="84" y2="519" stroke="#001421" stroke-width="2"/>
<path d="M21.8848 263.395H19.1426V271H18.0234V263.395H15.2871V262.469H21.8848V263.395ZM24.1582 271H23.0742V264.66H24.1582V271ZM22.9863 262.979C22.9863 262.803 23.0391 262.654 23.1445 262.533C23.2539 262.412 23.4141 262.352 23.625 262.352C23.8359 262.352 23.9961 262.412 24.1055 262.533C24.2148 262.654 24.2695 262.803 24.2695 262.979C24.2695 263.154 24.2148 263.301 24.1055 263.418C23.9961 263.535 23.8359 263.594 23.625 263.594C23.4141 263.594 23.2539 263.535 23.1445 263.418C23.0391 263.301 22.9863 263.154 22.9863 262.979ZM26.918 264.66L26.9473 265.363C27.4121 264.816 28.0391 264.543 28.8281 264.543C29.7148 264.543 30.3184 264.883 30.6387 265.562C30.8496 265.258 31.123 265.012 31.459 264.824C31.7988 264.637 32.1992 264.543 32.6602 264.543C34.0508 264.543 34.7578 265.279 34.7812 266.752V271H33.6973V266.816C33.6973 266.363 33.5938 266.025 33.3867 265.803C33.1797 265.576 32.832 265.463 32.3438 265.463C31.9414 265.463 31.6074 265.584 31.3418 265.826C31.0762 266.064 30.9219 266.387 30.8789 266.793V271H29.7891V266.846C29.7891 265.924 29.3379 265.463 28.4355 265.463C27.7246 265.463 27.2383 265.766 26.9766 266.371V271H25.8926V264.66H26.918ZM39.0527 271.117C38.1934 271.117 37.4941 270.836 36.9551 270.273C36.416 269.707 36.1465 268.951 36.1465 268.006V267.807C36.1465 267.178 36.2656 266.617 36.5039 266.125C36.7461 265.629 37.082 265.242 37.5117 264.965C37.9453 264.684 38.4141 264.543 38.918 264.543C39.7422 264.543 40.3828 264.814 40.8398 265.357C41.2969 265.9 41.5254 266.678 41.5254 267.689V268.141H37.2305C37.2461 268.766 37.4277 269.271 37.7754 269.658C38.127 270.041 38.5723 270.232 39.1113 270.232C39.4941 270.232 39.8184 270.154 40.084 269.998C40.3496 269.842 40.582 269.635 40.7812 269.377L41.4434 269.893C40.9121 270.709 40.1152 271.117 39.0527 271.117ZM38.918 265.434C38.4805 265.434 38.1133 265.594 37.8164 265.914C37.5195 266.23 37.3359 266.676 37.2656 267.25H40.4414V267.168C40.4102 266.617 40.2617 266.191 39.9961 265.891C39.7305 265.586 39.3711 265.434 38.918 265.434Z" fill="black"/>
<line x1="78" y1="481" x2="91" y2="481" stroke="black" stroke-width="2"/>
<line x1="78" y1="444" x2="91" y2="444" stroke="black" stroke-width="2"/>
<line x1="78" y1="407" x2="91" y2="407" stroke="black" stroke-width="2"/>
<line x1="78" y1="370" x2="91" y2="370" stroke="black" stroke-width="2"/>
<line x1="78" y1="333" x2="91" y2="333" stroke="black" stroke-width="2"/>
<line x1="78" y1="296" x2="91" y2="296" stroke="black" stroke-width="2"/>
<line x1="78" y1="259" x2="91" y2="259" stroke="black" stroke-width="2"/>
<line x1="78" y1="222" x2="91" y2="222" stroke="black" stroke-width="2"/>
<line x1="78" y1="185" x2="91" y2="185" stroke="black" stroke-width="2"/>
<line x1="78" y1="148" x2="91" y2="148" stroke="black" stroke-width="2"/>
<line x1="78" y1="110" x2="91" y2="110" stroke="black" stroke-width="2"/>
<line x1="78" y1="73" x2="91" y2="73" stroke="black" stroke-width="2"/>
<line x1="78" y1="35" x2="91" y2="35" stroke="black" stroke-width="2"/>
<line x1="122" y1="513" x2="122" y2="526" stroke="black" stroke-width="2"/>
<line x1="159" y1="513" x2="159" y2="526" stroke="black" stroke-width="2"/>
<line x1="196" y1="513" x2="196" y2="526" stroke="black" stroke-width="2"/>
<line x1="233" y1="513" x2="233" y2="526" stroke="black" stroke-width="2"/>
<line x1="270" y1="513" x2="270" y2="526" stroke="black" stroke-width="2"/>
<line x1="307" y1="513" x2="307" y2="526" stroke="black" stroke-width="2"/>
<line x1="344" y1="513" x2="344" y2="526" stroke="black" stroke-width="2"/>
<line x1="381" y1="513" x2="381" y2="526" stroke="black" stroke-width="2"/>
<line x1="418" y1="513" x2="418" y2="526" stroke="black" stroke-width="2"/>
<line x1="455" y1="513" x2="455" y2="526" stroke="black" stroke-width="2"/>
<line x1="492" y1="513" x2="492" y2="526" stroke="black" stroke-width="2"/>
<line x1="529" y1="513" x2="529" y2="526" stroke="black" stroke-width="2"/>
<line x1="566" y1="513" x2="566" y2="526" stroke="black" stroke-width="2"/>
<path d="M175.054 28.1367C174.42 28.123 173.869 27.9704 173.399 27.6787C172.935 27.387 172.568 26.9587 172.299 26.3936C172.03 25.8239 171.882 25.1859 171.854 24.4795C171.827 23.9281 171.889 23.2467 172.039 22.4355C172.189 21.6243 172.449 20.8929 172.818 20.2412C173.188 19.5895 173.636 19.0677 174.165 18.6758C174.881 18.1471 175.696 17.8919 176.612 17.9102C177.583 17.9284 178.349 18.2656 178.909 18.9219C179.47 19.5736 179.771 20.4577 179.812 21.5742C179.83 22.0527 179.78 22.6611 179.661 23.3994C179.547 24.1377 179.34 24.8236 179.039 25.457C178.743 26.0905 178.365 26.6214 177.904 27.0498C177.102 27.7972 176.152 28.1595 175.054 28.1367ZM178.547 21.8887C178.574 20.9909 178.417 20.2959 178.075 19.8037C177.733 19.307 177.225 19.0495 176.551 19.0312C175.94 19.013 175.393 19.1771 174.91 19.5234C174.432 19.8698 174.037 20.3893 173.728 21.082C173.422 21.7702 173.229 22.6429 173.146 23.7002L173.126 24.1445C173.099 25.0378 173.258 25.7373 173.604 26.2432C173.951 26.749 174.454 27.0111 175.115 27.0293C175.977 27.0521 176.69 26.7422 177.255 26.0996C177.825 25.4525 178.203 24.5456 178.39 23.3789C178.481 22.8047 178.533 22.3079 178.547 21.8887ZM181.315 23.9873C181.466 22.9346 181.744 21.9092 182.149 20.9111C182.56 19.9131 183.061 19.0632 183.653 18.3613C184.246 17.6549 184.907 17.1217 185.636 16.7617L185.82 17.6094C185.105 18.1426 184.49 18.8398 183.975 19.7012C183.464 20.5579 183.07 21.5788 182.792 22.7637C182.514 23.944 182.38 25.1084 182.389 26.2568C182.389 27.2002 182.509 28.0296 182.751 28.7451C182.997 29.4652 183.35 30.0326 183.811 30.4473L183.503 31.2129C182.742 30.6842 182.159 29.9027 181.753 28.8682C181.352 27.8337 181.17 26.6488 181.206 25.3135C181.215 24.876 181.247 24.459 181.302 24.0625L181.315 23.9873ZM187.789 20.5967L187.611 21.5332C188.277 20.804 189.033 20.4486 189.881 20.4668C190.578 20.485 191.093 20.7266 191.426 21.1914C191.758 21.6562 191.882 22.3102 191.795 23.1533L190.988 28H189.751L190.564 23.1328C190.592 22.9095 190.594 22.7021 190.571 22.5107C190.494 21.8727 190.118 21.5469 189.443 21.5332C188.701 21.5195 188.049 21.916 187.488 22.7227L186.572 28H185.335L186.62 20.6035L187.789 20.5967ZM197.291 23.4404H193.312L193.449 22.6475L195.876 20.6104C196.327 20.2275 196.58 19.8675 196.635 19.5303C196.667 19.3115 196.621 19.1406 196.498 19.0176C196.38 18.8945 196.211 18.8307 195.992 18.8262C195.691 18.8216 195.45 18.9059 195.268 19.0791C195.085 19.2477 194.962 19.4733 194.898 19.7559L193.846 19.7627C193.896 19.2295 194.119 18.7943 194.516 18.457C194.912 18.1152 195.402 17.9489 195.985 17.958C196.532 17.9671 196.963 18.1152 197.277 18.4023C197.596 18.6895 197.744 19.0654 197.722 19.5303C197.685 20.0908 197.323 20.6559 196.635 21.2256L196.197 21.5742L194.857 22.5654H197.448L197.291 23.4404ZM201.468 24.001C201.308 25.113 201.019 26.1657 200.6 27.1592C200.18 28.1481 199.677 28.9821 199.089 29.6611C198.506 30.3447 197.858 30.8643 197.147 31.2197L196.956 30.4336C198.519 29.2578 199.563 27.3688 200.087 24.7666C200.297 23.7184 200.397 22.709 200.388 21.7383C200.365 19.7832 199.891 18.3818 198.966 17.5342L199.287 16.7686C199.798 17.124 200.228 17.598 200.579 18.1904C200.935 18.7783 201.194 19.4642 201.358 20.248C201.527 21.0273 201.602 21.8363 201.584 22.6748C201.57 23.1169 201.536 23.5339 201.481 23.9258L201.468 24.001Z" fill="black"/>
<path d="M66.1289 484H64.8848L66.3477 475.605L63.7021 476.535L63.9141 475.332L67.6055 473.999H67.8242L66.1289 484Z" fill="black"/>
<path d="M68.4941 450H62.1572L62.3076 449.036L65.9785 445.468L66.6484 444.805C67.4186 444.035 67.8447 443.324 67.9268 442.672C67.986 442.171 67.888 441.763 67.6328 441.448C67.3776 441.129 67.0176 440.961 66.5527 440.942C65.9557 440.924 65.4567 441.1 65.0557 441.469C64.6546 441.833 64.4108 442.335 64.3242 442.973L63.1006 442.979C63.1598 442.369 63.3467 441.829 63.6611 441.359C63.9801 440.885 64.3971 440.523 64.9121 440.272C65.4316 440.017 65.9945 439.896 66.6006 439.91C67.4255 439.928 68.0794 440.179 68.5625 440.662C69.0501 441.141 69.2598 441.763 69.1914 442.528C69.1139 443.403 68.6104 444.324 67.6807 445.29L67.0518 445.926L63.8525 448.968H68.6582L68.4941 450Z" fill="black"/>
<path d="M64.8438 404.408L65.6641 404.415C66.2656 404.415 66.7715 404.258 67.1816 403.943C67.5964 403.624 67.8333 403.194 67.8926 402.651C67.9518 402.123 67.8538 401.708 67.5986 401.407C67.3434 401.102 66.972 400.945 66.4844 400.936C65.9648 400.926 65.5228 401.079 65.1582 401.394C64.7982 401.703 64.5771 402.123 64.4951 402.651L63.2715 402.658C63.349 401.838 63.6976 401.173 64.3174 400.662C64.9417 400.147 65.6846 399.894 66.5459 399.903C67.3799 399.922 68.0339 400.184 68.5078 400.689C68.9863 401.191 69.1937 401.854 69.1299 402.679C69.0889 403.148 68.9089 403.576 68.5898 403.964C68.2708 404.351 67.8288 404.673 67.2637 404.928C67.7148 405.11 68.0521 405.399 68.2754 405.796C68.4987 406.188 68.5921 406.648 68.5557 407.177C68.4827 408.075 68.125 408.797 67.4824 409.344C66.8444 409.891 66.0674 410.155 65.1514 410.137C64.2992 410.118 63.6201 409.854 63.1143 409.344C62.6084 408.833 62.3737 408.175 62.4102 407.368L63.6475 407.375C63.6201 407.885 63.7432 408.298 64.0166 408.612C64.29 408.922 64.6865 409.086 65.2061 409.104C65.7894 409.123 66.2747 408.956 66.6621 408.605C67.0495 408.255 67.2705 407.785 67.3252 407.197C67.3753 406.655 67.2523 406.233 66.9561 405.933C66.6598 405.627 66.2178 405.465 65.6299 405.447L64.6797 405.44L64.8438 404.408Z" fill="black"/>
<path d="M67.8584 367.657H69.1982L69.0137 368.689H67.6807L67.2773 371H66.0332L66.4365 368.689H62.0342L62.1777 367.876L67.6465 361.047H69L67.8584 367.657ZM63.6611 367.657H66.6143L67.5029 362.763L67.3047 363.05L63.6611 367.657Z" fill="black"/>
<path d="M63.4971 330.989L64.7617 326.047H69.7246L69.54 327.216H65.6436L64.8779 329.937C65.3792 329.64 65.9215 329.497 66.5049 329.506C67.3298 329.515 67.9632 329.827 68.4053 330.442C68.8473 331.053 69.0273 331.832 68.9453 332.78C68.8587 333.801 68.4964 334.621 67.8584 335.241C67.2204 335.861 66.4251 336.162 65.4727 336.144C64.6797 336.134 64.0394 335.879 63.5518 335.378C63.0641 334.877 62.8066 334.209 62.7793 333.375H63.9346C63.9665 333.922 64.1214 334.346 64.3994 334.646C64.6774 334.947 65.0534 335.102 65.5273 335.111C66.1107 335.13 66.6006 334.922 66.9971 334.489C67.3981 334.056 67.6351 333.489 67.708 332.787C67.7718 332.172 67.6647 331.666 67.3867 331.27C67.1087 330.868 66.7008 330.659 66.1631 330.641C65.8304 330.632 65.5342 330.682 65.2744 330.791C65.0192 330.9 64.764 331.058 64.5088 331.263L63.4971 330.989Z" fill="black"/>
<path d="M68.5283 289.033L68.4189 290.106H68.1797C67.2682 290.125 66.4889 290.407 65.8418 290.954C65.1947 291.501 64.6934 292.308 64.3379 293.374C64.9577 292.754 65.6823 292.453 66.5117 292.472C67.0358 292.481 67.4847 292.627 67.8584 292.909C68.2321 293.187 68.5055 293.575 68.6787 294.071C68.8564 294.563 68.918 295.108 68.8633 295.705C68.7721 296.712 68.4098 297.544 67.7764 298.2C67.1475 298.852 66.3727 299.164 65.4521 299.137C64.7139 299.118 64.1077 298.847 63.6338 298.323C63.1598 297.799 62.8887 297.097 62.8203 296.218C62.7839 295.739 62.8408 295.092 62.9912 294.276C63.3057 292.576 63.9255 291.278 64.8506 290.38C65.7803 289.482 66.9606 289.033 68.3916 289.033H68.5283ZM66.2451 293.518C65.8031 293.508 65.3883 293.636 65.001 293.9C64.6136 294.165 64.3151 294.502 64.1055 294.912L64.0576 295.37L64.0439 295.924C64.0439 296.298 64.1009 296.66 64.2148 297.011C64.3288 297.362 64.4974 297.628 64.7207 297.811C64.944 297.993 65.2061 298.086 65.5068 298.091C66.0583 298.114 66.5299 297.909 66.9219 297.476C67.3184 297.043 67.5553 296.473 67.6328 295.767C67.6784 295.356 67.6533 294.98 67.5576 294.639C67.4619 294.297 67.3024 294.028 67.0791 293.832C66.8604 293.632 66.5824 293.527 66.2451 293.518Z" fill="black"/>
<path d="M69.834 255.826L64.4268 265H63.0732L68.4531 256.086H63.2578L63.4219 255.047H69.957L69.834 255.826Z" fill="black"/>
<path d="M69.2734 219.583C69.2324 220.08 69.0547 220.529 68.7402 220.93C68.4303 221.326 68.0065 221.654 67.4688 221.914C67.8971 222.16 68.2139 222.491 68.4189 222.905C68.6286 223.315 68.7152 223.764 68.6787 224.252C68.6104 225.132 68.2503 225.838 67.5986 226.371C66.9469 226.9 66.1608 227.155 65.2402 227.137C64.3789 227.118 63.6976 226.852 63.1963 226.337C62.695 225.822 62.4785 225.166 62.5469 224.368C62.597 223.799 62.7975 223.302 63.1484 222.878C63.4993 222.45 63.9779 222.103 64.584 221.839C64.2285 221.593 63.9642 221.283 63.791 220.909C63.6224 220.535 63.5563 220.134 63.5928 219.706C63.6566 218.863 63.987 218.182 64.584 217.662C65.181 217.143 65.9147 216.892 66.7852 216.91C67.5781 216.928 68.207 217.186 68.6719 217.683C69.1367 218.179 69.3372 218.813 69.2734 219.583ZM67.4551 224.225C67.5098 223.71 67.4004 223.281 67.127 222.939C66.8535 222.593 66.457 222.411 65.9375 222.393C65.3724 222.383 64.8893 222.563 64.4883 222.933C64.0872 223.297 63.8548 223.769 63.791 224.348C63.7363 224.876 63.8457 225.3 64.1191 225.619C64.3971 225.938 64.7891 226.102 65.2949 226.111C65.8691 226.13 66.3568 225.963 66.7578 225.612C67.1589 225.257 67.3913 224.794 67.4551 224.225ZM68.0293 219.604C68.0794 219.143 67.9837 218.756 67.7422 218.441C67.5052 218.127 67.1657 217.961 66.7236 217.942C66.2132 217.933 65.7826 218.097 65.4316 218.435C65.0807 218.767 64.8757 219.198 64.8164 219.727C64.7663 220.201 64.862 220.59 65.1035 220.896C65.3496 221.201 65.6937 221.358 66.1357 221.367C66.6325 221.376 67.0563 221.217 67.4072 220.889C67.7627 220.556 67.9701 220.128 68.0293 219.604Z" fill="black"/>
<path d="M67.626 186.625C67.2887 186.98 66.931 187.247 66.5527 187.425C66.1745 187.598 65.7985 187.68 65.4248 187.671C64.9007 187.662 64.4518 187.514 64.0781 187.227C63.709 186.939 63.4378 186.545 63.2646 186.044C63.096 185.543 63.0391 184.996 63.0938 184.403C63.153 183.747 63.3376 183.146 63.6475 182.599C63.9574 182.052 64.3607 181.63 64.8574 181.334C65.3587 181.033 65.9102 180.892 66.5117 180.91C67.3047 180.928 67.9268 181.215 68.3779 181.771C68.8291 182.327 69.0729 183.073 69.1094 184.007C69.123 184.494 69.0661 185.101 68.9385 185.825C68.6377 187.53 68.043 188.815 67.1543 189.681C66.2702 190.542 65.1331 190.986 63.7432 191.014H63.4355L63.5449 189.947H63.7979C64.7777 189.929 65.5798 189.656 66.2041 189.127C66.833 188.594 67.307 187.76 67.626 186.625ZM65.6846 186.625C66.0993 186.643 66.498 186.527 66.8809 186.276C67.2637 186.021 67.5781 185.679 67.8242 185.251L67.8789 184.752L67.8994 184.198C67.8812 183.492 67.749 182.947 67.5029 182.564C67.2614 182.182 66.9128 181.981 66.457 181.963C65.8919 181.94 65.4089 182.159 65.0078 182.619C64.6113 183.075 64.3812 183.647 64.3174 184.335C64.2855 184.613 64.29 184.896 64.3311 185.183C64.3721 185.47 64.4541 185.723 64.5771 185.941C64.8232 186.383 65.1924 186.611 65.6846 186.625Z" fill="black"/>
<path d="M62.1289 153H60.8848L62.3477 144.605L59.7021 145.535L59.9141 144.332L63.6055 142.999H63.8242L62.1289 153ZM68.9238 153.137C68.0853 153.118 67.4564 152.822 67.0371 152.248C66.6178 151.669 66.4264 150.838 66.4629 149.753C66.472 149.416 66.4971 149.083 66.5381 148.755L66.7842 147.094C67.0029 145.676 67.4199 144.619 68.0352 143.922C68.6504 143.225 69.4616 142.887 70.4688 142.91C71.3164 142.928 71.9476 143.22 72.3623 143.785C72.7816 144.346 72.9753 145.161 72.9434 146.232C72.9297 146.574 72.9023 146.909 72.8613 147.237L72.6221 148.844C72.3805 150.343 71.9544 151.439 71.3438 152.132C70.7331 152.825 69.9264 153.16 68.9238 153.137ZM71.665 147.012C71.7288 146.46 71.7585 146.032 71.7539 145.727C71.7311 144.569 71.2822 143.974 70.4072 143.942C69.7692 143.92 69.252 144.157 68.8555 144.653C68.4635 145.146 68.1901 145.92 68.0352 146.978L67.7412 148.96C67.6774 149.489 67.6478 149.919 67.6523 150.252C67.6751 151.46 68.1217 152.079 68.9922 152.111C69.5983 152.139 70.0973 151.915 70.4893 151.441C70.8857 150.967 71.1683 150.215 71.3369 149.186L71.665 147.012Z" fill="black"/>
<path d="M62.1289 115H60.8848L62.3477 106.605L59.7021 107.535L59.9141 106.332L63.6055 104.999H63.8242L62.1289 115ZM69.8262 115H68.582L70.0449 106.605L67.3994 107.535L67.6113 106.332L71.3027 104.999H71.5215L69.8262 115Z" fill="black"/>
<path d="M61.1289 79H59.8848L61.3477 70.6055L58.7021 71.5352L58.9141 70.332L62.6055 68.999H62.8242L61.1289 79ZM71.1914 79H64.8545L65.0049 78.0361L68.6758 74.4678L69.3457 73.8047C70.1159 73.0345 70.542 72.3236 70.624 71.6719C70.6833 71.1706 70.5853 70.7627 70.3301 70.4482C70.0749 70.1292 69.7148 69.9606 69.25 69.9424C68.653 69.9242 68.154 70.0996 67.7529 70.4688C67.3519 70.8333 67.1081 71.3346 67.0215 71.9727L65.7979 71.9795C65.8571 71.3688 66.0439 70.8288 66.3584 70.3594C66.6774 69.8854 67.0944 69.5231 67.6094 69.2725C68.1289 69.0173 68.6917 68.8965 69.2979 68.9102C70.1227 68.9284 70.7767 69.179 71.2598 69.6621C71.7474 70.1406 71.957 70.7627 71.8887 71.5283C71.8112 72.4033 71.3076 73.3239 70.3779 74.29L69.749 74.9258L66.5498 77.9678H71.3555L71.1914 79Z" fill="black"/>
<path d="M61.1289 41H59.8848L61.3477 32.6055L58.7021 33.5352L58.9141 32.332L62.6055 30.999H62.8242L61.1289 41ZM67.541 35.4082L68.3613 35.415C68.9629 35.415 69.4688 35.2578 69.8789 34.9434C70.2936 34.6243 70.5306 34.1937 70.5898 33.6514C70.6491 33.1227 70.5511 32.708 70.2959 32.4072C70.0407 32.1019 69.6693 31.9447 69.1816 31.9355C68.6621 31.9264 68.2201 32.0791 67.8555 32.3936C67.4954 32.7035 67.2744 33.1227 67.1924 33.6514L65.9688 33.6582C66.0462 32.8379 66.3949 32.1725 67.0146 31.6621C67.639 31.1471 68.3818 30.8942 69.2432 30.9033C70.0771 30.9215 70.7311 31.1836 71.2051 31.6895C71.6836 32.1908 71.891 32.8538 71.8271 33.6787C71.7861 34.1481 71.6061 34.5765 71.2871 34.9639C70.9681 35.3512 70.526 35.6725 69.9609 35.9277C70.4121 36.11 70.7493 36.3994 70.9727 36.7959C71.196 37.1878 71.2894 37.6481 71.2529 38.1768C71.18 39.0745 70.8223 39.7969 70.1797 40.3438C69.5417 40.8906 68.7646 41.1549 67.8486 41.1367C66.9964 41.1185 66.3174 40.8542 65.8115 40.3438C65.3057 39.8333 65.071 39.1748 65.1074 38.3682L66.3447 38.375C66.3174 38.8854 66.4404 39.2979 66.7139 39.6123C66.9873 39.9222 67.3838 40.0863 67.9033 40.1045C68.4867 40.1227 68.972 39.9564 69.3594 39.6055C69.7467 39.2546 69.9678 38.7852 70.0225 38.1973C70.0726 37.6549 69.9495 37.2334 69.6533 36.9326C69.3571 36.6273 68.915 36.4655 68.3271 36.4473L67.377 36.4404L67.541 35.4082Z" fill="black"/>
<path d="M122.129 545H120.885L122.348 536.605L119.702 537.535L119.914 536.332L123.605 534.999H123.824L122.129 545Z" fill="black"/>
<path d="M161.494 545H155.157L155.308 544.036L158.979 540.468L159.648 539.805C160.419 539.035 160.845 538.324 160.927 537.672C160.986 537.171 160.888 536.763 160.633 536.448C160.378 536.129 160.018 535.961 159.553 535.942C158.956 535.924 158.457 536.1 158.056 536.469C157.655 536.833 157.411 537.335 157.324 537.973L156.101 537.979C156.16 537.369 156.347 536.829 156.661 536.359C156.98 535.885 157.397 535.523 157.912 535.272C158.432 535.017 158.994 534.896 159.601 534.91C160.425 534.928 161.079 535.179 161.562 535.662C162.05 536.141 162.26 536.763 162.191 537.528C162.114 538.403 161.61 539.324 160.681 540.29L160.052 540.926L156.853 543.968H161.658L161.494 545Z" fill="black"/>
<path d="M194.844 539.408L195.664 539.415C196.266 539.415 196.771 539.258 197.182 538.943C197.596 538.624 197.833 538.194 197.893 537.651C197.952 537.123 197.854 536.708 197.599 536.407C197.343 536.102 196.972 535.945 196.484 535.936C195.965 535.926 195.523 536.079 195.158 536.394C194.798 536.703 194.577 537.123 194.495 537.651L193.271 537.658C193.349 536.838 193.698 536.173 194.317 535.662C194.942 535.147 195.685 534.894 196.546 534.903C197.38 534.922 198.034 535.184 198.508 535.689C198.986 536.191 199.194 536.854 199.13 537.679C199.089 538.148 198.909 538.576 198.59 538.964C198.271 539.351 197.829 539.673 197.264 539.928C197.715 540.11 198.052 540.399 198.275 540.796C198.499 541.188 198.592 541.648 198.556 542.177C198.483 543.075 198.125 543.797 197.482 544.344C196.844 544.891 196.067 545.155 195.151 545.137C194.299 545.118 193.62 544.854 193.114 544.344C192.608 543.833 192.374 543.175 192.41 542.368L193.647 542.375C193.62 542.885 193.743 543.298 194.017 543.612C194.29 543.922 194.687 544.086 195.206 544.104C195.789 544.123 196.275 543.956 196.662 543.605C197.049 543.255 197.271 542.785 197.325 542.197C197.375 541.655 197.252 541.233 196.956 540.933C196.66 540.627 196.218 540.465 195.63 540.447L194.68 540.44L194.844 539.408Z" fill="black"/>
<path d="M234.858 541.657H236.198L236.014 542.689H234.681L234.277 545H233.033L233.437 542.689H229.034L229.178 541.876L234.646 535.047H236L234.858 541.657ZM230.661 541.657H233.614L234.503 536.763L234.305 537.05L230.661 541.657Z" fill="black"/>
<path d="M267.497 539.989L268.762 535.047H273.725L273.54 536.216H269.644L268.878 538.937C269.379 538.64 269.922 538.497 270.505 538.506C271.33 538.515 271.963 538.827 272.405 539.442C272.847 540.053 273.027 540.832 272.945 541.78C272.859 542.801 272.496 543.621 271.858 544.241C271.22 544.861 270.425 545.162 269.473 545.144C268.68 545.134 268.039 544.879 267.552 544.378C267.064 543.877 266.807 543.209 266.779 542.375H267.935C267.966 542.922 268.121 543.346 268.399 543.646C268.677 543.947 269.053 544.102 269.527 544.111C270.111 544.13 270.601 543.922 270.997 543.489C271.398 543.056 271.635 542.489 271.708 541.787C271.772 541.172 271.665 540.666 271.387 540.27C271.109 539.868 270.701 539.659 270.163 539.641C269.83 539.632 269.534 539.682 269.274 539.791C269.019 539.9 268.764 540.058 268.509 540.263L267.497 539.989Z" fill="black"/>
<path d="M309.528 535.033L309.419 536.106H309.18C308.268 536.125 307.489 536.407 306.842 536.954C306.195 537.501 305.693 538.308 305.338 539.374C305.958 538.754 306.682 538.453 307.512 538.472C308.036 538.481 308.485 538.627 308.858 538.909C309.232 539.187 309.506 539.575 309.679 540.071C309.856 540.563 309.918 541.108 309.863 541.705C309.772 542.712 309.41 543.544 308.776 544.2C308.147 544.852 307.373 545.164 306.452 545.137C305.714 545.118 305.108 544.847 304.634 544.323C304.16 543.799 303.889 543.097 303.82 542.218C303.784 541.739 303.841 541.092 303.991 540.276C304.306 538.576 304.925 537.278 305.851 536.38C306.78 535.482 307.961 535.033 309.392 535.033H309.528ZM307.245 539.518C306.803 539.508 306.388 539.636 306.001 539.9C305.614 540.165 305.315 540.502 305.105 540.912L305.058 541.37L305.044 541.924C305.044 542.298 305.101 542.66 305.215 543.011C305.329 543.362 305.497 543.628 305.721 543.811C305.944 543.993 306.206 544.086 306.507 544.091C307.058 544.114 307.53 543.909 307.922 543.476C308.318 543.043 308.555 542.473 308.633 541.767C308.678 541.356 308.653 540.98 308.558 540.639C308.462 540.297 308.302 540.028 308.079 539.832C307.86 539.632 307.582 539.527 307.245 539.518Z" fill="black"/>
<path d="M347.834 535.826L342.427 545H341.073L346.453 536.086H341.258L341.422 535.047H347.957L347.834 535.826Z" fill="black"/>
<path d="M384.273 537.583C384.232 538.08 384.055 538.529 383.74 538.93C383.43 539.326 383.007 539.654 382.469 539.914C382.897 540.16 383.214 540.491 383.419 540.905C383.629 541.315 383.715 541.764 383.679 542.252C383.61 543.132 383.25 543.838 382.599 544.371C381.947 544.9 381.161 545.155 380.24 545.137C379.379 545.118 378.698 544.852 378.196 544.337C377.695 543.822 377.479 543.166 377.547 542.368C377.597 541.799 377.798 541.302 378.148 540.878C378.499 540.45 378.978 540.103 379.584 539.839C379.229 539.593 378.964 539.283 378.791 538.909C378.622 538.535 378.556 538.134 378.593 537.706C378.657 536.863 378.987 536.182 379.584 535.662C380.181 535.143 380.915 534.892 381.785 534.91C382.578 534.928 383.207 535.186 383.672 535.683C384.137 536.179 384.337 536.813 384.273 537.583ZM382.455 542.225C382.51 541.71 382.4 541.281 382.127 540.939C381.854 540.593 381.457 540.411 380.938 540.393C380.372 540.383 379.889 540.563 379.488 540.933C379.087 541.297 378.855 541.769 378.791 542.348C378.736 542.876 378.846 543.3 379.119 543.619C379.397 543.938 379.789 544.102 380.295 544.111C380.869 544.13 381.357 543.963 381.758 543.612C382.159 543.257 382.391 542.794 382.455 542.225ZM383.029 537.604C383.079 537.143 382.984 536.756 382.742 536.441C382.505 536.127 382.166 535.961 381.724 535.942C381.213 535.933 380.783 536.097 380.432 536.435C380.081 536.767 379.876 537.198 379.816 537.727C379.766 538.201 379.862 538.59 380.104 538.896C380.35 539.201 380.694 539.358 381.136 539.367C381.632 539.376 382.056 539.217 382.407 538.889C382.763 538.556 382.97 538.128 383.029 537.604Z" fill="black"/>
<path d="M419.626 540.625C419.289 540.98 418.931 541.247 418.553 541.425C418.174 541.598 417.799 541.68 417.425 541.671C416.901 541.662 416.452 541.514 416.078 541.227C415.709 540.939 415.438 540.545 415.265 540.044C415.096 539.543 415.039 538.996 415.094 538.403C415.153 537.747 415.338 537.146 415.647 536.599C415.957 536.052 416.361 535.63 416.857 535.334C417.359 535.033 417.91 534.892 418.512 534.91C419.305 534.928 419.927 535.215 420.378 535.771C420.829 536.327 421.073 537.073 421.109 538.007C421.123 538.494 421.066 539.101 420.938 539.825C420.638 541.53 420.043 542.815 419.154 543.681C418.27 544.542 417.133 544.986 415.743 545.014H415.436L415.545 543.947H415.798C416.778 543.929 417.58 543.656 418.204 543.127C418.833 542.594 419.307 541.76 419.626 540.625ZM417.685 540.625C418.099 540.643 418.498 540.527 418.881 540.276C419.264 540.021 419.578 539.679 419.824 539.251L419.879 538.752L419.899 538.198C419.881 537.492 419.749 536.947 419.503 536.564C419.261 536.182 418.913 535.981 418.457 535.963C417.892 535.94 417.409 536.159 417.008 536.619C416.611 537.075 416.381 537.647 416.317 538.335C416.285 538.613 416.29 538.896 416.331 539.183C416.372 539.47 416.454 539.723 416.577 539.941C416.823 540.383 417.192 540.611 417.685 540.625Z" fill="black"/>
<path d="M451.129 545H449.885L451.348 536.605L448.702 537.535L448.914 536.332L452.605 534.999H452.824L451.129 545ZM457.924 545.137C457.085 545.118 456.456 544.822 456.037 544.248C455.618 543.669 455.426 542.838 455.463 541.753C455.472 541.416 455.497 541.083 455.538 540.755L455.784 539.094C456.003 537.676 456.42 536.619 457.035 535.922C457.65 535.225 458.462 534.887 459.469 534.91C460.316 534.928 460.948 535.22 461.362 535.785C461.782 536.346 461.975 537.161 461.943 538.232C461.93 538.574 461.902 538.909 461.861 539.237L461.622 540.844C461.381 542.343 460.954 543.439 460.344 544.132C459.733 544.825 458.926 545.16 457.924 545.137ZM460.665 539.012C460.729 538.46 460.758 538.032 460.754 537.727C460.731 536.569 460.282 535.974 459.407 535.942C458.769 535.92 458.252 536.157 457.855 536.653C457.464 537.146 457.19 537.92 457.035 538.978L456.741 540.96C456.677 541.489 456.648 541.919 456.652 542.252C456.675 543.46 457.122 544.079 457.992 544.111C458.598 544.139 459.097 543.915 459.489 543.441C459.886 542.967 460.168 542.215 460.337 541.186L460.665 539.012Z" fill="black"/>
<path d="M488.129 545H486.885L488.348 536.605L485.702 537.535L485.914 536.332L489.605 534.999H489.824L488.129 545ZM495.826 545H494.582L496.045 536.605L493.399 537.535L493.611 536.332L497.303 534.999H497.521L495.826 545Z" fill="black"/>
<path d="M525.129 545H523.885L525.348 536.605L522.702 537.535L522.914 536.332L526.605 534.999H526.824L525.129 545ZM535.191 545H528.854L529.005 544.036L532.676 540.468L533.346 539.805C534.116 539.035 534.542 538.324 534.624 537.672C534.683 537.171 534.585 536.763 534.33 536.448C534.075 536.129 533.715 535.961 533.25 535.942C532.653 535.924 532.154 536.1 531.753 536.469C531.352 536.833 531.108 537.335 531.021 537.973L529.798 537.979C529.857 537.369 530.044 536.829 530.358 536.359C530.677 535.885 531.094 535.523 531.609 535.272C532.129 535.017 532.692 534.896 533.298 534.91C534.123 534.928 534.777 535.179 535.26 535.662C535.747 536.141 535.957 536.763 535.889 537.528C535.811 538.403 535.308 539.324 534.378 540.29L533.749 540.926L530.55 543.968H535.355L535.191 545Z" fill="black"/>
<path d="M562.129 544H560.885L562.348 535.605L559.702 536.535L559.914 535.332L563.605 533.999H563.824L562.129 544ZM568.541 538.408L569.361 538.415C569.963 538.415 570.469 538.258 570.879 537.943C571.294 537.624 571.531 537.194 571.59 536.651C571.649 536.123 571.551 535.708 571.296 535.407C571.041 535.102 570.669 534.945 570.182 534.936C569.662 534.926 569.22 535.079 568.855 535.394C568.495 535.703 568.274 536.123 568.192 536.651L566.969 536.658C567.046 535.838 567.395 535.173 568.015 534.662C568.639 534.147 569.382 533.894 570.243 533.903C571.077 533.922 571.731 534.184 572.205 534.689C572.684 535.191 572.891 535.854 572.827 536.679C572.786 537.148 572.606 537.576 572.287 537.964C571.968 538.351 571.526 538.673 570.961 538.928C571.412 539.11 571.749 539.399 571.973 539.796C572.196 540.188 572.289 540.648 572.253 541.177C572.18 542.075 571.822 542.797 571.18 543.344C570.542 543.891 569.765 544.155 568.849 544.137C567.996 544.118 567.317 543.854 566.812 543.344C566.306 542.833 566.071 542.175 566.107 541.368L567.345 541.375C567.317 541.885 567.44 542.298 567.714 542.612C567.987 542.922 568.384 543.086 568.903 543.104C569.487 543.123 569.972 542.956 570.359 542.605C570.747 542.255 570.968 541.785 571.022 541.197C571.073 540.655 570.95 540.233 570.653 539.933C570.357 539.627 569.915 539.465 569.327 539.447L568.377 539.44L568.541 538.408Z" fill="black"/>
<path d="M85 519C141 519 202 215 217 16" stroke="black" stroke-width="2"/>
<path d="M310.197 568H309.072V559.469H310.197V568ZM313.115 561.66L313.15 562.457C313.635 561.848 314.268 561.543 315.049 561.543C316.389 561.543 317.064 562.299 317.076 563.811V568H315.992V563.805C315.988 563.348 315.883 563.01 315.676 562.791C315.473 562.572 315.154 562.463 314.721 562.463C314.369 562.463 314.061 562.557 313.795 562.744C313.529 562.932 313.322 563.178 313.174 563.482V568H312.09V561.66H313.115ZM324.066 564.9C324.066 565.865 323.846 566.643 323.404 567.232C322.963 567.822 322.365 568.117 321.611 568.117C320.842 568.117 320.236 567.873 319.795 567.385V570.438H318.711V561.66H319.701L319.754 562.363C320.195 561.816 320.809 561.543 321.594 561.543C322.355 561.543 322.957 561.83 323.398 562.404C323.844 562.979 324.066 563.777 324.066 564.801V564.9ZM322.982 564.777C322.982 564.062 322.83 563.498 322.525 563.084C322.221 562.67 321.803 562.463 321.271 562.463C320.615 562.463 320.123 562.754 319.795 563.336V566.365C320.119 566.943 320.615 567.232 321.283 567.232C321.803 567.232 322.215 567.027 322.52 566.617C322.828 566.203 322.982 565.59 322.982 564.777ZM329.363 567.373C328.941 567.869 328.322 568.117 327.506 568.117C326.83 568.117 326.314 567.922 325.959 567.531C325.607 567.137 325.43 566.555 325.426 565.785V561.66H326.51V565.756C326.51 566.717 326.9 567.197 327.682 567.197C328.51 567.197 329.061 566.889 329.334 566.271V561.66H330.418V568H329.387L329.363 567.373ZM333.541 560.125V561.66H334.725V562.498H333.541V566.43C333.541 566.684 333.594 566.875 333.699 567.004C333.805 567.129 333.984 567.191 334.238 567.191C334.363 567.191 334.535 567.168 334.754 567.121V568C334.469 568.078 334.191 568.117 333.922 568.117C333.438 568.117 333.072 567.971 332.826 567.678C332.58 567.385 332.457 566.969 332.457 566.43V562.498H331.303V561.66H332.457V560.125H333.541ZM341.656 564.197C340.691 563.92 339.988 563.58 339.547 563.178C339.109 562.771 338.891 562.271 338.891 561.678C338.891 561.006 339.158 560.451 339.693 560.014C340.232 559.572 340.932 559.352 341.791 559.352C342.377 559.352 342.898 559.465 343.355 559.691C343.816 559.918 344.172 560.23 344.422 560.629C344.676 561.027 344.803 561.463 344.803 561.936H343.672C343.672 561.42 343.508 561.016 343.18 560.723C342.852 560.426 342.389 560.277 341.791 560.277C341.236 560.277 340.803 560.4 340.49 560.646C340.182 560.889 340.027 561.227 340.027 561.66C340.027 562.008 340.174 562.303 340.467 562.545C340.764 562.783 341.266 563.002 341.973 563.201C342.684 563.4 343.238 563.621 343.637 563.863C344.039 564.102 344.336 564.381 344.527 564.701C344.723 565.021 344.82 565.398 344.82 565.832C344.82 566.523 344.551 567.078 344.012 567.496C343.473 567.91 342.752 568.117 341.85 568.117C341.264 568.117 340.717 568.006 340.209 567.783C339.701 567.557 339.309 567.248 339.031 566.857C338.758 566.467 338.621 566.023 338.621 565.527H339.752C339.752 566.043 339.941 566.451 340.32 566.752C340.703 567.049 341.213 567.197 341.85 567.197C342.443 567.197 342.898 567.076 343.215 566.834C343.531 566.592 343.689 566.262 343.689 565.844C343.689 565.426 343.543 565.104 343.25 564.877C342.957 564.646 342.426 564.42 341.656 564.197ZM347.275 568H346.191V561.66H347.275V568ZM346.104 559.979C346.104 559.803 346.156 559.654 346.262 559.533C346.371 559.412 346.531 559.352 346.742 559.352C346.953 559.352 347.113 559.412 347.223 559.533C347.332 559.654 347.387 559.803 347.387 559.979C347.387 560.154 347.332 560.301 347.223 560.418C347.113 560.535 346.953 560.594 346.742 560.594C346.531 560.594 346.371 560.535 346.262 560.418C346.156 560.301 346.104 560.154 346.104 559.979ZM350.035 567.115H353.744V568H348.711V567.203L352.209 562.557H348.764V561.66H353.568V562.428L350.035 567.115ZM357.506 568.117C356.646 568.117 355.947 567.836 355.408 567.273C354.869 566.707 354.6 565.951 354.6 565.006V564.807C354.6 564.178 354.719 563.617 354.957 563.125C355.199 562.629 355.535 562.242 355.965 561.965C356.398 561.684 356.867 561.543 357.371 561.543C358.195 561.543 358.836 561.814 359.293 562.357C359.75 562.9 359.979 563.678 359.979 564.689V565.141H355.684C355.699 565.766 355.881 566.271 356.229 566.658C356.58 567.041 357.025 567.232 357.564 567.232C357.947 567.232 358.271 567.154 358.537 566.998C358.803 566.842 359.035 566.635 359.234 566.377L359.896 566.893C359.365 567.709 358.568 568.117 357.506 568.117ZM357.371 562.434C356.934 562.434 356.566 562.594 356.27 562.914C355.973 563.23 355.789 563.676 355.719 564.25H358.895V564.168C358.863 563.617 358.715 563.191 358.449 562.891C358.184 562.586 357.824 562.434 357.371 562.434Z" fill="black"/>
</svg>
