<?xml version="1.0" standalone="no"?>
<!DOCTYPE svg PUBLIC "-//W3C//DTD SVG 20010904//EN"
 "http://www.w3.org/TR/2001/REC-SVG-20010904/DTD/svg10.dtd">
<svg version="1.0" xmlns="http://www.w3.org/2000/svg"
 width="500.000000pt" height="500.000000pt" viewBox="0 0 500.000000 500.000000"
 preserveAspectRatio="xMidYMid meet">
<metadata>
Created by potrace 1.11, written by Peter Selinger 2001-2013
</metadata>
<g transform="translate(0.000000,500.000000) scale(0.100000,-0.100000)"
fill="#000000" stroke="none">
<path d="M2269 4896 c-2 -2 -35 -6 -74 -9 -38 -4 -83 -9 -100 -12 -16 -3 -46
-7 -65 -9 -19 -3 -35 -5 -35 -6 0 -1 -9 -3 -20 -5 -11 -2 -50 -11 -85 -20 -36
-9 -76 -18 -89 -21 -13 -3 -32 -9 -43 -15 -10 -5 -18 -7 -18 -3 0 3 -6 1 -13
-5 -8 -6 -16 -9 -19 -6 -2 2 -53 -16 -114 -40 -60 -25 -115 -45 -121 -45 -7 0
-13 -4 -13 -10 0 -5 -6 -10 -13 -10 -18 0 -212 -102 -269 -141 -14 -11 -31
-19 -37 -19 -6 0 -11 -4 -11 -10 0 -5 -5 -10 -10 -10 -6 0 -16 -5 -23 -10 -10
-9 -54 -42 -102 -77 -149 -110 -324 -286 -454 -458 -33 -44 -65 -85 -71 -92
-5 -7 -10 -15 -10 -18 0 -4 -13 -25 -29 -48 -15 -23 -36 -57 -45 -74 l-16 -33
75 2 c78 2 97 -4 77 -24 -7 -7 -12 -15 -12 -19 0 -4 248 -8 551 -8 303 0 554
-2 557 -5 9 -10 8 -340 -1 -353 -6 -8 -6 -13 0 -13 10 0 10 -106 1 -116 -4 -3
-220 -5 -481 -5 l-475 0 -1 -159 -2 -159 408 -1 c223 0 409 -3 412 -6 10 -10
7 -194 -4 -194 -7 0 -7 -3 0 -8 9 -6 12 -41 5 -67 -3 -11 -3 -13 4 -51 3 -16
0 -31 -7 -36 -7 -4 -7 -8 -2 -8 6 0 10 -24 10 -52 l-1 -53 -352 0 c-275 0
-352 -3 -352 -12 0 -14 -1 -14 -70 -16 l-45 -2 -2 -50 c-1 -27 -2 -54 -3 -60
-2 -5 -2 -13 -2 -16 1 -3 2 -55 3 -115 l1 -110 494 1 494 0 1 -25 c0 -31 0
-410 0 -427 -1 -10 -128 -13 -586 -15 l-585 -3 20 -37 20 -38 -86 1 c-47 0
-87 -1 -89 -3 -3 -3 53 -104 87 -156 10 -15 23 -37 29 -49 7 -13 16 -23 21
-23 4 0 8 -4 8 -10 0 -13 105 -149 165 -215 25 -27 45 -53 45 -57 0 -4 7 -8
15 -8 8 0 15 -4 15 -10 0 -13 163 -170 177 -170 3 0 13 -8 22 -18 9 -10 32
-29 51 -42 19 -13 40 -29 45 -35 13 -15 178 -123 188 -124 4 0 19 -9 34 -21
14 -11 31 -20 39 -20 7 0 14 -4 16 -8 5 -13 258 -132 282 -132 7 0 16 -3 20
-8 4 -4 12 -8 17 -8 5 -1 11 -3 14 -4 3 -1 8 -3 13 -5 4 -1 15 -5 25 -8 40
-16 53 -20 62 -22 6 -2 37 -10 70 -19 33 -9 71 -19 85 -22 14 -2 31 -7 39 -10
8 -2 30 -7 50 -10 20 -2 57 -9 82 -14 88 -18 205 -25 389 -25 181 0 273 7 393
31 12 2 39 6 60 9 22 4 49 10 62 15 13 5 25 7 27 4 3 -2 21 3 41 11 21 8 37
12 37 9 0 -4 6 -2 13 4 6 5 26 12 42 15 30 5 53 12 90 27 11 4 58 23 105 41
82 32 212 94 295 141 64 37 120 71 125 78 3 4 16 13 30 20 86 44 450 369 450
401 0 6 5 7 10 4 6 -3 10 -1 10 4 0 6 11 24 24 39 52 58 66 75 66 81 0 3 13
22 30 40 16 19 37 50 47 68 10 18 21 33 25 33 5 0 8 4 8 10 0 5 15 33 33 62
44 70 130 239 156 308 12 30 25 64 30 75 11 24 42 120 65 195 16 54 20 73 32
135 3 17 9 48 14 70 8 39 11 55 27 180 10 74 9 428 -1 510 -10 88 -23 168 -33
209 -3 11 -6 30 -8 41 -2 11 -4 21 -5 23 -3 2 -3 3 -14 52 -10 44 -45 159 -56
185 -5 11 -17 45 -28 75 -11 30 -29 76 -41 103 -11 26 -21 51 -22 55 -1 4 -10
19 -21 35 -11 15 -16 27 -12 27 3 0 1 6 -5 14 -10 12 -38 61 -75 133 -6 13
-14 23 -18 23 -5 0 -8 5 -8 11 0 12 -60 103 -72 107 -4 2 -8 8 -8 13 0 31
-222 279 -366 409 -91 83 -339 260 -363 260 -5 0 -11 4 -13 8 -4 9 -228 120
-315 156 -33 13 -64 22 -67 19 -3 -4 -6 0 -6 7 0 7 -3 10 -7 7 -3 -4 -12 -2
-20 4 -7 6 -13 8 -13 4 0 -4 -6 -3 -13 3 -7 6 -24 13 -37 15 -14 2 -32 6 -40
9 -22 8 -102 31 -122 35 -10 1 -28 5 -40 7 -13 2 -25 5 -28 6 -3 1 -8 2 -11 2
-4 -1 -21 3 -38 8 -18 5 -55 11 -84 15 -29 3 -68 8 -87 11 -41 6 -425 16 -431
10z m611 -1259 c286 -15 526 -116 700 -297 157 -162 238 -336 275 -590 12 -82
12 -306 1 -362 -3 -16 -8 -38 -10 -50 -30 -161 -87 -298 -177 -421 -27 -37
-49 -71 -49 -75 0 -4 16 -7 37 -8 75 -2 94 -81 39 -164 -18 -27 -21 -37 -11
-33 9 3 24 -2 34 -11 12 -11 18 -12 19 -4 7 69 38 205 51 226 10 17 51 24 51
9 0 -7 -16 -85 -37 -175 -28 -124 -41 -165 -55 -173 -28 -15 -37 -3 -28 38 7
32 7 35 -4 21 -19 -26 -95 -58 -138 -58 -35 0 -36 1 -31 33 4 28 38 165 59
236 10 35 -15 45 -40 17 -20 -22 -131 -108 -171 -133 -93 -58 -266 -119 -385
-138 -60 -9 -224 -13 -562 -14 l-478 -1 0 1064 0 1065 113 3 c164 4 675 1 797
-5z m1073 -1917 c10 -17 16 -33 14 -38 -3 -4 -1 -16 3 -27 7 -19 8 -19 19 5
23 55 78 90 141 90 32 0 35 -6 21 -43 -9 -23 -18 -67 -26 -132 -19 -136 -67
-200 -140 -186 -26 5 -30 11 -33 44 -3 31 0 39 20 46 23 8 42 -4 32 -21 -7
-11 5 -48 16 -48 8 0 40 72 40 89 0 5 -18 8 -41 8 -51 -1 -61 13 -56 78 l4 50
-19 -44 c-18 -44 -51 -80 -72 -82 -6 0 -18 -2 -27 -4 -31 -6 -43 12 -42 60 3
81 37 159 77 175 37 15 51 11 69 -20z"/>
<path d="M2554 2566 c0 -401 3 -587 10 -589 11 -4 290 1 336 5 14 2 31 7 38
11 6 5 12 6 12 3 0 -12 112 44 156 78 26 20 44 36 40 36 -4 0 6 12 23 26 17
14 31 32 31 40 0 8 4 14 9 14 11 0 58 99 66 137 8 39 13 58 15 58 15 0 19 262
6 340 -4 28 -11 52 -15 55 -5 5 -10 17 -15 45 -1 6 -8 20 -14 33 -7 12 -10 22
-7 22 13 0 -62 98 -108 142 -47 45 -173 115 -185 104 -3 -3 -12 0 -20 7 -11 8
-70 13 -197 15 l-182 3 1 -585z"/>
<path d="M3646 1738 c-8 -29 -18 -66 -21 -83 l-7 -30 26 37 c26 36 42 113 26
123 -5 3 -15 -18 -24 -47z"/>
<path d="M3620 1600 c-14 -8 -27 -70 -15 -70 34 0 85 57 67 74 -8 9 -35 7 -52
-4z"/>
<path d="M4046 1682 c-31 -49 -42 -103 -27 -131 7 -12 15 -21 19 -21 15 0 41
57 47 104 3 27 7 52 10 56 3 4 -2 13 -10 20 -11 9 -18 4 -39 -28z"/>
<path d="M3875 1656 c-9 -31 -15 -72 -13 -93 l4 -38 22 45 c22 46 30 124 12
135 -5 3 -16 -19 -25 -49z"/>
</g>
</svg>
